<svg width="108" height="208" viewBox="0 0 208 216" fill="none" xmlns="http://www.w3.org/2000/svg">
<path d="M203.1 40.6L107.1 0.599978C105.111 -0.200888 102.889 -0.200888 100.9 0.599978L4.89998 40.6C3.28447 41.3022 1.94189 42.5118 1.07571 44.0457C0.209541 45.5795 -0.133006 47.3539 0.0999852 49.1L16.1 169.1C16.2751 170.387 16.7572 171.613 17.5056 172.675C18.254 173.736 19.2467 174.602 20.4 175.2L100.4 215.2C101.527 215.727 102.756 216 104 216C105.244 216 106.473 215.727 107.6 215.2L187.6 175.2C188.753 174.602 189.746 173.736 190.494 172.675C191.243 171.613 191.725 170.387 191.9 169.1L207.9 49.1C208.133 47.3539 207.79 45.5795 206.924 44.0457C206.058 42.5118 204.716 41.3022 203.1 40.6V40.6ZM176.6 162.7L104 199.1L31.4 162.7L16.7 53L104 16.7L191.3 53L176.6 162.7ZM96.8 60.4L60.8 132.4C59.8452 134.31 59.6881 136.52 60.3632 138.546C61.0384 140.571 62.4904 142.245 64.4 143.2C66.3095 144.155 68.5202 144.312 70.5456 143.637C72.571 142.962 74.2452 141.51 75.2 139.6L83.6 122.7H124.4L132.8 139.6C133.48 140.924 134.512 142.035 135.782 142.812C137.052 143.588 138.511 143.999 140 144C141.241 143.974 142.465 143.702 143.6 143.2C145.482 142.216 146.908 140.541 147.58 138.527C148.251 136.512 148.115 134.316 147.2 132.4L111.2 60.4C110.519 59.0778 109.486 57.9688 108.216 57.1946C106.946 56.4203 105.487 56.0108 104 56.0108C102.513 56.0108 101.054 56.4203 99.7838 57.1946C98.5137 57.9688 97.4814 59.0778 96.8 60.4V60.4ZM116.4 106.7H91.6L104 81.9L116.4 106.7Z" fill="#EFF7F6"/>
</svg>
