<svg width="108" height="208" viewBox="0 0 455 512" fill="none" xmlns="http://www.w3.org/2000/svg">
<g clip-path="url(#clip0_84_34)">
<path d="M435.28 113.284L247.19 4.692C236.355 -1.564 218.623 -1.564 207.788 4.692L19.701 113.284C8.865 119.54 0 134.896 0 147.408V364.592C0.843 379.164 8.286 391.232 19.7 398.716L207.79 507.307C218.624 513.564 236.356 513.564 247.191 507.307L435.28 398.716C447.528 390.57 454.5 378.308 454.981 364.592V147.408C454.541 134.243 446.658 120.965 435.281 113.284H435.28ZM75.83 256.001C74.939 107.911 273.29 42.521 358.826 180.123L293.192 218.103C253.57 152.57 155.191 176.003 151.66 256.001C152.72 329.73 249.414 363.979 293.196 293.893L358.831 331.873C283.448 462.735 79.631 415.653 75.831 256.001H75.83ZM379.15 264.425H362.298V281.277H345.45V264.425H328.598V247.575H345.45V230.725H362.3V247.575H379.151V264.425H379.15ZM442.342 264.425H425.49V281.277H408.64V264.425H391.79V247.575H408.642V230.725H425.491V247.575H442.343V264.425H442.342Z" fill="#EFF7F6"/>
</g>
<defs>
<clipPath id="clip0_84_34">
<rect width="455" height="512" fill="white"/>
</clipPath>
</defs>
</svg>
