<svg width="400" height="400" viewBox="0 0 700 700" fill="none" xmlns="http://www.w3.org/2000/svg">
<path d="M348.67 680.47C530.843 680.47 678.524 595.206 678.524 490.028C678.524 384.85 530.843 299.586 348.67 299.586C166.497 299.586 18.816 384.85 18.816 490.028C18.816 595.206 166.497 680.47 348.67 680.47Z" fill="#F5F5F5"/>
<path d="M319.858 598.682L184.128 520.282C180.768 518.35 180.768 515.214 184.128 513.282L331.226 428.4C333.105 427.447 335.181 426.95 337.288 426.95C339.395 426.95 341.471 427.447 343.35 428.4L479.15 506.8C482.496 508.732 482.496 511.854 479.15 513.8L331.982 598.682C330.103 599.635 328.027 600.132 325.92 600.132C323.813 600.132 321.737 599.635 319.858 598.682V598.682Z" fill="#E0E0E0"/>
<path d="M553.392 592.284C588.689 592.284 617.302 575.761 617.302 555.38C617.302 534.998 588.689 518.476 553.392 518.476C518.095 518.476 489.482 534.998 489.482 555.38C489.482 575.761 518.095 592.284 553.392 592.284Z" fill="#E0E0E0"/>
<path d="M101.304 564.438L44.408 531.594C41.202 529.746 41.202 526.736 44.408 524.888L375.354 333.816C377.155 332.904 379.145 332.429 381.164 332.429C383.183 332.429 385.173 332.904 386.974 333.816L443.87 366.66C447.076 368.522 447.076 371.518 443.87 373.366L112.924 564.438C111.125 565.356 109.134 565.835 107.114 565.835C105.094 565.835 103.103 565.356 101.304 564.438Z" fill="#E0E0E0"/>
<path d="M305.816 499.394L354.732 471.114C359.772 468.202 362.292 464.38 362.292 460.572C362.292 456.764 362.292 453.768 362.292 453.768L311.542 425.152C310.129 424.231 308.953 422.991 308.107 421.532C307.26 420.073 306.768 418.436 306.67 416.752V364.546L221.27 413.91V466.088C221.368 467.772 221.86 469.409 222.707 470.868C223.553 472.327 224.729 473.567 226.142 474.488L269.318 499.366C279.384 505.218 295.736 505.218 305.816 499.394Z" fill="#263238"/>
<path d="M241.78 476.756V483.532L226.114 474.516C224.704 473.593 223.53 472.352 222.686 470.894C221.843 469.435 221.353 467.798 221.256 466.116V413.91L237.524 404.516C237.874 408.646 238.238 412.916 238.574 417.116L227.164 423.724V462.7C227.255 464.384 227.743 466.022 228.587 467.482C229.431 468.941 230.608 470.181 232.022 471.1L241.78 476.756Z" fill="black"/>
<path d="M227.15 462.686C227.245 464.37 227.736 466.009 228.582 467.468C229.429 468.928 230.607 470.167 232.022 471.086L269.29 492.562C279.384 498.386 295.736 498.386 305.816 492.562L354.746 464.282C364.84 458.472 364.84 449.036 354.746 443.282L317.45 421.792C316.036 420.872 314.858 419.633 314.012 418.173C313.165 416.714 312.674 415.076 312.578 413.392V374.332L227.178 423.696L227.15 462.686Z" fill="#455A64"/>
<path d="M327.376 427.49L317.464 421.764C316.05 420.844 314.872 419.605 314.026 418.145C313.179 416.686 312.688 415.048 312.592 413.364V374.332L227.192 423.696V462.686C227.287 464.37 227.778 466.009 228.624 467.468C229.471 468.928 230.649 470.167 232.064 471.086L241.864 476.686L327.376 427.49Z" fill="#37474F"/>
<path d="M362.306 453.768V460.6C362.306 464.422 359.772 468.216 354.746 471.142L305.83 499.38C300.469 502.246 294.479 503.732 288.4 503.706V497C294.479 497.026 300.469 495.54 305.83 492.674L354.746 464.38C359.8 461.412 362.306 457.59 362.306 453.768Z" fill="#37474F"/>
<path d="M89.978 521.262C91.8244 522.155 93.8552 522.6 95.9058 522.561C97.9563 522.522 99.9688 522 101.78 521.038L432.18 330.288C433.953 329.134 435.429 327.578 436.487 325.746C437.545 323.914 438.156 321.858 438.27 319.746V60.592C438.202 58.5477 437.653 56.5482 436.668 54.7555C435.683 52.9629 434.289 51.4276 432.6 50.274C430.756 49.3813 428.727 48.9363 426.679 48.9753C424.631 49.0142 422.621 49.5359 420.812 50.498L90.412 241.248C88.6417 242.4 87.1687 243.955 86.1128 245.784C85.057 247.614 84.4482 249.667 84.336 251.776V511C84.414 513.031 84.9646 515.017 85.944 516.798C86.9234 518.579 88.3046 520.108 89.978 521.262V521.262Z" fill="#455A64"/>
<path d="M101.78 521.024L432.18 330.288C433.95 329.132 435.422 327.575 436.478 325.743C437.533 323.912 438.143 321.857 438.256 319.746V60.592C438.256 56.714 435.54 55.132 432.18 57.078L101.78 247.8C100.008 248.955 98.5325 250.511 97.4743 252.343C96.4162 254.174 95.8049 256.23 95.69 258.342V517.482C95.69 521.402 98.42 522.97 101.78 521.024Z" fill="#37474F"/>
<path d="M100.884 527.982C99.1554 528.725 97.2878 529.089 95.4068 529.05C93.5257 529.012 91.6747 528.571 89.978 527.758C88.2813 526.602 86.8802 525.064 85.888 523.266C84.8957 521.469 84.3401 519.464 84.266 517.412V501.2L95.69 507.808V524.02C95.69 527.562 98 529.2 100.884 527.982Z" fill="#37474F"/>
<path d="M95.69 507.808V524.006C95.69 527.884 98.49 529.466 101.78 527.52L432.18 336.77C433.943 335.605 435.407 334.041 436.453 332.204C437.499 330.368 438.097 328.311 438.2 326.2V309.974L95.69 507.808Z" fill="#455A64"/>
<path d="M107.114 477.274V262.15C107.184 260.884 107.551 259.653 108.186 258.556C108.821 257.459 109.706 256.527 110.768 255.836L423.178 75.46C425.194 74.298 426.832 75.236 426.832 77.56V292.684C426.764 293.952 426.398 295.186 425.763 296.286C425.128 297.385 424.242 298.319 423.178 299.012L110.754 479.388C108.738 480.55 107.114 479.598 107.114 477.274Z" fill="#C0B6FF"/>
<path d="M107.114 477.274V262.15C107.184 260.884 107.551 259.653 108.186 258.556C108.821 257.459 109.706 256.527 110.768 255.836L423.178 75.46C425.194 74.298 426.832 75.236 426.832 77.56V292.684C426.764 293.952 426.398 295.186 425.763 296.286C425.128 297.385 424.242 298.319 423.178 299.012L110.754 479.388C108.738 480.55 107.114 479.598 107.114 477.274Z" fill="#C0B6FF"/>
<path opacity="0.8" d="M107.114 477.274V262.15C107.184 260.884 107.551 259.653 108.186 258.556C108.821 257.459 109.706 256.527 110.768 255.836L423.178 75.46C425.194 74.298 426.832 75.236 426.832 77.56V292.684C426.764 293.952 426.398 295.186 425.763 296.286C425.128 297.385 424.242 298.319 423.178 299.012L110.754 479.388C108.738 480.55 107.114 479.598 107.114 477.274Z" fill="white"/>
<path d="M266.966 414.946C265.506 415.907 264.291 417.196 263.418 418.711C262.545 420.225 262.039 421.923 261.94 423.668C261.94 426.874 264.194 428.176 266.966 426.566C268.433 425.615 269.655 424.33 270.531 422.817C271.406 421.303 271.912 419.604 272.006 417.858C272.006 414.638 269.752 413.336 266.966 414.946Z" fill="#C0B6FF"/>
<path d="M97.482 252.35C96.4008 254.175 95.7854 256.237 95.69 258.356V507.808L84.266 501.2V251.776C84.3412 249.654 84.9581 247.586 86.058 245.77L97.482 252.35Z" fill="#263238"/>
<path d="M170.8 274.61L357.532 166.81L365.008 171.122C366.03 171.791 366.88 172.691 367.49 173.748C368.101 174.806 368.454 175.993 368.522 177.212V315C368.454 316.217 368.101 317.402 367.49 318.457C366.88 319.513 366.029 320.41 365.008 321.076L185.234 424.788C184.147 425.329 182.949 425.611 181.734 425.611C180.519 425.611 179.321 425.329 178.234 424.788L174.272 422.492C173.251 421.826 172.4 420.929 171.79 419.873C171.179 418.818 170.826 417.633 170.758 416.416L170.8 274.61Z" fill="#C0B6FF"/>
<path opacity="0.2" d="M170.8 274.61L357.532 166.81L365.008 171.122C366.03 171.791 366.88 172.691 367.49 173.748C368.101 174.806 368.454 175.993 368.522 177.212V315C368.454 316.217 368.101 317.402 367.49 318.457C366.88 319.513 366.029 320.41 365.008 321.076L185.234 424.788C184.147 425.329 182.949 425.611 181.734 425.611C180.519 425.611 179.321 425.329 178.234 424.788L174.272 422.492C173.251 421.826 172.4 420.929 171.79 419.873C171.179 418.818 170.826 417.633 170.758 416.416L170.8 274.61Z" fill="black"/>
<path d="M356.44 154.686L357.196 154.266L354.298 152.586C354.051 152.445 353.794 152.323 353.528 152.222L271.348 121.8C270.217 121.433 268.999 121.431 267.867 121.792C266.734 122.154 265.743 122.862 265.034 123.816L173.11 258.02C171.672 260.331 170.853 262.973 170.73 265.692V274.61L173.53 276.262L357.406 166.796V157.878C357.391 156.744 357.056 155.638 356.44 154.686V154.686Z" fill="#C0B6FF"/>
<path opacity="0.1" d="M268.8 124.418C268.434 124.705 268.113 125.044 267.848 125.426L175.91 259.672C175.155 260.86 174.579 262.152 174.202 263.508L171.402 261.856C171.609 261.165 171.857 260.488 172.144 259.826C172.144 259.826 172.144 259.826 172.144 259.826C172.27 259.546 172.396 259.28 172.536 259.014V258.888C172.682 258.607 172.845 258.336 173.026 258.076L264.95 123.83C265.089 123.631 265.243 123.444 265.412 123.27L265.902 122.822L268.8 124.418Z" fill="black"/>
<path opacity="0.35" d="M357.168 154.252C356.92 154.101 356.657 153.974 356.384 153.874L274.19 123.41C273.286 123.109 272.321 123.044 271.385 123.221C270.45 123.397 269.574 123.809 268.842 124.418L266.042 122.766C266.78 122.163 267.658 121.755 268.595 121.578C269.531 121.402 270.497 121.464 271.404 121.758L353.584 152.208C353.852 152.308 354.11 152.435 354.354 152.586L357.168 154.252Z" fill="white"/>
<path d="M172.62 258.832C172.769 258.553 172.932 258.282 173.11 258.02C172.932 258.282 172.769 258.553 172.62 258.832V258.832Z" fill="#C0B6FF"/>
<path d="M265.496 123.2L265.986 122.752L265.496 123.2Z" fill="#C0B6FF"/>
<path d="M171.388 261.87C171.593 261.174 171.841 260.491 172.13 259.826C171.841 260.491 171.593 261.174 171.388 261.87V261.87Z" fill="#C0B6FF"/>
<path d="M172.2 259.77C172.326 259.49 172.452 259.224 172.592 258.958C172.41 259.224 172.284 259.49 172.2 259.77Z" fill="#C0B6FF"/>
<path opacity="0.2" d="M172.549 259C172.546 258.958 172.546 258.916 172.549 258.874C172.546 258.916 172.546 258.958 172.549 259V259Z" fill="black"/>
<path opacity="0.2" d="M265.034 123.774C265.176 123.578 265.33 123.391 265.496 123.214C265.33 123.391 265.176 123.578 265.034 123.774V123.774Z" fill="black"/>
<path d="M267.89 125.426L175.952 259.672C174.521 262.005 173.711 264.665 173.6 267.4V276.318L360.332 168.518V159.6C360.266 158.392 359.862 157.227 359.166 156.237C358.471 155.247 357.512 154.472 356.398 154L274.19 123.424C273.063 123.046 271.846 123.036 270.713 123.396C269.581 123.756 268.592 124.467 267.89 125.426Z" fill="#C0B6FF"/>
<path opacity="0.05" d="M360.318 159.6C360.281 158.483 359.937 157.398 359.324 156.464L174.244 263.578C173.85 264.815 173.633 266.102 173.6 267.4V276.318L360.332 168.518L360.318 159.6Z" fill="black"/>
<path d="M253.554 293.244C257.337 302.182 259.284 311.79 259.28 321.496V326.942L189.532 363.342V279.51C189.529 277.894 189.712 276.282 190.078 274.708V274.708C190.218 274.092 190.4 273.49 190.582 272.888L190.89 271.992C191.219 271.106 191.612 270.245 192.066 269.416C192.811 268.029 193.713 266.733 194.754 265.552C195.048 265.202 195.37 264.866 195.692 264.544C196.014 264.222 196.364 263.9 196.714 263.592C200.054 260.642 204.236 258.816 208.67 258.371C213.103 257.927 217.565 258.886 221.424 261.114C221.424 261.114 222.656 260.61 224.924 259.714C235.09 266.035 243.542 274.762 249.536 285.124C251.037 287.747 252.379 290.459 253.554 293.244V293.244Z" fill="#E0E0E0"/>
<path d="M477.554 507.85L325.934 595.588V587.356L477.54 499.618L477.554 507.85Z" fill="#F5F5F5"/>
<path d="M253.554 293.244C252.379 290.464 251.037 287.757 249.536 285.138C248.425 283.225 247.231 281.358 245.952 279.538C245.602 279.034 245.238 278.53 244.86 278.04C244.482 277.55 244.188 277.13 243.838 276.64C243.488 276.15 243.25 275.884 242.942 275.52L242.648 275.156L241.5 273.756C241.334 273.545 241.157 273.344 240.968 273.154C240.674 272.804 240.352 272.454 240.044 272.118C239.344 271.348 238.644 270.592 237.874 269.878C237.454 269.444 237.034 269.024 236.6 268.632C236.481 268.504 236.355 268.382 236.222 268.268L235.046 267.19C234.584 266.77 234.122 266.364 233.646 265.972C233.17 265.58 232.876 265.314 232.47 264.992C232.283 264.822 232.087 264.663 231.882 264.516C231.434 264.152 230.972 263.802 230.482 263.452C229.992 263.102 229.292 262.556 228.676 262.052C228.06 261.548 227.43 261.17 226.8 260.764L224.896 259.532L224.532 259.308L222.894 258.328C222.404 258.048 221.9 257.782 221.41 257.544C220.557 257.131 219.683 256.762 218.792 256.438C217.82 256.095 216.829 255.81 215.824 255.584L214.83 255.388C213.507 255.166 212.168 255.053 210.826 255.052H209.748C209.219 255.066 208.691 255.108 208.166 255.178L207.284 255.29L206.71 255.374C206.488 255.402 206.269 255.445 206.052 255.5H205.968L204.988 255.724C204.737 255.781 204.49 255.851 204.246 255.934L203.868 256.046C203.607 256.121 203.341 256.205 203.07 256.298C202.355 256.527 201.653 256.798 200.97 257.11C200.55 257.292 200.13 257.502 199.71 257.712C199.582 257.763 199.46 257.829 199.346 257.908C199.122 258.02 198.884 258.146 198.66 258.286L198.002 258.692C197.196 259.182 196.42 259.72 195.678 260.302C195.678 260.302 195.594 260.372 195.566 260.4C195.188 260.708 194.81 261.016 194.432 261.366L193.648 262.108C193.494 262.248 193.354 262.402 193.214 262.542C192.521 263.268 191.871 264.035 191.268 264.838C191.016 265.174 190.778 265.51 190.554 265.86C190.33 266.21 190.022 266.672 189.77 267.106C189.519 267.514 189.29 267.934 189.084 268.366C188.787 268.94 188.521 269.528 188.286 270.13C188.174 270.41 188.048 270.704 187.95 271.012C187.852 271.32 187.852 271.278 187.81 271.404C187.656 271.852 187.53 272.3 187.404 272.804C187.278 273.308 187.166 273.7 187.082 274.204C187.005 274.509 186.944 274.817 186.9 275.128C186.893 275.245 186.893 275.361 186.9 275.478C186.9 275.786 186.802 276.08 186.774 276.374C186.746 276.668 186.69 277.172 186.676 277.578C186.662 277.984 186.676 278.684 186.676 279.258V346.136H193.872V279.524C193.867 276.529 194.652 273.585 196.148 270.99C197.643 268.395 199.796 266.24 202.39 264.742C204.984 263.245 207.926 262.457 210.921 262.459C213.917 262.461 216.858 263.253 219.45 264.754C231.559 271.777 241.112 282.478 246.722 295.302L255.262 297.332C254.646 295.96 254.114 294.588 253.554 293.244Z" fill="#EBEBEB"/>
<path d="M363.72 316.778C363.664 316.878 363.599 316.972 363.524 317.058L285.698 292.39C282.745 291.085 279.42 290.889 276.334 291.838C273.248 292.787 270.608 294.817 268.898 297.556L185.71 421.204L182.63 422.982C182.287 423.221 181.89 423.371 181.474 423.418C181.058 423.464 180.637 423.406 180.25 423.248L265.804 295.848C267.52 293.115 270.159 291.089 273.242 290.139C276.325 289.188 279.648 289.376 282.604 290.668L363.72 316.778Z" fill="#C0B6FF"/>
<path opacity="0.4" d="M261.226 309.694L261.422 309.526L185.696 421.204L182.616 422.982C182.271 423.218 181.874 423.366 181.459 423.412C181.044 423.458 180.624 423.402 180.236 423.248L258.258 307.888L261.226 309.694Z" fill="white"/>
<path opacity="0.4" d="M363.72 316.778C363.664 316.878 363.599 316.971 363.524 317.058L285.698 292.376C282.744 291.069 279.417 290.873 276.33 291.825C273.243 292.777 270.603 294.812 268.898 297.556L265.818 295.764C267.534 293.032 270.175 291.008 273.259 290.062C276.344 289.116 279.666 289.311 282.618 290.612L363.72 316.778Z" fill="white"/>
<path d="M368.382 176.316C368.214 175.308 367.682 175.028 366.982 175.504C366.636 175.762 366.333 176.074 366.086 176.428L365.694 176.974L288.904 293.72L277.438 309.694C276.7 310.625 275.722 311.337 274.61 311.754C273.497 312.171 272.292 312.276 271.124 312.06L261.226 309.708L185.626 281.89C185.118 281.786 184.594 281.786 184.086 281.89C183.889 281.93 183.696 281.991 183.512 282.072L186.312 280.42L258.748 307.02L268.282 310.436C269.45 310.656 270.656 310.551 271.769 310.134C272.882 309.717 273.86 309.003 274.596 308.07L286.062 292.11L363.23 174.818C363.465 174.499 363.76 174.228 364.098 174.02L357.42 170.17L360.22 168.56L364.84 171.22C365.74 171.791 366.517 172.536 367.125 173.411C367.733 174.286 368.16 175.274 368.382 176.316V176.316Z" fill="#C0B6FF"/>
<path opacity="0.4" d="M288.904 293.706L277.438 309.68C276.7 310.611 275.722 311.323 274.61 311.74C273.497 312.157 272.292 312.262 271.124 312.046L261.226 309.694L261.422 309.526L261.898 308.77L268.38 310.31C269.548 310.53 270.754 310.425 271.867 310.008C272.98 309.591 273.958 308.877 274.694 307.944L286.048 292.152L288.904 293.706Z" fill="white"/>
<path opacity="0.1" d="M364.938 171.094L360.318 168.434L357.518 170.044L364.196 173.894C363.856 174.099 363.56 174.37 363.328 174.692L286.16 291.984L286.048 292.138L288.848 293.692L365.638 176.946L366.03 176.4C366.277 176.046 366.58 175.734 366.926 175.476C367.612 175 368.144 175.28 368.326 176.288C368.135 175.24 367.737 174.242 367.155 173.35C366.573 172.458 365.82 171.691 364.938 171.094V171.094Z" fill="black"/>
<path d="M187.208 284.116L170.8 274.61V416.416C170.868 417.633 171.221 418.818 171.832 419.873C172.442 420.929 173.293 421.826 174.314 422.492L178.276 424.774C179.362 425.318 180.561 425.602 181.776 425.602C182.991 425.602 184.19 425.318 185.276 424.774L187.25 423.626L187.208 284.116Z" fill="#C0B6FF"/>
<path opacity="0.15" d="M187.208 284.116L170.8 274.61V416.416C170.868 417.633 171.221 418.818 171.832 419.873C172.442 420.929 173.293 421.826 174.314 422.492L178.276 424.774C179.362 425.318 180.561 425.602 181.776 425.602C182.991 425.602 184.19 425.318 185.276 424.774L187.25 423.626L187.208 284.116Z" fill="black"/>
<path d="M365.694 176.974V313.222C365.657 314.484 365.28 315.713 364.602 316.778C364.088 317.681 363.386 318.464 362.544 319.074L362.418 319.158L362.18 319.312L182.476 423.052C182.26 423.185 182.03 423.293 181.79 423.374C181.775 423.164 181.775 422.954 181.79 422.744V284.984C181.759 284.491 181.848 283.997 182.05 283.546C182.251 283.095 182.56 282.699 182.948 282.394C183.336 282.088 183.793 281.881 184.279 281.791C184.765 281.701 185.266 281.73 185.738 281.876L261.338 309.694L271.236 312.046C272.404 312.262 273.609 312.157 274.722 311.74C275.834 311.323 276.812 310.611 277.55 309.68L289.016 293.706L365.694 176.974Z" fill="#455A64"/>
<path d="M368.452 177.198V315C368.408 316.261 368.031 317.488 367.36 318.556C366.838 319.458 366.138 320.244 365.302 320.866H365.162C365.091 320.922 365.016 320.973 364.938 321.02L185.234 424.76C184.891 425.004 184.491 425.158 184.073 425.207C183.654 425.256 183.23 425.198 182.84 425.04C182.542 424.866 182.291 424.622 182.108 424.33C181.925 424.037 181.816 423.704 181.79 423.36C181.775 423.15 181.775 422.94 181.79 422.73V284.97C181.759 284.477 181.848 283.983 182.05 283.532C182.251 283.081 182.56 282.685 182.948 282.38C183.336 282.074 183.793 281.867 184.279 281.777C184.765 281.687 185.266 281.716 185.738 281.862L261.338 309.68L271.236 312.032C272.404 312.248 273.609 312.143 274.722 311.726C275.834 311.309 276.812 310.597 277.55 309.666L289.016 293.692L365.806 176.946L366.198 176.4C367.388 174.622 368.452 175 368.452 177.198Z" fill="#C0B6FF"/>
<path d="M364.938 321.034L365.176 320.88L365.302 320.796C366.141 320.183 366.842 319.4 367.36 318.5C368.022 317.448 368.398 316.242 368.452 315L288.918 293.72L342.118 334.18L364.938 321.034Z" fill="#C0B6FF"/>
<path opacity="0.2" d="M364.938 321.034L365.176 320.88L365.302 320.796C366.141 320.183 366.842 319.4 367.36 318.5C368.022 317.448 368.398 316.242 368.452 315L288.918 293.72L342.118 334.18L364.938 321.034Z" fill="black"/>
<path d="M181.72 422.8C181.669 423.248 181.744 423.702 181.937 424.111C182.13 424.519 182.433 424.865 182.812 425.11C183.2 425.276 183.625 425.338 184.044 425.291C184.463 425.245 184.864 425.091 185.206 424.844V424.844L247.086 389.13L261.212 309.764L181.692 420.532L181.72 422.8Z" fill="#C0B6FF"/>
<path opacity="0.15" d="M268.8 297.542L182.756 425.054C182.377 424.809 182.074 424.463 181.881 424.055C181.688 423.647 181.613 423.193 181.664 422.744V420.462L265.664 295.862L268.8 297.542Z" fill="black"/>
<path d="M367.36 318.5C366.842 319.4 366.141 320.183 365.302 320.796L365.176 320.88L185.234 424.774C184.892 425.021 184.491 425.175 184.072 425.221C183.653 425.268 183.228 425.206 182.84 425.04L268.898 297.514C270.621 294.759 273.279 292.718 276.386 291.764C279.492 290.81 282.838 291.007 285.81 292.32L367.36 318.5Z" fill="#C0B6FF"/>
<path d="M367.36 318.5C366.846 319.403 366.144 320.186 365.302 320.796L365.176 320.88L185.234 424.774C184.888 425.013 184.489 425.163 184.071 425.21C183.653 425.256 183.23 425.198 182.84 425.04L185.234 421.232L362.04 319.2L362.18 319.116C362.925 318.57 363.557 317.886 364.042 317.1L367.36 318.5Z" fill="#C0B6FF"/>
<path opacity="0.15" d="M171.388 261.8L174.188 263.452C173.804 264.733 173.606 266.063 173.6 267.4V276.304L170.8 274.652V265.734C170.808 264.401 171.006 263.077 171.388 261.8V261.8Z" fill="black"/>
<path d="M186.41 280.364L183.554 282.016L180.67 280.35L173.572 276.262L176.33 274.624L186.41 280.364Z" fill="#C0B6FF"/>
<path opacity="0.1" d="M186.536 280.42L176.4 274.624L173.6 276.262L180.698 280.35L183.582 282.016L184.128 281.848C184.636 281.744 185.16 281.744 185.668 281.848L191.408 283.976L257.362 308.252L258.398 306.726L186.536 280.42Z" fill="black"/>
<path d="M477.204 499.884L325.598 587.622L295.302 570.122C284.233 563.746 275.041 554.566 268.65 543.505C262.26 532.445 258.897 519.896 258.902 507.122V321.762C258.911 312.057 256.968 302.449 253.19 293.51C252.015 290.73 250.673 288.023 249.172 285.404C242.795 274.356 233.62 265.181 222.572 258.804C219.074 256.748 215.112 255.616 211.056 255.513C207 255.41 202.985 256.34 199.388 258.216L217.448 247.8L284.06 209.342L349.79 171.15L349.986 171.038C353.657 168.894 357.831 167.764 362.082 167.764C366.333 167.764 370.507 168.894 374.178 171.038C385.244 177.417 394.434 186.598 400.824 197.658C407.214 208.718 410.578 221.265 410.578 234.038V419.412C410.578 432.185 413.942 444.732 420.332 455.792C426.722 466.852 435.912 476.033 446.978 482.412L477.204 499.884Z" fill="white"/>
<path d="M362.096 167.762V169.162C366.099 169.167 370.028 170.24 373.478 172.27C384.322 178.524 393.327 187.525 399.587 198.366C405.847 209.207 409.14 221.506 409.136 234.024V419.412C409.159 432.418 412.594 445.19 419.097 456.454C425.599 467.717 434.943 477.078 446.194 483.602L474.404 499.898L325.598 585.998L295.988 568.904C285.169 562.631 276.186 553.627 269.941 542.791C263.695 531.956 260.405 519.67 260.4 507.164V321.762C260.394 308.748 256.959 295.965 250.441 284.701C243.923 273.437 234.552 264.09 223.272 257.6C219.397 255.324 214.984 254.125 210.49 254.128C210.084 254.128 209.678 254.128 209.258 254.128L218.148 249.004L284.76 210.532L350.56 172.34L350.728 172.242C354.194 170.228 358.129 169.16 362.138 169.148V167.748L362.096 167.762ZM362.138 167.748C357.884 167.76 353.708 168.89 350.028 171.024L349.832 171.136L284.06 209.342L217.448 247.8L199.388 258.216C202.821 256.446 206.627 255.52 210.49 255.514C214.738 255.517 218.909 256.652 222.572 258.804C233.62 265.181 242.795 274.356 249.172 285.404C250.673 288.023 252.015 290.73 253.19 293.51C257.002 302.442 258.978 312.05 259 321.762V507.164C258.995 519.938 262.358 532.487 268.748 543.547C275.139 554.608 284.331 563.788 295.4 570.164L325.696 587.664L477.302 499.926L446.992 482.426C435.926 476.047 426.736 466.866 420.346 455.806C413.956 444.746 410.592 432.199 410.592 419.426V234.024C410.592 221.251 407.228 208.704 400.838 197.644C394.448 186.584 385.258 177.403 374.192 171.024C370.526 168.88 366.357 167.745 362.11 167.734L362.138 167.748Z" fill="#F5F5F5"/>
<path d="M325.934 587.356L295.638 569.8C284.57 563.423 275.378 554.242 268.988 543.182C262.598 532.122 259.235 519.573 259.238 506.8V321.496C259.222 313.261 257.801 305.089 255.038 297.332L246.498 295.302L246.96 296.366C250.291 304.325 252.004 312.868 252 321.496V506.898C252.026 520.916 255.728 534.683 262.736 546.823C269.745 558.964 279.815 569.054 291.942 576.086L322.392 593.6L325.934 595.588V587.356Z" fill="#F0F0F0"/>
<path d="M297.514 270.522L362.824 232.848C363.321 232.546 363.696 232.08 363.885 231.53C364.074 230.98 364.065 230.382 363.86 229.838C362.978 227.696 361.97 225.638 360.892 223.538C359.954 221.788 358.96 220.08 357.896 218.414C357.583 217.941 357.102 217.606 356.551 217.476C355.999 217.346 355.419 217.431 354.928 217.714L289.604 255.416C289.38 255.519 289.18 255.666 289.015 255.849C288.85 256.032 288.723 256.246 288.643 256.479C288.564 256.712 288.532 256.959 288.55 257.204C288.569 257.45 288.636 257.689 288.75 257.908L289.674 259.308C291.225 261.804 292.628 264.389 293.874 267.05C294.252 267.876 294.63 268.716 294.98 269.57C295.067 269.812 295.206 270.032 295.387 270.216C295.568 270.399 295.786 270.541 296.027 270.631C296.268 270.722 296.526 270.759 296.783 270.74C297.039 270.721 297.289 270.647 297.514 270.522V270.522Z" fill="#C0B6FF"/>
<path d="M254.8 262.36L375.312 192.808C375.543 192.698 375.743 192.532 375.895 192.325C376.046 192.119 376.144 191.878 376.18 191.625C376.216 191.371 376.189 191.112 376.101 190.872C376.013 190.631 375.867 190.416 375.676 190.246L374.43 189.042C373.973 188.648 373.406 188.403 372.807 188.338C372.207 188.273 371.601 188.392 371.07 188.678L250.6 258.244C250.359 258.335 250.147 258.49 249.988 258.694C249.83 258.898 249.73 259.141 249.701 259.397C249.672 259.654 249.715 259.913 249.824 260.147C249.933 260.381 250.105 260.58 250.32 260.722L251.552 261.912C251.978 262.319 252.521 262.581 253.104 262.661C253.687 262.742 254.28 262.636 254.8 262.36Z" fill="#E0E0E0"/>
<path d="M242.368 254.198C241.598 253.666 240.828 253.134 240.03 252.616C238.84 251.846 237.622 251.104 236.376 250.404C235.816 250.077 235.242 249.783 234.654 249.522C233.688 249.074 233.688 248.304 234.654 247.716L355.222 178.108C355.855 177.678 356.555 177.356 357.294 177.156L357.546 177.254C358.745 177.744 359.91 178.314 361.032 178.962C362.908 180.068 364.742 181.258 366.506 182.504C366.717 182.619 366.891 182.792 367.008 183.002C367.125 183.213 367.18 183.452 367.167 183.692C367.154 183.932 367.073 184.163 366.934 184.36C366.794 184.556 366.602 184.708 366.38 184.8L245.84 254.394C245.293 254.663 244.686 254.786 244.078 254.751C243.47 254.717 242.881 254.526 242.368 254.198V254.198Z" fill="#C0B6FF"/>
<path opacity="0.4" d="M242.368 254.198C241.598 253.666 240.828 253.134 240.03 252.616C238.84 251.846 237.622 251.104 236.376 250.404C235.816 250.077 235.242 249.783 234.654 249.522C233.688 249.074 233.688 248.304 234.654 247.716L355.222 178.108C355.855 177.678 356.555 177.356 357.294 177.156L357.546 177.254C358.745 177.744 359.91 178.314 361.032 178.962C362.908 180.068 364.742 181.258 366.506 182.504C366.717 182.619 366.891 182.792 367.008 183.002C367.125 183.213 367.18 183.452 367.167 183.692C367.154 183.932 367.073 184.163 366.934 184.36C366.794 184.556 366.602 184.708 366.38 184.8L245.84 254.394C245.293 254.663 244.686 254.786 244.078 254.751C243.47 254.717 242.881 254.526 242.368 254.198V254.198Z" fill="black"/>
<path d="M355.74 320.194V268.394C355.74 266.728 355.656 262.332 355.474 260.694C355.298 258.14 354.98 255.597 354.522 253.078C354.499 252.832 354.412 252.597 354.269 252.396C354.126 252.194 353.933 252.035 353.708 251.932C353.484 251.83 353.236 251.789 352.991 251.813C352.745 251.837 352.51 251.926 352.31 252.07L273.308 297.668C272.801 297.997 272.399 298.465 272.151 299.016C271.903 299.567 271.819 300.178 271.908 300.776C272.613 304.752 272.988 308.779 273.028 312.816C273.028 313.054 273.028 320.096 273.028 320.334V367.934C273.028 369.082 273.84 369.558 274.848 368.984L353.934 323.4C354.469 323.048 354.911 322.574 355.226 322.016C355.54 321.458 355.716 320.834 355.74 320.194V320.194Z" fill="#C0B6FF"/>
<path opacity="0.8" d="M355.74 320.194V268.394C355.74 266.728 355.656 262.332 355.474 260.694C355.298 258.14 354.98 255.597 354.522 253.078C354.499 252.832 354.412 252.597 354.269 252.396C354.126 252.194 353.933 252.035 353.708 251.932C353.484 251.83 353.236 251.789 352.991 251.813C352.745 251.837 352.51 251.926 352.31 252.07L273.308 297.668C272.801 297.997 272.399 298.465 272.151 299.016C271.903 299.567 271.819 300.178 271.908 300.776C272.613 304.752 272.988 308.779 273.028 312.816C273.028 313.054 273.028 320.096 273.028 320.334V367.934C273.028 369.082 273.84 369.558 274.848 368.984L353.934 323.4C354.469 323.048 354.911 322.574 355.226 322.016C355.54 321.458 355.716 320.834 355.74 320.194V320.194Z" fill="white"/>
<path d="M331.604 292.152L317.8 319.816L322.812 326.382L294.742 302.4L273 355.684V367.948C273 369.096 273.812 369.572 274.82 368.998L353.934 323.4C354.461 323.054 354.899 322.588 355.213 322.041C355.527 321.493 355.707 320.88 355.74 320.25V312.2L331.604 292.152Z" fill="#C0B6FF"/>
<path d="M302.4 366.212L367.668 328.524C368.676 327.95 369.488 328.412 369.488 329.574V338.506C369.455 339.137 369.273 339.752 368.956 340.3C368.64 340.847 368.199 341.312 367.668 341.656L302.4 379.4C301.392 379.974 300.58 379.512 300.58 378.35V369.418C300.604 368.777 300.782 368.151 301.099 367.593C301.416 367.035 301.862 366.561 302.4 366.212V366.212Z" fill="#C0B6FF"/>
<path d="M288.652 393.862L381.486 340.27C382.494 339.682 383.306 340.158 383.306 341.32V343.686C383.272 344.317 383.089 344.931 382.773 345.479C382.457 346.026 382.016 346.491 381.486 346.836L288.652 400.4C287.644 400.988 286.832 400.512 286.832 399.35V396.984C286.873 396.358 287.058 395.75 287.374 395.209C287.69 394.667 288.127 394.206 288.652 393.862V393.862Z" fill="#E0E0E0"/>
<path d="M282.24 410.704L386.652 350.42C387.66 349.846 388.472 350.308 388.472 351.47V353.836C388.439 354.467 388.257 355.082 387.94 355.63C387.624 356.177 387.183 356.642 386.652 356.986L282.24 417.27C281.232 417.844 280.42 417.382 280.42 416.22V413.854C280.455 413.223 280.638 412.609 280.955 412.062C281.271 411.515 281.711 411.05 282.24 410.704V410.704Z" fill="#E0E0E0"/>
<path d="M274.876 434.672L307.076 416.08C308.07 415.506 308.882 415.982 308.882 417.13V452.312C308.849 452.942 308.669 453.555 308.355 454.103C308.041 454.65 307.603 455.116 307.076 455.462L274.876 474.054C273.882 474.628 273.07 474.166 273.07 473.004V437.822C273.103 437.192 273.283 436.579 273.597 436.031C273.911 435.484 274.349 435.018 274.876 434.672Z" fill="#C0B6FF"/>
<path opacity="0.5" d="M274.876 434.672L307.076 416.08C308.07 415.506 308.882 415.982 308.882 417.13V452.312C308.849 452.942 308.669 453.555 308.355 454.103C308.041 454.65 307.603 455.116 307.076 455.462L274.876 474.054C273.882 474.628 273.07 474.166 273.07 473.004V437.822C273.103 437.192 273.283 436.579 273.597 436.031C273.911 435.484 274.349 435.018 274.876 434.672Z" fill="white"/>
<path d="M318.99 409.206L351.19 390.614C352.198 390.04 353.01 390.516 353.01 391.664V426.86C352.974 427.491 352.79 428.104 352.474 428.651C352.158 429.198 351.718 429.664 351.19 430.01L318.99 448.588C317.982 449.162 317.17 448.7 317.17 447.538V412.356C317.203 411.725 317.385 411.11 317.702 410.562C318.018 410.015 318.459 409.55 318.99 409.206V409.206Z" fill="#C0B6FF"/>
<path d="M363.09 383.74L395.29 365.162C396.298 364.574 397.11 365.05 397.11 366.212V401.394C397.076 402.025 396.893 402.639 396.577 403.187C396.261 403.734 395.82 404.199 395.29 404.544L363.09 423.122C362.082 423.696 361.27 423.234 361.27 422.072V386.89C361.303 386.259 361.485 385.644 361.802 385.096C362.118 384.549 362.559 384.084 363.09 383.74Z" fill="#C0B6FF"/>
<path opacity="0.3" d="M363.09 383.74L395.29 365.162C396.298 364.574 397.11 365.05 397.11 366.212V401.394C397.076 402.025 396.893 402.639 396.577 403.187C396.261 403.734 395.82 404.199 395.29 404.544L363.09 423.122C362.082 423.696 361.27 423.234 361.27 422.072V386.89C361.303 386.259 361.485 385.644 361.802 385.096C362.118 384.549 362.559 384.084 363.09 383.74Z" fill="black"/>
<path d="M390.446 427.084L283.822 488.684C282.814 489.258 282.002 488.782 282.002 487.634V485.268C282.038 484.637 282.222 484.024 282.538 483.477C282.854 482.93 283.294 482.464 283.822 482.118L390.446 420.518C391.44 419.944 392.266 420.42 392.266 421.568V423.934C392.233 424.565 392.051 425.18 391.734 425.728C391.418 426.275 390.977 426.74 390.446 427.084V427.084Z" fill="#E0E0E0"/>
<path d="M284.354 501.48L390.992 439.88C391.508 439.542 391.925 439.074 392.203 438.524C392.481 437.973 392.609 437.36 392.574 436.744C392.504 436.058 392.448 435.344 392.392 434.672C392.421 434.437 392.378 434.198 392.269 433.988C392.159 433.778 391.989 433.605 391.78 433.493C391.572 433.381 391.334 433.335 391.098 433.36C390.862 433.386 390.64 433.482 390.46 433.636L283.864 495.236C283.337 495.572 282.903 496.036 282.602 496.584C282.301 497.132 282.143 497.747 282.142 498.372C282.142 499.072 282.24 499.772 282.31 500.472C282.306 500.711 282.37 500.946 282.494 501.15C282.618 501.354 282.798 501.518 283.013 501.624C283.227 501.73 283.467 501.772 283.704 501.747C283.942 501.721 284.167 501.629 284.354 501.48V501.48Z" fill="#E0E0E0"/>
<path d="M343.112 480.634L277.816 518.336C277.317 518.654 276.932 519.122 276.715 519.673C276.499 520.224 276.463 520.829 276.612 521.402C281.672 536.919 291.799 550.286 305.368 559.356C305.907 559.67 306.517 559.844 307.14 559.861C307.764 559.878 308.382 559.738 308.938 559.454L374.29 521.724C374.508 521.637 374.695 521.486 374.827 521.291C374.959 521.097 375.03 520.867 375.03 520.632C375.03 520.397 374.959 520.167 374.827 519.973C374.695 519.778 374.508 519.627 374.29 519.54C360.733 510.466 350.613 497.107 345.548 481.6C345.489 481.349 345.371 481.117 345.203 480.922C345.034 480.727 344.822 480.575 344.582 480.48C344.343 480.386 344.084 480.35 343.828 480.377C343.572 480.403 343.327 480.492 343.112 480.634V480.634Z" fill="#C0B6FF"/>
<path opacity="0.8" d="M343.112 480.634L277.816 518.336C277.317 518.654 276.932 519.122 276.715 519.673C276.499 520.224 276.463 520.829 276.612 521.402C281.672 536.919 291.799 550.286 305.368 559.356C305.907 559.67 306.517 559.844 307.14 559.861C307.764 559.878 308.382 559.738 308.938 559.454L374.29 521.724C374.508 521.637 374.695 521.486 374.827 521.291C374.959 521.097 375.03 520.867 375.03 520.632C375.03 520.397 374.959 520.167 374.827 519.973C374.695 519.778 374.508 519.627 374.29 519.54C360.733 510.466 350.613 497.107 345.548 481.6C345.489 481.349 345.371 481.117 345.203 480.922C345.034 480.727 344.822 480.575 344.582 480.48C344.343 480.386 344.084 480.35 343.828 480.377C343.572 480.403 343.327 480.492 343.112 480.634V480.634Z" fill="white"/>
<path opacity="0.8" d="M374.346 519.54C370.127 516.721 366.214 513.469 362.67 509.838C351.778 508.942 334.446 505.33 334.446 505.33L329.364 522.564L341.012 526.666C331.114 527.45 300.622 520.1 300.622 520.1C298.424 530.516 298.536 548.38 298.634 554.26C300.775 556.091 303.024 557.793 305.368 559.356C305.907 559.67 306.517 559.844 307.14 559.861C307.764 559.878 308.382 559.738 308.938 559.454L374.29 521.724C374.511 521.643 374.702 521.497 374.839 521.305C374.976 521.114 375.052 520.886 375.058 520.651C375.064 520.416 375 520.184 374.873 519.986C374.746 519.788 374.562 519.633 374.346 519.54Z" fill="#C0B6FF"/>
<path opacity="0.8" d="M335.566 497.602C336.227 498.63 337.25 499.372 338.431 499.683C339.613 499.994 340.869 499.851 341.95 499.282C342.933 498.65 343.64 497.669 343.928 496.536C344.217 495.403 344.065 494.203 343.504 493.178C342.916 492.117 341.944 491.322 340.787 490.957C339.631 490.592 338.378 490.686 337.288 491.218C336.253 491.873 335.502 492.892 335.183 494.074C334.864 495.257 335.001 496.516 335.566 497.602Z" fill="#C0B6FF"/>
<path d="M370.342 491.176L408.142 469.378C408.377 469.245 408.582 469.065 408.744 468.848C408.906 468.631 409.021 468.383 409.081 468.12C409.142 467.857 409.147 467.583 409.096 467.318C409.045 467.052 408.94 466.8 408.786 466.578C407.498 464.576 406.294 462.504 405.202 460.376C405.085 460.126 404.917 459.904 404.708 459.723C404.499 459.543 404.254 459.409 403.99 459.329C403.726 459.25 403.448 459.228 403.174 459.263C402.9 459.299 402.637 459.392 402.402 459.536L364.658 481.32C364.167 481.608 363.803 482.071 363.639 482.617C363.476 483.162 363.524 483.749 363.776 484.26C364.868 486.388 366.072 488.46 367.36 490.476C367.68 490.944 368.163 491.276 368.715 491.406C369.267 491.535 369.847 491.453 370.342 491.176V491.176Z" fill="#C0B6FF"/>
<path d="M370.692 504.098L422.24 474.348C422.468 474.232 422.666 474.063 422.816 473.855C422.966 473.648 423.064 473.407 423.102 473.154C423.14 472.901 423.118 472.642 423.036 472.399C422.954 472.156 422.816 471.937 422.632 471.758L421.568 470.54C421.176 470.11 420.654 469.822 420.081 469.721C419.509 469.62 418.919 469.711 418.404 469.98L366.87 499.8C366.637 499.919 366.434 500.09 366.278 500.3C366.122 500.51 366.016 500.754 365.97 501.012C365.924 501.269 365.938 501.534 366.012 501.786C366.085 502.037 366.216 502.268 366.394 502.46C366.744 502.866 367.094 503.272 367.458 503.664C367.876 504.079 368.418 504.346 369.002 504.424C369.586 504.503 370.179 504.388 370.692 504.098Z" fill="#E0E0E0"/>
<path d="M374.71 510.636C375.186 511.037 375.653 511.429 376.11 511.812C376.612 512.17 377.204 512.383 377.819 512.425C378.435 512.467 379.05 512.337 379.596 512.05L431.2 482.314C431.423 482.219 431.616 482.065 431.757 481.868C431.898 481.671 431.982 481.438 432 481.196C432.017 480.955 431.967 480.713 431.856 480.497C431.744 480.282 431.576 480.101 431.368 479.976C430.864 479.584 430.388 479.178 429.968 478.786C429.49 478.41 428.914 478.179 428.309 478.12C427.704 478.06 427.094 478.175 426.552 478.45L374.948 508.2C374.719 508.299 374.521 508.458 374.374 508.66C374.227 508.862 374.137 509.099 374.112 509.348C374.088 509.596 374.131 509.847 374.236 510.073C374.341 510.3 374.505 510.494 374.71 510.636Z" fill="#E0E0E0"/>
<path d="M347.872 550.116L413.224 512.4C413.784 512.11 414.406 511.959 415.037 511.959C415.668 511.959 416.29 512.11 416.85 512.4L418.908 513.576C419.916 514.164 419.916 515.102 418.908 515.676L353.556 553.406C352.993 553.696 352.369 553.847 351.736 553.847C351.103 553.847 350.479 553.696 349.916 553.406L347.872 552.23C346.864 551.6 346.864 550.69 347.872 550.116Z" fill="#E0E0E0"/>
<path d="M329.994 284.648L395.276 246.946C396.284 246.358 397.096 246.834 397.096 247.996V256.928C397.062 257.559 396.879 258.173 396.563 258.721C396.247 259.268 395.806 259.733 395.276 260.078L330.008 297.766C329 298.34 328.188 297.878 328.188 296.716V287.798C328.221 287.168 328.401 286.555 328.715 286.007C329.029 285.46 329.467 284.994 329.994 284.648V284.648Z" fill="#FAFAFA"/>
<path d="M329.182 298.704C328.897 298.708 328.617 298.635 328.37 298.494C328.077 298.304 327.84 298.039 327.685 297.726C327.53 297.413 327.462 297.064 327.488 296.716V287.798C327.524 287.046 327.739 286.314 328.113 285.662C328.488 285.01 329.013 284.456 329.644 284.046L394.926 246.4C395.207 246.184 395.546 246.056 395.899 246.032C396.253 246.008 396.606 246.09 396.913 246.267C397.22 246.444 397.468 246.708 397.625 247.025C397.782 247.343 397.842 247.7 397.796 248.052V256.984C397.761 257.737 397.545 258.471 397.167 259.124C396.79 259.777 396.261 260.33 395.626 260.736L330.4 298.368C330.033 298.59 329.611 298.706 329.182 298.704V298.704ZM330.344 285.25C329.935 285.543 329.596 285.924 329.354 286.365C329.112 286.806 328.972 287.296 328.944 287.798V296.716C328.944 297.052 329.042 297.234 329.126 297.29C329.21 297.346 329.406 297.29 329.7 297.15L394.982 259.476C395.403 259.189 395.753 258.811 396.008 258.37C396.262 257.929 396.414 257.436 396.452 256.928V247.996C396.452 247.646 396.354 247.478 396.27 247.422C396.169 247.399 396.064 247.398 395.962 247.42C395.861 247.442 395.765 247.485 395.682 247.548L330.344 285.25Z" fill="#E0E0E0"/>
<path d="M329.994 304.444L395.276 266.742C396.284 266.168 397.096 266.63 397.096 267.792V276.724C397.063 277.356 396.881 277.97 396.564 278.518C396.248 279.065 395.807 279.53 395.276 279.874L330.008 317.562C329 318.15 328.188 317.674 328.188 316.512V307.594C328.223 306.965 328.404 306.352 328.718 305.805C329.031 305.258 329.468 304.792 329.994 304.444V304.444Z" fill="#FAFAFA"/>
<path d="M329.182 318.514C328.895 318.519 328.613 318.442 328.37 318.29C328.077 318.1 327.84 317.835 327.685 317.522C327.53 317.209 327.462 316.86 327.488 316.512V307.594C327.524 306.843 327.739 306.11 328.113 305.458C328.488 304.806 329.013 304.252 329.644 303.842L394.926 266.14C395.207 265.924 395.546 265.796 395.899 265.772C396.253 265.748 396.606 265.83 396.913 266.007C397.22 266.184 397.468 266.448 397.625 266.766C397.782 267.083 397.842 267.441 397.796 267.792V276.724C397.76 277.479 397.545 278.215 397.167 278.87C396.79 279.525 396.262 280.081 395.626 280.49L330.4 318.164C330.036 318.396 329.613 318.518 329.182 318.514V318.514ZM396.088 267.19C395.921 267.201 395.761 267.259 395.626 267.358L330.4 305.06C329.993 305.351 329.655 305.73 329.413 306.169C329.171 306.607 329.03 307.094 329 307.594V316.512C329 316.862 329.098 317.03 329.182 317.086C329.266 317.142 329.462 317.086 329.756 316.96L395.038 279.272C395.461 278.987 395.813 278.61 396.068 278.168C396.323 277.727 396.473 277.233 396.508 276.724V267.792C396.508 267.456 396.41 267.274 396.326 267.218L396.088 267.19Z" fill="#E0E0E0"/>
<path d="M163.912 550.9L176.176 543.76C176.176 543.76 180.376 517.034 176.176 493.934C170.282 461.454 147.826 450.73 139.846 454.146C131.866 457.562 130.2 467.278 145.208 485.8C154 496.692 163.478 520.646 163.912 550.9Z" fill="#C0B6FF"/>
<g opacity="0.2">
<path opacity="0.2" d="M163.912 550.9L176.176 543.76C176.176 543.76 180.376 517.034 176.176 493.934C170.282 461.454 147.826 450.73 139.846 454.146C131.866 457.562 130.2 467.278 145.208 485.8C154 496.692 163.478 520.646 163.912 550.9Z" fill="black"/>
</g>
<path d="M169.4 537.138C169.209 537.117 169.034 537.021 168.914 536.872C168.793 536.722 168.736 536.531 168.756 536.34C172.27 505.722 159.236 472.57 145.138 459.424C145.055 459.364 144.986 459.286 144.935 459.197C144.884 459.108 144.853 459.009 144.843 458.907C144.833 458.805 144.844 458.702 144.877 458.605C144.909 458.507 144.962 458.418 145.032 458.343C145.101 458.267 145.186 458.207 145.28 458.167C145.374 458.126 145.476 458.106 145.579 458.108C145.681 458.11 145.782 458.133 145.875 458.176C145.968 458.22 146.051 458.282 146.118 458.36C160.44 471.8 173.726 505.4 170.17 536.494C170.149 536.68 170.057 536.85 169.914 536.97C169.77 537.09 169.586 537.15 169.4 537.138V537.138Z" fill="white"/>
<path d="M136.696 566.678C135.1 567.63 131.628 565.936 130.34 565.11C128.124 563.672 126.312 561.691 125.076 559.356C123.731 556.69 123.242 553.673 123.676 550.718C123.898 549.158 124.225 547.614 124.656 546.098L125.846 541.59C126.325 540.134 126.511 538.597 126.392 537.068C125.93 534.03 123.172 531.944 120.666 530.152C117.866 528.178 114.982 525.546 114.912 521.864C115.045 519.002 116.123 516.264 117.978 514.08C119.686 511.812 121.73 509.796 123.27 507.416C124.483 505.746 125.086 503.71 124.978 501.648C124.784 500.39 124.336 499.185 123.662 498.106C122.115 495.861 120.748 493.497 119.574 491.036C118.622 488.474 118.678 485.268 120.652 483.378C122.409 481.99 124.643 481.351 126.868 481.6C130.76 481.768 134.526 484.512 137.62 486.654C140.714 488.796 143.122 491.736 146.664 492.982C151.298 494.634 157.458 493.668 160.538 498.4C163.212 502.502 161.28 507.094 161.014 511.448C160.594 518.448 167.188 521.08 170.422 526.162C171.425 527.847 171.853 529.813 171.64 531.762C171.516 535.034 170.795 538.256 169.512 541.268C167.964 544.511 166.23 547.662 164.318 550.704C164.22 550.816 136.934 566.524 136.696 566.678Z" fill="#C0B6FF"/>
<path d="M152.95 557.704C152.854 557.702 152.76 557.682 152.672 557.643C152.585 557.605 152.506 557.55 152.439 557.481C152.373 557.412 152.321 557.331 152.286 557.242C152.251 557.153 152.234 557.058 152.236 556.962C152.768 528.052 138.418 496.482 128.31 487.438C128.176 487.302 128.101 487.118 128.101 486.927C128.101 486.736 128.176 486.552 128.31 486.416C128.377 486.348 128.456 486.294 128.544 486.257C128.631 486.22 128.726 486.201 128.821 486.201C128.916 486.201 129.011 486.22 129.098 486.257C129.186 486.294 129.265 486.348 129.332 486.416C139.65 495.628 154.28 527.716 153.748 557.032C153.73 557.227 153.636 557.406 153.487 557.532C153.338 557.658 153.145 557.72 152.95 557.704V557.704Z" fill="white"/>
<path d="M147.826 523.684C147.758 523.705 147.684 523.705 147.616 523.684C140.741 521.965 133.7 520.998 126.616 520.8C126.425 520.789 126.246 520.707 126.113 520.569C125.981 520.432 125.905 520.249 125.902 520.058C125.9 519.961 125.918 519.865 125.955 519.776C125.992 519.686 126.047 519.605 126.116 519.538C126.186 519.471 126.269 519.419 126.36 519.386C126.451 519.352 126.547 519.338 126.644 519.344C133.865 519.541 141.043 520.526 148.05 522.284C148.143 522.31 148.231 522.354 148.307 522.414C148.383 522.474 148.446 522.548 148.493 522.633C148.54 522.718 148.57 522.811 148.58 522.907C148.591 523.004 148.582 523.101 148.554 523.194C148.507 523.346 148.409 523.478 148.276 523.567C148.144 523.656 147.985 523.698 147.826 523.684V523.684Z" fill="white"/>
<path d="M537.712 145.068L467.922 185.304C467.319 185.693 466.817 186.219 466.456 186.84C466.096 187.46 465.888 188.157 465.85 188.874V273.588C465.892 274.303 466.103 274.999 466.466 275.617C466.828 276.235 467.332 276.758 467.936 277.144L471.702 279.272C472.353 279.603 473.072 279.775 473.802 279.775C474.532 279.775 475.251 279.603 475.902 279.272L545.692 239.05C546.295 238.658 546.798 238.129 547.158 237.506C547.518 236.884 547.726 236.184 547.764 235.466V150.766C547.723 150.052 547.515 149.357 547.155 148.739C546.794 148.121 546.293 147.597 545.692 147.21L541.912 145.082C541.262 144.749 540.544 144.574 539.814 144.572C539.084 144.569 538.364 144.739 537.712 145.068V145.068Z" fill="#C0B6FF"/>
<path d="M473.774 278.054V193.354C473.812 192.636 474.02 191.936 474.38 191.314C474.74 190.691 475.243 190.162 475.846 189.77L545.636 149.548C546.784 148.89 547.708 149.422 547.708 150.738V235.438C547.67 236.156 547.462 236.856 547.102 237.478C546.742 238.101 546.239 238.63 545.636 239.022L475.846 279.244C474.698 279.902 473.774 279.37 473.774 278.054Z" fill="#C0B6FF"/>
<path opacity="0.2" d="M475.846 279.244C475.193 279.567 474.475 279.735 473.746 279.735C473.018 279.735 472.299 279.567 471.646 279.244L467.936 277.2C467.33 276.82 466.824 276.3 466.461 275.683C466.098 275.067 465.889 274.372 465.85 273.658V188.874C465.883 188.129 466.11 187.405 466.508 186.774L474.39 191.324C474.011 191.935 473.798 192.635 473.774 193.354V278.054C473.774 279.258 474.6 280 475.846 279.244Z" fill="black"/>
<path opacity="0.4" d="M547.68 150.36C547.512 149.324 546.672 148.96 545.636 149.548L475.846 189.77C475.253 190.159 474.771 190.694 474.446 191.324L466.55 186.774C466.892 186.197 467.373 185.716 467.95 185.374L537.754 145.138C538.403 144.802 539.123 144.626 539.854 144.626C540.585 144.626 541.305 144.802 541.954 145.138L545.72 147.266C546.246 147.615 546.692 148.071 547.029 148.604C547.367 149.137 547.589 149.736 547.68 150.36Z" fill="white"/>
<path d="M456.568 246.288C455.266 245.518 449.19 242.088 448.868 241.892C448.625 241.742 448.419 241.541 448.263 241.302C448.108 241.063 448.007 240.793 447.968 240.511C447.93 240.228 447.954 239.941 448.039 239.669C448.124 239.397 448.269 239.148 448.462 238.938L466.032 217L473.774 221.438L456.218 243.362C456.032 243.57 455.892 243.815 455.808 244.08C455.723 244.346 455.697 244.627 455.73 244.904C455.763 245.181 455.855 245.448 456 245.687C456.144 245.925 456.338 246.13 456.568 246.288Z" fill="#C0B6FF"/>
<path opacity="0.4" d="M456.568 246.288C455.266 245.518 449.19 242.088 448.868 241.892C448.625 241.742 448.419 241.541 448.263 241.302C448.108 241.063 448.007 240.793 447.968 240.511C447.93 240.228 447.954 239.941 448.039 239.669C448.124 239.397 448.269 239.148 448.462 238.938L466.032 217L473.774 221.438L456.218 243.362C456.032 243.57 455.892 243.815 455.808 244.08C455.723 244.346 455.697 244.627 455.73 244.904C455.763 245.181 455.855 245.448 456 245.687C456.144 245.925 456.338 246.13 456.568 246.288Z" fill="white"/>
<path d="M473.774 221.466L456.218 243.39C455.963 243.64 455.786 243.958 455.708 244.307C455.63 244.655 455.655 245.019 455.779 245.354C455.904 245.688 456.122 245.98 456.409 246.193C456.696 246.406 457.038 246.531 457.394 246.554L473.774 248.332L478.8 234.5L473.774 221.466Z" fill="#C0B6FF"/>
<path d="M531.734 207.424C531.593 209.497 531.208 211.546 530.586 213.528C530.039 215.31 529.302 217.028 528.388 218.652C527.59 220.07 526.616 221.383 525.49 222.558C524.567 223.548 523.489 224.38 522.298 225.022C520.995 225.875 519.435 226.247 517.888 226.072C516.988 225.885 516.18 225.39 515.606 224.672C515.27 225.386 514.92 226.072 514.556 226.842C514.164 227.62 513.695 228.356 513.156 229.04C512.544 229.817 511.854 230.53 511.098 231.168C510.173 231.931 509.163 232.584 508.088 233.114C506.942 233.792 505.598 234.059 504.28 233.87C503.123 233.606 502.117 232.897 501.48 231.896C500.622 230.542 500.05 229.027 499.8 227.444C499.43 225.239 499.303 222.999 499.422 220.766C499.509 218.294 499.814 215.835 500.332 213.416C500.793 211.247 501.463 209.127 502.334 207.088C503.091 205.288 504.099 203.605 505.33 202.09C506.386 200.759 507.706 199.663 509.208 198.87C509.706 198.522 510.268 198.277 510.862 198.149C511.456 198.022 512.069 198.015 512.666 198.128C513.441 198.467 514.078 199.059 514.472 199.808V199.052C514.498 198.408 514.675 197.78 514.99 197.218C515.23 196.703 515.62 196.274 516.11 195.986L519.106 194.446C519.27 194.34 519.466 194.294 519.661 194.317C519.855 194.34 520.035 194.43 520.17 194.572C520.334 194.762 520.455 194.986 520.522 195.228C520.59 195.47 520.604 195.724 520.562 195.972L519.848 213.878C519.76 214.351 519.783 214.837 519.917 215.299C520.051 215.761 520.291 216.185 520.618 216.538C520.914 216.737 521.262 216.844 521.619 216.844C521.976 216.844 522.324 216.737 522.62 216.538C523.496 216.037 524.202 215.286 524.65 214.382C525.318 213.038 525.695 211.569 525.756 210.07C525.896 208.53 525.994 206.92 526.064 205.268C526.134 203.616 526.134 202.09 526.064 200.69C526.022 198.178 525.645 195.683 524.944 193.27C524.499 191.573 523.516 190.065 522.144 188.972C520.763 188.057 519.09 187.692 517.454 187.95C515.055 188.322 512.741 189.118 510.622 190.302C508.382 191.449 506.34 192.947 504.574 194.74C502.747 196.597 501.166 198.682 499.87 200.942C498.511 203.315 497.408 205.826 496.58 208.432C495.724 211.118 495.124 213.879 494.788 216.678C494.69 217.448 494.592 218.442 494.536 219.646C494.48 220.85 494.41 222.138 494.354 223.454C494.298 224.77 494.256 226.044 494.228 227.262C494.2 228.48 494.228 229.474 494.228 230.216C494.286 232.475 494.688 234.713 495.418 236.852C495.961 238.5 496.927 239.977 498.218 241.136C499.453 242.147 501.004 242.693 502.6 242.676C504.684 242.595 506.719 242.019 508.536 240.996C509.957 240.284 511.328 239.475 512.638 238.574C513.719 237.83 514.74 237.001 515.69 236.096C516.506 235.342 517.264 234.527 517.958 233.66C518.588 232.876 519.176 232.092 519.694 231.336C520.212 230.58 520.478 230.174 520.73 229.852C521.014 229.516 521.361 229.24 521.752 229.04L525.952 226.87C526.113 226.753 526.306 226.69 526.505 226.69C526.704 226.69 526.897 226.753 527.058 226.87C527.234 227.072 527.359 227.314 527.422 227.575C527.485 227.835 527.485 228.107 527.422 228.368C527.37 228.862 527.212 229.34 526.96 229.768C526.106 231.35 525.154 233.03 524.09 234.78C522.971 236.6 521.702 238.324 520.296 239.932C518.72 241.721 516.997 243.374 515.144 244.874C512.977 246.616 510.63 248.122 508.144 249.368C505.492 250.9 502.485 251.711 499.422 251.72C497.121 251.665 494.919 250.769 493.234 249.2C491.445 247.433 490.143 245.234 489.454 242.816C488.553 239.837 488.082 236.744 488.054 233.632C488.054 232.862 488.054 231.826 488.054 230.524C488.054 229.222 488.138 227.85 488.194 226.408C488.25 224.966 488.32 223.608 488.39 222.32C488.46 221.032 488.53 219.996 488.6 219.254C488.947 215.541 489.67 211.873 490.756 208.306C491.852 204.609 493.344 201.042 495.208 197.666C497.052 194.32 499.305 191.216 501.914 188.426C504.477 185.675 507.5 183.392 510.846 181.678C513.862 179.935 517.24 178.91 520.716 178.682C523.092 178.585 525.413 179.407 527.198 180.978C528.987 182.75 530.227 185.001 530.768 187.46C531.546 190.598 531.954 193.817 531.986 197.05C531.986 198.45 531.986 200.144 531.902 202.076C531.818 204.008 531.874 205.87 531.734 207.424ZM505.4 217.658C505.164 219.638 505.448 221.646 506.226 223.482C506.36 223.746 506.551 223.977 506.784 224.159C507.018 224.341 507.288 224.469 507.577 224.534C507.866 224.6 508.165 224.601 508.454 224.538C508.744 224.474 509.015 224.348 509.25 224.168C510.776 223.318 511.945 221.946 512.54 220.304C513.379 218.064 513.824 215.696 513.856 213.304C514.083 211.302 513.803 209.276 513.044 207.41C512.4 206.234 511.364 206.01 509.95 206.738C508.444 207.602 507.304 208.986 506.744 210.63C505.887 212.876 505.432 215.255 505.4 217.658V217.658Z" fill="#FAFAFA"/>
<path d="M578.326 313.096C588.476 313.096 592.97 314.93 596.624 324.66C600.278 334.39 609.98 356.664 610.162 363.286C610.358 370.16 588.238 390.992 589.036 390.642C589.274 390.53 582.288 378.042 582.288 378.042L594.734 362.782L587.594 342.076L578.326 313.096Z" fill="#FFB9A7"/>
<path d="M581.91 312.858C586.306 313.236 590.604 313.978 593.866 317.87C597.128 321.762 605.29 345.072 605.29 345.072C605.29 345.072 601.468 351.302 589.89 352.226L583.674 336L581.91 312.858Z" fill="#C0B6FF"/>
<path opacity="0.4" d="M581.91 312.858C586.306 313.236 590.604 313.978 593.866 317.87C597.128 321.762 605.29 345.072 605.29 345.072C605.29 345.072 601.468 351.302 589.89 352.226L583.674 336L581.91 312.858Z" fill="black"/>
<path d="M590.562 539.728C591.178 540.316 591.304 540.89 591.276 543.06C591.248 545.23 592.172 547.652 591.066 549.668C590.226 551.18 585.984 552.216 583.828 551.068C581.954 549.84 580.279 548.334 578.858 546.602C577.533 545.077 576.076 543.671 574.504 542.402C572.67 541.002 570.556 540.134 568.638 538.888C567.147 537.921 565.895 536.629 564.976 535.109C564.057 533.588 563.495 531.879 563.332 530.11C563.217 528.951 563.456 527.784 564.018 526.764C564.475 526.22 565.076 525.816 565.751 525.596C566.427 525.375 567.15 525.348 567.84 525.518C569.898 525.84 576.898 529.718 578.522 530.88C580.552 532.294 589.918 539.112 590.562 539.728Z" fill="#263238"/>
<path d="M580.398 528.514C580.424 529.263 580.382 530.013 580.272 530.754V530.754C580.202 532.308 573.65 528.668 570.962 529.018H570.892C568.4 530.222 570.472 533.708 572.796 535.5C575.12 537.292 581.462 541.954 582.526 542.738C585.942 545.412 590.044 543.242 590.226 541.842C590.52 538.174 590.324 534.31 590.926 528.472L580.398 528.514Z" fill="#FFB9A7"/>
<path d="M551.852 556.066C553.07 556.066 553.616 560.042 553.84 563.066C554.008 565.446 554.904 569.31 554.064 571.06C553.224 572.81 550.032 573.86 545.09 573.79C541.898 573.72 536.886 575.834 533.442 577.696C529.998 579.558 526.064 579.572 522.34 579.096C517.958 578.522 513.436 575.918 512.75 574.084C512.064 572.25 512.988 571.396 523.404 567.084C523.502 567.084 534.38 562.296 539.462 556.822L551.852 556.066Z" fill="#263238"/>
<path d="M553.098 548.086H540.204C540.05 551.11 539.812 554.078 539.462 556.948C534.38 562.422 523.502 567.168 523.404 567.21C522.004 567.798 520.716 568.316 519.624 568.792C519.33 569.772 519.708 571.34 524.314 572.096C530.488 573.132 547.162 561.26 551.082 558.39C551.378 558.196 551.663 557.986 551.936 557.76C552.118 554.904 552.538 551.6 553.098 548.086Z" fill="#FFB9A7"/>
<path d="M591.136 529.48C592.536 514.528 594.734 495.95 594.734 488.768C594.842 481.937 594.166 475.117 592.718 468.44C592.718 468.44 595.014 439.348 595.518 422.912C596.582 391.86 597.226 390.446 591.318 374.122C591.318 374.122 543.2 369.558 541.422 390.026C539.224 415.52 537.992 458.206 538.048 470.344C538.048 479.388 539.126 489.188 539.63 509.684C539.882 520.38 539.448 534.464 539.756 548.03C542.052 551.81 552.202 550.13 553.756 548.31C556.206 532.63 560.756 511.504 561.708 503.202C562.344 495.876 562.043 488.499 560.812 481.25C560.812 481.25 566.412 437.85 567.35 431.214C568.78 438.2 569.6 445.296 569.8 452.424C569.8 455.308 571.634 464.66 573.286 480.928C574.042 488.376 577.486 510.104 579.824 528.528C581.504 531.384 589.554 532.308 591.136 529.48Z" fill="#455A64"/>
<path opacity="0.15" d="M567.35 431.2L571.06 410.2C577.382 409.224 583.2 406.17 587.594 401.52C587.594 401.52 585.368 409.92 574.462 412.818L570.108 431.9L569.38 449.288L567.35 431.2Z" fill="black"/>
<path d="M560.028 304.99L561.484 324.1L576.1 323.022L575.064 301.826L560.028 304.99Z" fill="#FFB9A7"/>
<path d="M560.602 260.288C558.125 259.96 555.606 260.232 553.257 261.083C550.908 261.933 548.799 263.336 547.106 265.174C538.51 274.848 547.932 281.974 547.932 281.974L560.602 260.288Z" fill="#263238"/>
<path d="M545.664 283.99C545.664 283.99 541.926 289.59 542.416 290.206C543.273 290.772 544.22 291.188 545.216 291.438L545.664 283.99Z" fill="#F29E8F"/>
<path d="M557.074 266.224C553.448 268.072 547.204 271.502 545.552 284.816C543.872 298.48 546.952 303.226 548.758 305.032C550.018 306.236 556.5 306.698 559.888 305.648C564.088 304.346 573.314 299.838 577.64 292.796C582.722 284.522 583.786 273.462 577.962 269.108C569.8 262.99 560.14 264.6 557.074 266.224Z" fill="#FFB9A7"/>
<path d="M555.268 281.932C547.694 278.082 549.668 268.03 549.668 268.03C549.668 268.03 560.476 252.63 580.468 262.57C587.37 266.028 591.514 273.882 591.346 283.08C591.346 285.924 590.786 288.739 589.697 291.366C588.609 293.993 587.013 296.38 585.002 298.39C582.99 300.4 580.603 301.994 577.975 303.08C575.348 304.167 572.532 304.726 569.688 304.724C566.346 304.724 563.141 303.396 560.778 301.034C558.415 298.671 557.088 295.466 557.088 292.124V291.284L557.732 291.494C558.766 291.74 559.846 291.724 560.872 291.447C561.899 291.171 562.84 290.643 563.612 289.912C566.93 287.112 567.336 281.512 563.136 280.028C558.936 278.544 556.738 283.486 556.738 283.486L555.114 287.952C554.721 287.81 554.361 287.591 554.052 287.31C553.744 287.028 553.494 286.688 553.318 286.31C553.141 285.931 553.04 285.522 553.022 285.105C553.003 284.687 553.067 284.271 553.21 283.878C553.376 283.415 553.649 282.997 554.007 282.659C554.364 282.321 554.796 282.072 555.268 281.932Z" fill="#263238"/>
<path d="M557.2 301.7C560.293 301.7 562.8 299.193 562.8 296.1C562.8 293.007 560.293 290.5 557.2 290.5C554.107 290.5 551.6 293.007 551.6 296.1C551.6 299.193 554.107 301.7 557.2 301.7Z" fill="#263238"/>
<path d="M589.4 298.9C592.493 298.9 595 296.393 595 293.3C595 290.207 592.493 287.7 589.4 287.7C586.307 287.7 583.8 290.207 583.8 293.3C583.8 296.393 586.307 298.9 589.4 298.9Z" fill="#263238"/>
<path d="M572.6 308.7C575.693 308.7 578.2 306.193 578.2 303.1C578.2 300.007 575.693 297.5 572.6 297.5C569.507 297.5 567 300.007 567 303.1C567 306.193 569.507 308.7 572.6 308.7Z" fill="#263238"/>
<path d="M564.2 308.7C568.066 308.7 571.2 305.566 571.2 301.7C571.2 297.834 568.066 294.7 564.2 294.7C560.334 294.7 557.2 297.834 557.2 301.7C557.2 305.566 560.334 308.7 564.2 308.7Z" fill="#263238"/>
<path d="M582.4 307.3C586.266 307.3 589.4 304.166 589.4 300.3C589.4 296.434 586.266 293.3 582.4 293.3C578.534 293.3 575.4 296.434 575.4 300.3C575.4 304.166 578.534 307.3 582.4 307.3Z" fill="#263238"/>
<path d="M586.6 359.8C593.768 336.686 592.802 334.194 591.402 324.31C590.52 318.024 587.72 314.146 581.35 312.676L575.638 312.06C576.086 316.26 562.436 316.75 560.77 313.656L550.13 313.838C547.12 314.902 540.19 329.812 539.07 339.766C538.16 347.844 544.488 354.858 544.488 354.858C544.726 358.064 542.444 364.518 542.444 364.518C542.444 364.518 541.31 384.048 540.666 394.058C540.666 394.058 546.266 401.646 570.892 399.532C587.692 398.132 596.526 390.012 596.526 390.012C594.974 379.447 591.617 369.227 586.6 359.8V359.8Z" fill="#263238"/>
<path d="M547.764 368.2C549.262 365.4 551.964 336 552.972 325.948L537.11 334.04L533.582 362.6C532.714 364.49 525.49 379.792 520.394 385.56C519.481 386.569 518.232 387.211 516.88 387.366C513.24 387.8 511.28 389.074 508.116 390.292C505.652 391.244 504.042 391.006 504 391.692C504.048 392.435 504.372 393.134 504.908 393.652C505.444 394.17 506.153 394.469 506.898 394.492C508.569 394.6 510.247 394.506 511.896 394.212C509.716 396.18 507.258 397.816 504.602 399.07C498.4 402.038 494.9 404.67 502.81 408.52C507.766 410.9 515.312 409.374 524.202 400.12C526.764 397.474 530.166 393.12 533.036 389.396C539.854 380.716 543.634 375.942 547.764 368.2Z" fill="#FFB9A7"/>
<path d="M536.2 331.45C536.83 322.588 540.064 313.516 550.06 313.852C553.574 317.702 554.008 323.47 553.21 332.444C552.538 340.046 551.194 353.976 551.194 353.976C547.918 356.02 537.278 354.788 533.708 351.974L536.2 331.45Z" fill="#C0B6FF"/>
<path opacity="0.4" d="M536.2 331.45C536.83 322.588 540.064 313.516 550.06 313.852C553.574 317.702 554.008 323.47 553.21 332.444C552.538 340.046 551.194 353.976 551.194 353.976C547.918 356.02 537.278 354.788 533.708 351.974L536.2 331.45Z" fill="black"/>
</svg>
