<svg width="108" height="208" viewBox="0 0 208 216" fill="none" xmlns="http://www.w3.org/2000/svg">
<path fill-rule="evenodd" clip-rule="evenodd" d="M104 10.42C51.5233 10.42 9.03933 55.9387 9.03933 111.995C9.03933 153.155 31.9453 188.575 64.9133 204.507C68.3627 206.177 71.734 205.515 74.3687 203.387C75.8257 202.165 77.0002 200.596 77.8002 198.804C78.6001 197.011 79.0037 195.043 78.9793 193.055V187.735L67.2187 186.017C67.1316 186.005 67.0449 185.989 66.9587 185.971C60.476 184.608 56.0993 182.153 52.8927 178.616C50.1973 175.639 48.5507 172.073 47.1553 169.049L46.67 167.995C45.3804 165.098 43.9721 162.264 42.4493 159.501C41.2793 157.504 40.3693 156.477 39.468 155.833C37.18 154.2 34.9787 151.428 34.9787 147.965C34.9708 146.969 35.169 145.983 35.5587 145.079C35.9484 144.175 36.52 143.375 37.232 142.739C38.5758 141.593 40.2506 140.992 41.964 141.04C43.888 141.04 45.6993 141.675 47.2073 142.403C48.75 143.149 50.284 144.139 51.714 145.165C55.198 147.667 58.63 150.625 61.5333 154.275C64.558 158.064 66.6987 160.472 69.9227 160.967C72.5747 161.377 75.2787 161.387 77.3847 161.284C77.6773 159.488 78.1601 157.735 78.8233 156.057C76.2512 155.411 73.7138 154.613 71.2227 153.668C65.5547 151.503 59.2367 148.133 54.99 143.028C50.3273 137.409 47.4413 132.397 45.8293 126.536C44.2607 120.824 44.0007 114.636 44.0007 107.02C44.0007 95.3534 48.6893 85.5254 52.208 80.308C50.8561 75.7403 49.8845 71.052 49.3047 66.2987C48.9206 63.3011 48.9236 60.2607 49.3133 57.264C49.7467 54.5294 50.83 51.1693 53.6813 49.144C56.4287 47.1747 59.6527 47.2587 62.166 47.7627C64.7747 48.2947 67.4873 49.4614 69.9833 50.796C74.048 52.9614 78.0867 55.8547 81.1113 58.3094C86.3287 56.6574 95.5587 54.5294 103.905 54.3334H104.095C112.45 54.5294 121.264 56.6574 126.351 58.3C129.385 55.8547 133.415 52.952 137.471 50.796C139.967 49.4614 142.671 48.2947 145.288 47.7627C147.801 47.2587 151.025 47.1747 153.781 49.1347C156.624 51.1694 157.716 54.5294 158.141 57.264C158.583 60.1107 158.479 63.2934 158.141 66.2987C157.563 71.0517 156.595 75.7399 155.246 80.308C158.765 85.5347 163.453 95.3627 163.453 107.02C163.453 114.636 163.193 120.824 161.633 126.527C160.013 132.407 157.127 137.409 152.464 143.028C148.217 148.133 141.899 151.503 136.231 153.668C133.223 154.807 130.148 155.733 127.027 156.44C128.093 159.912 128.475 162.721 128.475 164.336V193.176C128.475 197.563 130.373 201.305 133.068 203.489C135.685 205.627 139.048 206.289 142.497 204.665C175.777 188.873 198.952 153.36 198.952 111.985C198.952 55.9387 156.485 10.42 104 10.42ZM82.1253 170.627C79.872 170.972 82.1167 170.627 82.1167 170.627H82.0907L82.0213 170.645L81.77 170.683C80.4827 170.846 79.1906 170.961 77.896 171.028C74.8115 171.201 71.7188 171.067 68.6573 170.627C61.802 169.581 57.6333 164.355 54.938 160.957L54.678 160.64C53.7968 159.539 52.8501 158.501 51.844 157.532C52.7367 159.305 53.664 161.284 54.6607 163.412L54.7473 163.599L55.1893 164.569C56.706 167.817 57.7027 169.983 59.358 171.793C60.97 173.567 63.4833 175.284 68.562 176.367L84.11 178.635C85.1959 178.793 86.1916 179.37 86.9121 180.259C87.6325 181.149 88.0288 182.289 88.0273 183.469V193.055C88.0273 200.521 84.7773 207.176 79.794 211.208C77.1776 213.361 74.0652 214.704 70.7922 215.092C67.5193 215.48 64.21 214.899 61.2213 213.411C25.1507 195.985 0 157.187 0 111.995C0 50.4694 46.6007 0.666687 104 0.666687C161.399 0.666687 208 50.4694 208 111.995C208 157.42 182.529 196.321 146.146 213.597C143.155 215.057 139.851 215.614 136.589 215.208C133.327 214.802 130.228 213.448 127.625 211.292C125.052 209.158 122.972 206.411 121.549 203.266C120.127 200.122 119.4 196.665 119.427 193.167V164.327C119.427 163.673 119.002 159.903 116.636 154.835C116.309 154.132 116.145 153.355 116.156 152.569C116.168 151.783 116.355 151.012 116.702 150.321C117.049 149.629 117.545 149.038 118.149 148.597C118.753 148.157 119.447 147.879 120.172 147.788C124.615 147.188 128.985 146.074 133.207 144.465C138.355 142.505 142.974 139.817 145.721 136.513C149.803 131.604 151.84 127.833 152.958 123.755C154.119 119.527 154.414 114.608 154.414 107.02C154.414 96.3707 149.214 87.42 146.822 84.536C146.279 83.8842 145.909 83.0872 145.75 82.2283C145.592 81.3695 145.651 80.4806 145.921 79.6547C147.461 74.9523 148.55 70.0922 149.171 65.1507C149.448 62.584 149.465 60.4374 149.223 58.888C149.168 58.3215 149.009 57.7725 148.755 57.2734C148.158 57.1622 147.546 57.1908 146.961 57.3574C145.487 57.656 143.607 58.4027 141.475 59.5414C137.228 61.8 132.808 65.1414 130.069 67.5307C129.465 68.0584 128.745 68.4088 127.978 68.5478C127.211 68.6868 126.424 68.6097 125.693 68.324C118.676 65.8521 111.377 64.4294 104 64.096C95.2727 64.32 85.202 66.9894 81.7613 68.324C81.0303 68.6097 80.243 68.6868 79.476 68.5478C78.7091 68.4088 77.9886 68.0584 77.3847 67.5307C73.8429 64.46 70.0217 61.7832 65.9793 59.5414C64.2435 58.5597 62.3965 57.8255 60.4847 57.3574C59.902 57.1922 59.2932 57.1635 58.6993 57.2734C58.4446 57.7724 58.2854 58.3215 58.2313 58.888C57.9887 60.4374 58.006 62.584 58.2833 65.1507C58.9079 70.0914 59.9968 74.951 61.5333 79.6547C62.0793 81.3347 61.7413 83.2014 60.632 84.536C58.24 87.42 53.04 96.3707 53.04 107.02C53.04 114.599 53.3347 119.527 54.496 123.755C55.6227 127.833 57.6507 131.595 61.724 136.513C64.48 139.817 69.0907 142.505 74.2473 144.465C78.466 146.073 82.8332 147.187 87.2733 147.788C88.1868 147.894 89.0489 148.296 89.7447 148.942C90.4405 149.588 90.9372 150.447 91.1687 151.405C91.4001 152.362 91.3554 153.373 91.0404 154.303C90.7254 155.232 90.1551 156.036 89.4053 156.608C87.9753 157.709 87.0307 159.688 86.502 161.975C86.2291 163.152 86.0665 164.356 86.0167 165.568V165.745C86.0277 166.929 85.6392 168.076 84.9234 168.974C84.2076 169.872 83.2132 170.459 82.1253 170.627V170.627Z" fill="#EFF7F6"/>
</svg>
