<svg width="108" height="208" viewBox="0 0 246 280" fill="none" xmlns="http://www.w3.org/2000/svg">
<path fill-rule="evenodd" clip-rule="evenodd" d="M221.636 129.617L132.123 27.72C129.647 24.9038 126.29 23.3218 122.79 23.3218C119.29 23.3218 115.933 24.9038 113.457 27.72L94.874 48.895L118.449 75.7284C121.229 74.6554 124.217 74.4919 127.074 75.2565C129.932 76.021 132.543 77.683 134.612 80.0532C136.68 82.4234 138.123 85.4069 138.776 88.6641C139.428 91.9214 139.264 95.3217 138.303 98.4784L161.028 124.343C164.423 123.015 168.116 123.051 171.492 124.446C174.867 125.841 177.72 128.51 179.576 132.009C181.431 135.508 182.177 139.626 181.689 143.675C181.201 147.724 179.509 151.46 176.894 154.261C174.279 157.063 170.9 158.759 167.32 159.068C163.739 159.377 160.174 158.28 157.218 155.96C154.262 153.64 152.093 150.237 151.074 146.318C150.055 142.399 150.247 138.201 151.618 134.423L130.421 110.297V173.775C133.642 175.589 136.219 178.605 137.723 182.319C139.227 186.034 139.567 190.223 138.686 194.188C137.806 198.153 135.758 201.655 132.883 204.11C130.009 206.565 126.483 207.825 122.891 207.679C119.3 207.533 115.862 205.99 113.149 203.308C110.436 200.626 108.612 196.967 107.982 192.94C107.352 188.913 107.954 184.762 109.687 181.179C111.42 177.596 114.18 174.798 117.506 173.25V109.2C115.588 108.305 113.844 106.988 112.376 105.322C110.907 103.657 109.743 101.677 108.95 99.4969C108.158 97.3169 107.752 94.9798 107.757 92.6204C107.761 90.2609 108.176 87.9259 108.978 85.75L85.7413 59.2784L24.3643 129.127C21.8894 131.946 20.4992 135.769 20.4992 139.755C20.4992 143.741 21.8894 147.564 24.3643 150.383L113.877 252.257C116.353 255.073 119.71 256.655 123.21 256.655C126.71 256.655 130.067 255.073 132.543 252.257L221.636 150.85C222.862 149.455 223.836 147.798 224.499 145.974C225.163 144.15 225.505 142.196 225.505 140.222C225.505 138.248 225.163 136.293 224.499 134.469C223.836 132.646 222.862 130.989 221.636 129.593" fill="#EFF7F6"/>
</svg>
