<svg width="20" height="20" viewBox="0 0 20 20" fill="none" xmlns="http://www.w3.org/2000/svg">
<path d="M6.06158 18.28C3.89233 19 1.72308 17.56 1 16.84M6.78467 19C6.78467 19 6.06158 16.12 7.50775 14.68C7.50775 14.68 4.61542 14.68 2.44617 12.52C0.276917 10.36 1 6.04 2.44617 4.6C1.72308 2.44 3.16925 1 3.16925 1C3.16925 1 5.3385 1 6.78467 2.44C8.23083 1.72 11.8463 1.72 13.2924 2.44C14.7386 1 16.9078 1 16.9078 1C16.9078 1 18.354 2.44 17.6309 4.6C19.0771 6.04 19.8002 10.36 17.6309 12.52C15.4617 14.68 12.5693 14.68 12.5693 14.68C14.0155 16.12 13.2924 19 13.2924 19H6.78467Z" stroke="#C0B6FF" stroke-width="1.5" stroke-linecap="round" stroke-linejoin="round"/>
</svg>
