<svg width="100" height="200" viewBox="0 0 294 420" fill="none" xmlns="http://www.w3.org/2000/svg">
<path d="M34.55 0H52.1325V18.7075H68.22V0H85.8025V56.63H68.22V37.6775H52.1325V56.63H34.5662V0H34.55ZM108.91 18.7775H93.44V0H141.979V18.7775H126.492V56.63H108.91V18.7775V18.7775ZM149.681 0H168.011L179.289 19.8975L190.55 0H208.88V56.63H191.379V28.56L179.289 48.7025H178.98L166.874 28.5775V56.63H149.681V0V0ZM217.622 0H235.221V37.9225H259.921V56.6475H217.622V0V0Z" fill="#EFF7F6"/>
<path fill-rule="evenodd" clip-rule="evenodd" d="M33.9975 386.26L0.75 82.5475H293.25L259.986 386.225L146.837 420L33.9975 386.26ZM101.224 220.01L98.0713 181.86H230.428L233.515 144.62H60.29L69.6175 257.267H189.494L185.48 305.567L146.903 316.802H146.87L108.357 305.602L105.888 275.905H71.145L75.9875 334.39L146.837 355.565L217.801 334.39L226.446 230.02L227.291 220.027H101.224V220.01Z" fill="#EFF7F6"/>
</svg>
