<svg width="22" height="22" viewBox="0 0 22 22" fill="none" xmlns="http://www.w3.org/2000/svg">
<path d="M4.56774 6.59726C5.67544 6.59726 6.57341 5.69929 6.57341 4.59159C6.57341 3.48389 5.67544 2.58592 4.56774 2.58592C3.46004 2.58592 2.56207 3.48389 2.56207 4.59159C2.56207 5.69929 3.46004 6.59726 4.56774 6.59726Z" fill="#C0B6FF"/>
<path d="M8.46726 8.11709V19.2445H11.9222V13.7418C11.9222 12.2898 12.1953 10.8836 13.9957 10.8836C15.7713 10.8836 15.7933 12.5437 15.7933 13.8334V19.2454H19.25V13.1432C19.25 10.1457 18.6047 7.84209 15.1012 7.84209C13.4191 7.84209 12.2916 8.76517 11.8305 9.63875H11.7838V8.11709H8.46726ZM2.8371 8.11709H6.29751V19.2445H2.8371V8.11709Z" fill="#C0B6FF"/>
</svg>
