 <svg width="108" height="208" viewBox="0 0 268 198" fill="none" xmlns="http://www.w3.org/2000/svg">
<g clip-path="url(#clip0_82_29)">
<path d="M135.774 198H135.735C131.409 198 127.364 197.249 123.892 195.929L124.007 195.97L86.5255 181.64C80.9358 179.611 83.6669 178.901 85.5046 178.48C91.5696 177.265 97.3683 175.552 102.759 173.382L102.452 173.497C102.899 173.366 103.39 173.31 103.88 173.336C104.369 173.362 104.84 173.469 105.247 173.646L105.234 173.638L134.025 184.684C134.563 184.871 135.165 184.968 135.775 184.966C136.386 184.965 136.986 184.865 137.522 184.676L137.497 184.684L249.725 142.799C250.245 142.594 250.676 142.305 250.975 141.961C251.275 141.618 251.433 141.23 251.435 140.836V57.1065C251.43 56.7094 251.268 56.3197 250.964 55.9746C250.66 55.6294 250.225 55.3403 249.699 55.1347L249.686 55.1265L137.497 13.2825C136.966 13.0907 136.367 12.9908 135.759 12.9922C135.151 12.9936 134.554 13.0965 134.025 13.2907L134.038 13.2825L21.8737 55.1347C21.3384 55.3374 20.8935 55.6263 20.5826 55.9734C20.2716 56.3204 20.1053 56.7137 20.0998 57.1147V140.844C20.0998 141.677 20.8017 142.395 21.8482 142.774L21.861 142.783L52.6171 154.267C69.297 159.662 79.5065 153.31 79.5065 146.932V64.251C79.5065 63.096 80.9613 62.1555 82.748 62.1555H97.0286C98.8152 62.1555 100.27 63.0877 100.27 64.251V146.932C100.27 161.329 88.1463 169.587 67.0381 169.587L66.1958 169.595C57.2882 169.604 48.5539 168.004 40.9783 164.975L11.7535 154.102C8.17315 152.752 5.20262 150.819 3.13807 148.496C1.07352 146.172 -0.0129229 143.54 -0.0129528 140.86V57.1147C-0.000190899 51.5047 4.68343 46.6125 11.6514 43.956L11.7663 43.9147L124.007 1.98823C127.643 0.699593 131.725 0.027512 135.871 0.0347254C140.018 0.0419388 144.094 0.728212 147.719 2.02948L147.591 1.98823L259.819 43.9147C266.902 46.6125 271.573 51.5047 271.599 57.1147V140.852C271.594 143.519 270.515 146.138 268.467 148.453C266.42 150.768 263.474 152.698 259.922 154.052L259.807 154.093L147.604 195.987C144.03 197.327 139.969 198.027 135.838 198.016H135.748L135.774 198Z" fill="#EFF7F6"/>
<path d="M170.448 140.324C121.34 140.324 111.041 125.755 111.041 113.52V113.512C111.041 112.357 112.483 111.424 114.27 111.424H128.819C130.439 111.424 131.779 112.192 132.035 113.19V113.198C134.217 122.752 140.751 127.57 170.448 127.57C194.096 127.57 204.139 124.113 204.139 116.003C204.139 111.325 201.294 107.86 164.552 105.534C133.847 103.554 114.857 99.1815 114.857 83.3002C114.857 68.6647 133.949 59.928 165.905 59.928C201.868 59.928 219.658 67.9965 221.904 85.305L221.917 85.4865C221.917 86.0422 221.575 86.5752 220.967 86.9682C220.359 87.3612 219.535 87.582 218.675 87.582H204.216C203.484 87.5802 202.774 87.4176 202.204 87.1207C201.633 86.8239 201.236 86.4106 201.077 85.9485V85.932C197.58 75.8835 189.08 72.6742 166.032 72.6742C140.215 72.6742 137.216 78.4905 137.216 82.8382C137.216 88.1182 140.764 89.6527 175.617 92.631C210.099 95.5845 226.486 99.7507 226.486 115.417C226.434 131.249 206.054 140.308 170.486 140.308L170.448 140.324Z" fill="#EFF7F6"/>
</g>
<defs>
<clipPath id="clip0_82_29">
<rect width="268" height="198" fill="white"/>
</clipPath>
</defs>
</svg>
