<svg width="108" height="200" viewBox="0 0 224 292" fill="none" xmlns="http://www.w3.org/2000/svg">
<g clip-path="url(#clip0_83_32)">
<path d="M219.893 179.13C219.764 178.616 219.585 178.125 219.361 177.67C218.064 174.482 214.909 173.521 209.963 174.859C194.525 178.996 188.552 176.441 186.387 174.616C198.912 149.699 209.207 119.598 214.769 91.5178C217.308 78.7428 222.217 48.6546 215.908 33.9695C215.508 32.9598 215.04 31.9988 214.508 31.0981C202.459 11.0718 184.8 0.304294 163.427 0.0122942C149.473 -0.182372 137.573 4.22196 134.344 5.84013C132.746 5.44977 131.14 5.11709 129.528 4.84246C125.486 3.89158 121.39 3.37479 117.283 3.29729C106.251 3.06613 96.7213 6.50929 88.816 13.5173C80.8267 9.61179 44.1373 -6.49687 21.4293 14.4785C8.72667 26.195 2.884 47.1216 4.01333 76.6988C4.396 86.6511 8.74533 117.262 15.6147 146.584C19.908 164.907 24.3693 179.458 28.9893 190.165C34.1507 202.259 39.4987 209.547 44.9867 211.943C49.168 213.744 55.5613 213.683 62.328 203.074C68.1978 193.922 74.251 184.972 80.4813 176.234C84.5413 179.093 88.9373 180.639 93.4547 180.821C93.4542 180.837 93.4542 180.854 93.4547 180.87C92.6694 182.089 91.9008 183.326 91.1493 184.581C87.9853 189.812 87.3227 190.907 77.1493 193.645C74.256 194.423 66.5653 196.48 66.4533 203.512C66.4319 204.918 66.7272 206.301 67.3027 207.49C69.4213 212.637 75.908 214.912 76.776 215.192C89.236 219.243 100.156 216.311 108.248 206.931C108.089 234.075 108.967 260.683 111.468 268.835C113.531 275.563 118.58 292 134.521 292C136.855 292 139.431 291.635 142.259 290.856C158.891 286.209 166.115 276.621 168.905 255.5C170.305 244.915 172.657 220.521 173.936 205.605C174.095 204.753 174.272 204.145 174.468 203.95C174.468 203.95 175.121 203.366 178.453 204.315C178.589 204.354 178.726 204.383 178.864 204.4L181.235 204.668L181.375 204.68C189.28 205.154 199.211 202.952 204.997 199.448C211.008 195.798 221.853 186.88 219.884 179.13H219.893ZM22.12 144.491C15.176 114.866 11.1253 85.0573 10.808 76.711C9.79067 50.285 14.7 31.9011 25.3867 22.0461C42.532 6.24163 70.56 15.4761 82.3947 20.4645L82.3013 20.5861C63.42 45.4305 63.868 87.9165 63.9333 90.5201C63.9333 91.5178 63.9893 92.9413 64.0827 94.9001C64.4 102.03 65.016 115.34 63.392 130.402C61.8987 144.394 65.2027 158.094 72.4733 167.985C73.22 169.007 74.0133 169.968 74.8253 170.869C71.5867 175.383 64.5587 185.384 57.064 197.124C51.7627 205.422 48.104 203.828 46.9093 203.305C43.2507 201.723 39.3213 196.163 35.3453 187.221C30.8653 177.013 26.3573 162.498 22.1387 144.491H22.12ZM78.1853 206.395C76.7684 205.93 75.4104 205.201 74.1533 204.23C74.984 203.755 76.3653 203.135 78.6613 202.526C90.6453 199.302 92.4933 197.039 96.5347 190.36C97.6233 188.507 98.7659 186.709 99.96 184.97C100.274 184.513 100.509 183.973 100.651 183.388C102.237 181.551 103.189 182.05 104.72 182.877C106.176 183.668 107.595 186.041 108.173 188.656C108.453 189.897 108.752 192.246 107.753 194.071C99.316 209.474 87.0147 209.279 78.1853 206.395ZM97.7293 157.875L97.244 159.578C96.0027 163.922 94.8453 167.961 94.1267 171.793C87.9013 171.769 81.8347 168.289 77.2333 162.024C71.372 154.054 68.712 142.971 69.9253 131.607C71.6333 115.693 71.008 101.835 70.672 94.3891L70.5507 91.7125C73.3133 88.5248 86.1 79.5945 95.2187 82.3198C99.3813 83.5608 101.92 87.2595 102.965 93.6105C108.425 126.509 103.693 140.209 99.8853 151.232C99.1127 153.414 98.3967 155.63 97.7387 157.875H97.7293ZM166.46 213.501C166.301 215.654 166.124 218.075 165.881 220.752L164.519 226.081C164.411 226.505 164.354 226.948 164.351 227.395C164.295 233.174 163.847 235.291 163.277 237.98C162.35 242.172 161.787 246.485 161.597 250.84C160.571 268.044 153.403 277.935 139.039 281.938C124.899 285.892 122.388 275.904 120.185 267.083C119.956 266.156 119.713 265.236 119.457 264.321C117.451 257.191 117.684 247.142 117.992 233.235C118.141 226.41 117.759 210.106 114.912 201.042C114.949 197.477 115.005 193.852 115.089 190.189C115.097 189.724 115.047 189.259 114.94 188.815C114.849 187.959 114.712 187.114 114.529 186.284C113.391 181.077 110.609 176.721 107.249 174.908C105.924 174.19 103.488 172.876 100.557 173.85C101.183 170.492 102.265 166.708 103.441 162.595L103.936 160.868C104.496 158.921 105.187 156.914 105.924 154.784C109.9 143.25 115.351 127.458 109.433 91.7855C107.221 78.4265 99.82 71.9051 88.6013 73.4138C81.8813 74.3263 75.7213 77.8668 72.6507 79.8865C72.0346 80.2926 71.4247 80.7145 70.8213 81.1518C71.68 67.6955 74.9187 42.5348 87.024 26.6208C87.9224 25.4397 88.8663 24.3189 89.852 23.2628C90.3426 23.1403 90.8053 22.8741 91.2053 22.4841C98.224 15.5491 107.025 12.1425 117.357 12.3493C121.184 12.4345 124.843 12.763 128.315 13.3348C146.421 17.654 158.592 30.94 165.984 42.328C173.581 54.0323 177.697 65.8218 179.34 72.185C166.992 70.5546 158.592 73.7301 154.327 81.675C145.068 98.9273 159.404 132.434 166.292 148.543C167.552 151.487 168.644 154.042 168.989 155.113C171.229 162.206 174.132 166.939 176.251 170.394C176.904 171.453 177.539 172.475 178.015 173.375C174.281 174.786 167.561 178.035 168.168 194.265C167.936 197.574 167.675 200.88 167.384 204.181C166.955 206.712 166.731 209.778 166.451 213.501H166.46ZM174.767 193.779C174.393 183.656 177.287 182.597 180.339 181.49C180.762 181.338 181.182 181.171 181.599 180.991C181.992 181.447 182.41 181.866 182.849 182.245C188.169 186.819 197.624 187.367 210.915 183.875C209.029 186.028 206.071 188.742 202.02 191.187C198.193 193.499 191.791 195.239 185.715 195.616C178.995 196.029 175.579 194.642 174.767 193.779V193.779ZM180.087 80.9815C179.977 85.0658 179.649 89.1352 179.107 93.1603C178.593 97.516 178.061 102.018 177.921 107.48C177.791 112.785 178.295 118.309 178.789 123.662C179.788 134.454 180.805 145.562 176.857 156.524C176.2 155.011 175.614 153.446 175.103 151.84C174.181 149.278 173.168 146.774 172.069 144.333C166.32 130.901 152.871 99.4383 159.749 86.6146C163.296 80.0081 172.275 79.7283 180.087 80.9815V80.9815ZM182.215 166.306C181.952 165.87 181.688 165.437 181.421 165.004L181.095 164.469C187.871 149.869 186.545 135.427 185.36 122.628C184.875 117.372 184.427 112.408 184.539 107.76C184.66 102.808 185.155 98.5745 185.64 94.4743C186.237 89.4251 186.853 84.2056 186.676 78.0493C186.814 77.2928 186.852 76.5109 186.788 75.7376C186.359 69.8246 181.188 52.1586 170.641 36.1595C163.768 25.5998 155.205 17.1284 145.553 11.3395C151.77 9.68206 158.109 8.92314 164.453 9.07646C183.605 9.63613 198.753 18.9801 209.477 36.853C209.706 37.24 209.915 37.6465 210.103 38.0696C216.851 54.5676 207.527 114.415 182.224 166.306H182.215ZM99.932 91.895C99.6987 94.085 97.0387 97.0415 94.136 97.0415C93.883 97.0401 93.6304 97.0157 93.38 96.9685C91.4848 96.5353 89.7921 95.1616 88.6573 93.136C88.228 92.406 87.5373 90.9703 87.668 89.6685C87.711 89.3054 87.8101 88.9576 87.9593 88.646C88.1085 88.3343 88.3047 88.0655 88.536 87.8556C89.6373 86.7728 91.8213 86.3713 94.2293 86.8093C97.1787 87.3446 100.221 89.1575 99.9227 91.895H99.932ZM173.945 86.8945C174.048 87.8678 173.488 89.3278 172.517 90.6661C171.512 92.0932 170.173 93.047 168.709 93.3793C168.477 93.4205 168.243 93.4408 168.009 93.4401C165.275 93.4401 162.96 90.5931 162.783 88.9263C162.559 86.7728 165.247 85.1546 168.009 84.6436C170.791 84.1326 173.721 84.7531 173.945 86.8945V86.8945Z" fill="#EFF7F6"/>
</g>
<defs>
<clipPath id="clip0_83_32">
<rect width="224" height="292" fill="white"/>
</clipPath>
</defs>
</svg>
