<svg width="750" height="500" viewBox="0 0 750 500" fill="none" xmlns="http://www.w3.org/2000/svg">
<g clip-path="url(#clip0_95_141)">
<path d="M720.93 219.834C706.895 147.843 665.195 87.9388 614.418 68.7589C563.641 49.5789 505.699 72.6166 469.806 127.605C452.273 154.454 439.641 188.272 418.7 209.598C393.21 235.561 359.739 238.656 328.533 235.934C297.326 233.212 265.791 225.621 235.026 233.803C185.72 246.916 143.342 303.429 130.891 372.573C118.44 441.718 136.754 519.76 175.725 564.217L218.817 613.217C258.332 652.65 408.026 669.108 501.239 659.355C567.218 652.448 612.29 617.651 652.02 563.331C682.763 521.331 700.975 463.978 713.143 405.94C725.888 345.507 732.736 280.407 720.93 219.834Z" fill="#F5F5F5"/>
<path d="M675 455.83C675 455.97 537.61 456.09 368.18 456.09C198.75 456.09 61.36 456 61.36 455.83C61.36 455.66 198.72 455.57 368.22 455.57C537.72 455.57 675 455.69 675 455.83Z" fill="#263238"/>
<path d="M487.357 107.824L477.841 115.962L490.542 130.813L500.058 122.675L487.357 107.824Z" fill="#263238"/>
<path d="M495.58 106.67L476 123.49L462.27 107.49C467.67 99.91 474.11 94.19 481.82 90.67L495.58 106.67Z" fill="#455A64"/>
<path d="M479.3 120.67C479.19 120.77 475.88 117.13 471.9 112.56C467.92 107.99 464.78 104.21 464.9 104.11C465.02 104.01 468.32 107.65 472.3 112.22C476.28 116.79 479.41 120.58 479.3 120.67Z" fill="#263238"/>
<path d="M483 117.47C482.209 116.7 481.473 115.875 480.8 115C479.48 113.45 477.69 111.3 475.72 108.9L470.72 102.74L469.22 100.87C468.86 100.41 468.67 100.2 468.67 100.17C468.87 99.99 472.2 103.78 476.14 108.57C478.14 110.97 479.86 113.16 481.14 114.77C481.838 115.613 482.461 116.517 483 117.47V117.47Z" fill="#263238"/>
<path d="M488 113.2C487.197 112.433 486.451 111.607 485.77 110.73C484.44 109.16 482.64 106.97 480.66 104.54L475.66 98.28L474.16 96.37C473.966 96.1423 473.792 95.898 473.64 95.64C474.499 96.3498 475.271 97.1588 475.94 98.05C477.29 99.6 479.11 101.78 481.08 104.21C483.05 106.64 484.82 108.87 486.08 110.5C486.795 111.344 487.437 112.248 488 113.2V113.2Z" fill="#263238"/>
<path d="M492.51 109.2C492.4 109.29 489.11 105.62 485.16 101C481.21 96.38 478.11 92.55 478.22 92.45C478.33 92.35 481.61 96.03 485.56 100.66C489.51 105.29 492.62 109.11 492.51 109.2Z" fill="#263238"/>
<path d="M654.916 117.933L646.266 108.881L632.139 122.381L640.789 131.433L654.916 117.933Z" fill="#263238"/>
<path d="M655.33 126.84L637.51 108.19L652.74 93.64C660.58 98.64 666.64 104.77 670.55 112.29L655.33 126.84Z" fill="#455A64"/>
<path d="M640.49 111.32C640.39 111.21 643.84 107.71 648.2 103.5C652.56 99.29 656.2 95.96 656.27 96.06C656.34 96.16 652.92 99.66 648.56 103.88C644.2 108.1 640.59 111.42 640.49 111.32Z" fill="#263238"/>
<path d="M643.89 114.87C644.601 114.03 645.376 113.248 646.21 112.53C647.68 111.13 649.74 109.22 652.03 107.12L657.92 101.79L659.71 100.19C660.14 99.81 660.35 99.62 660.38 99.61C660.57 99.8 656.96 103.33 652.38 107.51C650.09 109.6 647.99 111.51 646.45 112.8C645.652 113.556 644.796 114.248 643.89 114.87V114.87Z" fill="#263238"/>
<path d="M648.41 119.6C649.13 118.752 649.915 117.963 650.76 117.24C652.25 115.83 654.34 113.91 656.67 111.81L662.67 106.47L664.5 104.87C664.723 104.671 664.957 104.484 665.2 104.31C664.539 105.207 663.773 106.023 662.92 106.74C661.44 108.17 659.35 110.1 657.03 112.2C654.71 114.3 652.57 116.2 651.03 117.52C650.211 118.28 649.335 118.975 648.41 119.6V119.6Z" fill="#263238"/>
<path d="M652.64 123.91C652.54 123.8 656.04 120.33 660.45 116.14C664.86 111.95 668.52 108.65 668.62 108.76C668.72 108.87 665.22 112.34 660.81 116.52C656.4 120.7 652.74 124 652.64 123.91Z" fill="#263238"/>
<path d="M575.08 74.72H560.26V97.85H575.08V74.72Z" fill="#263238"/>
<path d="M583 81.64H552.5V56.71C563.19 54.07 573.39 53.91 583.03 56.71L583 81.64Z" fill="#C0B6FF"/>
<path d="M583.39 56.81C583.033 57.0335 582.654 57.2211 582.26 57.37C581.216 57.8299 580.144 58.224 579.05 58.55C577.412 59.0546 575.741 59.4488 574.05 59.73C571.996 60.056 569.92 60.2298 567.84 60.25C565.761 60.2531 563.685 60.0993 561.63 59.79C559.94 59.5278 558.269 59.1503 556.63 58.66C555.535 58.3396 554.46 57.9557 553.41 57.51C553.013 57.3723 552.633 57.1877 552.28 56.96C552.28 56.87 553.96 57.56 556.73 58.3C558.356 58.7296 560.005 59.0635 561.67 59.3C563.705 59.5753 565.756 59.7156 567.81 59.72C569.865 59.6966 571.916 59.5363 573.95 59.24C575.608 59.0002 577.25 58.6664 578.87 58.24C581.71 57.43 583.35 56.72 583.39 56.81Z" fill="#263238"/>
<path d="M562.58 81.57C562.44 81.57 562.32 76.78 562.32 70.88C562.32 64.98 562.44 60.19 562.58 60.19C562.72 60.19 562.84 64.97 562.84 70.88C562.84 76.79 562.73 81.57 562.58 81.57Z" fill="#263238"/>
<path d="M568.39 81.71C568.25 81.71 568.13 76.9 568.13 70.97C568.13 65.04 568.25 60.24 568.39 60.24C568.53 60.24 568.65 65.04 568.65 70.97C568.65 76.9 568.54 81.71 568.39 81.71Z" fill="#263238"/>
<path d="M574.2 81.62C574.06 81.62 573.94 76.81 573.94 70.88C573.94 64.95 574.06 60.14 574.2 60.14C574.34 60.14 574.46 64.95 574.46 70.88C574.46 76.81 574.35 81.62 574.2 81.62Z" fill="#263238"/>
<path d="M579 81.62C578.85 81.62 578.74 76.42 578.74 70.01C578.74 63.6 578.85 58.4 579 58.4C579.15 58.4 579.26 63.6 579.26 70.01C579.26 76.42 579.18 81.62 579 81.62Z" fill="#263238"/>
<path d="M557.09 81.47C556.95 81.47 556.83 76.27 556.83 69.86C556.83 63.45 556.95 58.25 557.09 58.25C557.23 58.25 557.35 63.45 557.35 69.86C557.35 76.27 557.24 81.47 557.09 81.47Z" fill="#263238"/>
<path d="M642.127 274.772C684.237 232.661 684.237 164.387 642.127 122.277C600.017 80.1668 531.742 80.1668 489.632 122.277C447.522 164.387 447.522 232.661 489.632 274.772C531.742 316.882 600.017 316.882 642.127 274.772Z" fill="#C0B6FF"/>
<path d="M565.88 288.23C615.895 288.23 656.44 247.685 656.44 197.67C656.44 147.655 615.895 107.11 565.88 107.11C515.865 107.11 475.32 147.655 475.32 197.67C475.32 247.685 515.865 288.23 565.88 288.23Z" fill="#FAFAFA"/>
<path d="M656.44 197.67C656.44 197.67 656.44 197.18 656.37 196.21C656.3 195.24 656.37 193.79 656.18 191.9C655.823 186.386 654.959 180.916 653.6 175.56C652.62 171.694 651.381 167.899 649.89 164.2C648.138 159.79 646.031 155.529 643.59 151.46C637.618 141.519 629.813 132.801 620.59 125.77C609.396 117.254 596.366 111.473 582.54 108.89C570.821 106.734 558.796 106.873 547.13 109.3C543.033 110.189 538.998 111.342 535.05 112.75C518.248 118.87 503.634 129.827 493.05 144.24C490.288 147.993 487.827 151.959 485.69 156.1C484.58 158.17 483.63 160.32 482.69 162.48C481.75 164.64 480.91 166.88 480.2 169.16C478.665 173.723 477.515 178.406 476.76 183.16C476.001 187.967 475.603 192.824 475.57 197.69C475.605 202.559 476 207.419 476.75 212.23C477.516 216.982 478.666 221.664 480.19 226.23C480.91 228.5 481.81 230.7 482.68 232.9C483.55 235.1 484.6 237.22 485.68 239.29C487.817 243.433 490.281 247.399 493.05 251.15C503.632 265.568 518.246 276.528 535.05 282.65C538.998 284.058 543.033 285.211 547.13 286.1C551.124 286.935 555.17 287.499 559.24 287.79C567.029 288.379 574.862 287.948 582.54 286.51C596.366 283.927 609.396 278.146 620.59 269.63C629.816 262.602 637.621 253.884 643.59 243.94C646.029 239.87 648.136 235.609 649.89 231.2C653.442 222.358 655.565 213.008 656.18 203.5C656.35 201.61 656.32 200.16 656.37 199.19C656.42 198.22 656.44 197.72 656.44 197.72C656.44 197.72 656.44 198.22 656.44 199.19C656.44 200.16 656.44 201.61 656.3 203.5C655.753 213.035 653.669 222.419 650.13 231.29C648.388 235.72 646.288 240.001 643.85 244.09C637.892 254.082 630.086 262.848 620.85 269.92C609.617 278.488 596.535 284.31 582.65 286.92C574.937 288.377 567.067 288.821 559.24 288.24C555.15 287.95 551.084 287.385 547.07 286.55C542.949 285.663 538.89 284.508 534.92 283.09C518.019 276.946 503.317 265.933 492.67 251.44C489.891 247.669 487.417 243.683 485.27 239.52C484.15 237.44 483.19 235.26 482.21 233.09C481.23 230.92 480.43 228.67 479.71 226.38C478.176 221.795 477.019 217.093 476.25 212.32C474.663 202.638 474.663 192.762 476.25 183.08C477.023 178.327 478.18 173.645 479.71 169.08C480.44 166.79 481.34 164.58 482.22 162.37C483.1 160.16 484.15 158.03 485.27 155.95C487.424 151.789 489.901 147.803 492.68 144.03C503.322 129.539 518.021 118.528 534.92 112.39C538.887 110.974 542.942 109.818 547.06 108.93C551.078 108.095 555.147 107.531 559.24 107.24C567.064 106.659 574.931 107.103 582.64 108.56C596.528 111.159 609.613 116.982 620.84 125.56C630.076 132.637 637.881 141.406 643.84 151.4C648.319 158.944 651.687 167.095 653.84 175.6C655.174 180.975 656.008 186.462 656.33 191.99C656.48 193.88 656.43 195.33 656.47 196.3C656.51 197.27 656.44 197.67 656.44 197.67Z" fill="#263238"/>
<path d="M643.15 194.39C640.28 194.51 637.94 194.39 637.93 194.14C637.92 193.89 640.23 193.55 643.1 193.39C645.97 193.23 648.31 193.33 648.33 193.63C648.35 193.93 646 194.27 643.15 194.39Z" fill="#263238"/>
<path d="M641.22 215.24C638.42 214.58 636.22 213.85 636.22 213.6C636.22 213.35 638.6 213.65 641.41 214.26C644.22 214.87 646.41 215.61 646.41 215.9C646.41 216.19 644 215.89 641.22 215.24Z" fill="#263238"/>
<path d="M633.75 234.79C631.22 233.41 629.28 232.1 629.4 231.88C629.52 231.66 631.68 232.57 634.22 233.88C636.76 235.19 638.71 236.54 638.57 236.8C638.43 237.06 636.27 236.18 633.75 234.79Z" fill="#263238"/>
<path d="M621.3 251.63C619.24 249.63 617.71 247.85 617.89 247.63C618.07 247.41 619.89 248.9 621.99 250.88C624.09 252.86 625.6 254.63 625.4 254.88C625.2 255.13 623.35 253.64 621.3 251.63Z" fill="#263238"/>
<path d="M604.8 264.53C603.36 262.04 602.36 259.92 602.58 259.79C602.8 259.66 604.18 261.56 605.66 264.02C607.14 266.48 608.14 268.6 607.89 268.76C607.64 268.92 606.25 267 604.8 264.53Z" fill="#263238"/>
<path d="M585.45 272.52C584.73 269.73 584.34 267.42 584.59 267.36C584.84 267.3 585.65 269.49 586.42 272.26C587.19 275.03 587.57 277.34 587.28 277.42C586.99 277.5 586.17 275.3 585.45 272.52Z" fill="#263238"/>
<path d="M564.66 275C564.66 272.12 564.95 269.79 565.2 269.79C565.45 269.79 565.66 272.13 565.66 275C565.66 277.87 565.41 280.21 565.12 280.21C564.83 280.21 564.61 277.89 564.66 275Z" fill="#263238"/>
<path d="M544 271.87C544.82 269.11 545.68 266.94 545.93 267.01C546.18 267.08 545.74 269.38 544.93 272.15C544.12 274.92 543.29 277.15 543 277.01C542.71 276.87 543.13 274.63 544 271.87Z" fill="#263238"/>
<path d="M524.87 263.26C526.4 260.83 527.81 258.96 528.03 259.09C528.25 259.22 527.21 261.33 525.72 263.79C524.23 266.25 522.81 268.11 522.56 267.96C522.31 267.81 523.34 265.7 524.87 263.26Z" fill="#263238"/>
<path d="M508.78 249.86C510.91 247.92 512.78 246.5 512.94 246.69C513.1 246.88 511.56 248.62 509.46 250.59C507.36 252.56 505.51 253.98 505.3 253.77C505.09 253.56 506.66 251.8 508.78 249.86Z" fill="#263238"/>
<path d="M496.86 232.64C499.43 231.35 501.61 230.48 501.72 230.7C501.83 230.92 499.87 232.19 497.32 233.53C494.77 234.87 492.6 235.74 492.46 235.47C492.32 235.2 494.3 233.94 496.86 232.64Z" fill="#263238"/>
<path d="M490 212.86C492.83 212.3 495.16 212.05 495.21 212.3C495.26 212.55 493.02 213.24 490.21 213.84C487.4 214.44 485.06 214.69 485 214.4C484.94 214.11 487.2 213.42 490 212.86Z" fill="#263238"/>
<path d="M488.73 192C491.6 192.21 493.91 192.59 493.9 192.84C493.89 193.09 491.54 193.16 488.67 192.99C485.8 192.82 483.48 192.45 483.5 192.15C483.52 191.85 485.86 191.74 488.73 192Z" fill="#263238"/>
<path d="M493.08 171.47C495.79 172.47 497.91 173.47 497.83 173.68C497.75 173.89 495.47 173.35 492.75 172.41C490.03 171.47 487.91 170.49 488 170.21C488.09 169.93 490.38 170.49 493.08 171.47Z" fill="#263238"/>
<path d="M502.79 152.92C505.13 154.59 506.91 156.11 506.79 156.32C506.67 156.53 504.61 155.37 502.24 153.74C499.87 152.11 498.09 150.59 498.24 150.34C498.39 150.09 500.44 151.25 502.79 152.92Z" fill="#263238"/>
<path d="M517.1 137.64C518.91 139.87 520.22 141.81 520.03 141.98C519.84 142.15 518.17 140.48 516.33 138.27C514.49 136.06 513.17 134.13 513.4 133.94C513.63 133.75 515.29 135.41 517.1 137.64Z" fill="#263238"/>
<path d="M535 126.74C536.14 129.38 536.89 131.6 536.65 131.74C536.41 131.88 535.27 129.8 534.09 127.18C532.91 124.56 532.16 122.34 532.43 122.18C532.7 122.02 533.83 124.11 535 126.74Z" fill="#263238"/>
<path d="M555.14 121.07C555.53 123.92 555.65 126.26 555.39 126.3C555.13 126.34 554.58 124.06 554.15 121.22C553.72 118.38 553.6 116.03 553.89 115.99C554.18 115.95 554.75 118.22 555.14 121.07Z" fill="#263238"/>
<path d="M576.08 121C575.7 123.85 575.19 126.14 574.94 126.11C574.69 126.08 574.75 123.73 575.09 120.88C575.43 118.03 575.94 115.73 576.23 115.77C576.52 115.81 576.46 118.14 576.08 121Z" fill="#263238"/>
<path d="M596.27 126.53C595.14 129.18 594.03 131.24 593.79 131.14C593.55 131.04 594.26 128.81 595.35 126.14C596.44 123.47 597.56 121.42 597.83 121.54C598.1 121.66 597.41 123.89 596.27 126.53Z" fill="#263238"/>
<path d="M614.23 137.3C612.43 139.55 610.81 141.24 610.61 141.08C610.41 140.92 611.68 138.95 613.45 136.68C615.22 134.41 616.83 132.68 617.07 132.91C617.31 133.14 616 135.06 614.23 137.3Z" fill="#263238"/>
<path d="M628.66 152.48C626.32 154.16 624.31 155.36 624.16 155.15C624.01 154.94 625.76 153.39 628.07 151.67C630.38 149.95 632.39 148.76 632.57 149C632.75 149.24 631 150.8 628.66 152.48Z" fill="#263238"/>
<path d="M638.49 171C635.79 172 633.49 172.59 633.43 172.36C633.37 172.13 635.43 171.09 638.14 170.06C640.85 169.03 643.08 168.42 643.19 168.7C643.3 168.98 641.19 170 638.49 171Z" fill="#263238"/>
<path d="M643 191.42C640.13 191.65 637.79 191.63 637.77 191.42C637.75 191.21 640.05 190.75 642.91 190.42C645.77 190.09 648.12 190.17 648.14 190.47C648.16 190.77 645.84 191.19 643 191.42Z" fill="#263238"/>
<path d="M530.71 99.7L530.4 99.84L529.48 100.21C528.68 100.55 527.48 100.96 525.95 101.63C521.639 103.432 517.453 105.52 513.42 107.88C510.86 109.36 508.15 111.13 505.3 113.12C502.45 115.11 499.54 117.43 496.63 120.04C483.854 131.301 474.095 145.577 468.24 161.57C466.87 165.23 465.84 168.81 464.95 172.16C464.06 175.51 463.46 178.71 463.01 181.63C462.28 186.244 461.855 190.9 461.74 195.57C461.66 197.23 461.74 198.51 461.74 199.38C461.74 199.8 461.74 200.12 461.74 200.38C461.749 200.493 461.749 200.607 461.74 200.72C461.727 200.61 461.727 200.5 461.74 200.39C461.74 200.14 461.74 199.81 461.74 199.39C461.74 198.52 461.63 197.24 461.68 195.58C461.716 190.893 462.087 186.214 462.79 181.58C463.21 178.64 463.86 175.45 464.67 172.06C465.574 168.457 466.662 164.902 467.93 161.41C473.756 145.31 483.572 130.952 496.46 119.68C499.39 117.07 502.37 114.82 505.19 112.77C508.01 110.72 510.79 109.02 513.38 107.56C517.44 105.225 521.661 103.179 526.01 101.44C527.54 100.8 528.77 100.44 529.59 100.11L530.53 99.79C530.588 99.7556 530.648 99.7255 530.71 99.7V99.7Z" fill="white"/>
<path d="M560.81 93.86C559.782 94.0736 558.739 94.2106 557.69 94.27C555.75 94.47 553.09 94.76 550.15 95.14C547.21 95.52 544.56 95.92 542.64 96.22C541.612 96.4315 540.569 96.5652 539.52 96.62C540.515 96.2734 541.539 96.0189 542.58 95.86C544.49 95.47 547.14 95.01 550.08 94.63C553.02 94.25 555.71 94.01 557.66 93.9C558.706 93.7881 559.761 93.7748 560.81 93.86Z" fill="white"/>
<g opacity="0.4">
<path opacity="0.4" d="M493.5 252.11C493.5 252.11 540.43 326.17 613.23 288.24C689.23 248.64 647.23 157.87 647.23 157.87C647.23 157.87 682.99 230.21 608.91 277.37C590.46 289.12 570.37 289.13 555.05 287.59C515.9 283.67 493.5 252.11 493.5 252.11Z" fill="black"/>
</g>
<path d="M591.12 149.54C591.57 162.822 591.17 176.119 589.92 189.35C589.46 194.14 588.92 198.98 587.07 203.43C585.22 207.88 582.07 211.96 577.63 213.84C573.19 215.72 567.51 214.94 564.42 211.26L591.12 149.54Z" fill="#E0E0E0"/>
<path d="M563.91 190.53L596.82 135.11L576.96 197.68L566.81 200.71L563.91 190.53Z" fill="#C0B6FF"/>
<g opacity="0.4">
<path opacity="0.4" d="M596.82 135.11L572.41 191.74L576.96 197.68L596.82 135.11Z" fill="black"/>
</g>
<path d="M566.81 211.3C572.659 211.3 577.4 206.559 577.4 200.71C577.4 194.861 572.659 190.12 566.81 190.12C560.961 190.12 556.22 194.861 556.22 200.71C556.22 206.559 560.961 211.3 566.81 211.3Z" fill="#FAFAFA"/>
<path d="M577.4 200.71C577.305 199.849 577.161 198.995 576.97 198.15C576.357 195.869 574.998 193.859 573.11 192.44C571.723 191.396 570.097 190.717 568.379 190.464C566.662 190.21 564.909 190.391 563.28 190.99C562.342 191.322 561.462 191.798 560.67 192.4C559.827 193.011 559.087 193.754 558.48 194.6C557.18 196.372 556.479 198.512 556.479 200.71C556.479 202.908 557.18 205.048 558.48 206.82C559.694 208.467 561.362 209.725 563.28 210.44C564.648 210.942 566.107 211.152 567.561 211.057C569.016 210.963 570.434 210.565 571.726 209.89C573.018 209.215 574.154 208.277 575.062 207.137C575.971 205.997 576.631 204.68 577 203.27C577.193 202.426 577.337 201.571 577.43 200.71C577.492 201.587 577.414 202.468 577.2 203.32C576.653 205.704 575.296 207.825 573.36 209.32C572.032 210.351 570.48 211.053 568.83 211.37C566.931 211.733 564.97 211.581 563.15 210.93C562.161 210.589 561.233 210.092 560.4 209.46C559.516 208.821 558.739 208.044 558.1 207.16C556.723 205.306 555.98 203.059 555.98 200.75C555.98 198.441 556.723 196.194 558.1 194.34C558.742 193.458 559.518 192.682 560.4 192.04C561.237 191.416 562.164 190.924 563.15 190.58C564.969 189.924 566.932 189.772 568.83 190.14C570.846 190.528 572.709 191.488 574.193 192.907C575.678 194.326 576.722 196.143 577.2 198.14C577.4 198.981 577.467 199.848 577.4 200.71V200.71Z" fill="#263238"/>
<path d="M574.568 202.298C575.431 198.032 572.672 193.875 568.406 193.012C564.14 192.15 559.983 194.909 559.121 199.174C558.258 203.44 561.017 207.597 565.283 208.46C569.549 209.322 573.706 206.563 574.568 202.298Z" fill="#455A64"/>
<path d="M483.32 454.89H535.42L511.13 245.55L483.32 454.89Z" fill="#E0E0E0"/>
<path d="M226.96 245.55L193.04 457.36L482.49 461.13L511.13 245.55H226.96Z" fill="#FAFAFA"/>
<path d="M498.24 342.58H211.42L217.66 303.58H503.42L498.24 342.58Z" fill="#EBEBEB"/>
<path d="M498.26 342.61H211.39L217.64 303.61H503.45L498.26 342.61ZM211.45 342.56H498.22L503.39 303.56H217.69L211.45 342.56Z" fill="#263238"/>
<path d="M226.96 245.55L217.66 303.58H503.42L511.13 245.55H226.96Z" fill="#C0B6FF"/>
<path d="M227 245.55L511.17 245.31H511.44V245.58C503.07 308.69 493.57 380.26 483.53 455.85V456.08H480.05L193.28 456H193V455.75L227 245.55C226.72 247.29 213.8 328.5 193.53 455.85L193.32 455.6H479.98H483.23L482.98 455.82C493.03 380.23 502.55 308.67 510.98 245.56L511.21 245.82L227 245.55Z" fill="#263238"/>
<path d="M503.42 303.58C503.42 303.72 439.42 303.84 360.55 303.84C281.68 303.84 217.66 303.72 217.66 303.58C217.66 303.44 281.66 303.32 360.55 303.32C439.44 303.32 503.42 303.43 503.42 303.58Z" fill="#263238"/>
<path d="M498.24 342.58C498.24 342.73 433.9 342.84 354.56 342.84C275.22 342.84 210.87 342.73 210.87 342.58C210.87 342.43 275.19 342.32 354.56 342.32C433.93 342.32 498.24 342.44 498.24 342.58Z" fill="#263238"/>
<path d="M492.4 378.47C492.4 378.62 428.07 378.73 348.73 378.73C269.39 378.73 205 378.62 205 378.47C205 378.32 269.32 378.21 348.69 378.21C428.06 378.21 492.4 378.33 492.4 378.47Z" fill="#263238"/>
<path d="M486.57 414.36C486.57 414.5 422.23 414.62 342.89 414.62C263.55 414.62 199.2 414.5 199.2 414.36C199.2 414.22 263.52 414.1 342.89 414.1C422.26 414.1 486.57 414.22 486.57 414.36Z" fill="#263238"/>
<path d="M233.67 456.14C233.53 456.14 238.78 421.94 245.41 379.82C252.04 337.7 257.51 303.55 257.65 303.58C257.79 303.61 252.54 337.76 245.92 379.9C239.3 422.04 233.82 456.16 233.67 456.14Z" fill="#263238"/>
<path d="M277.9 456.14C277.75 456.14 283.01 421.94 289.63 379.82C296.25 337.7 301.73 303.55 301.88 303.58C302.03 303.61 296.77 337.76 290.14 379.9C283.51 422.04 278 456.16 277.9 456.14Z" fill="#263238"/>
<path d="M319 454.61C318.86 454.61 324.06 420.76 330.61 379.06C337.16 337.36 342.61 303.55 342.74 303.58C342.87 303.61 337.68 337.42 331.13 379.14C324.58 420.86 319.13 454.63 319 454.61Z" fill="#263238"/>
<path d="M359.65 455.82C359.51 455.82 364.75 421.69 371.36 379.66C377.97 337.63 383.44 303.55 383.58 303.58C383.72 303.61 378.48 337.69 371.87 379.74C365.26 421.79 359.79 455.84 359.65 455.82Z" fill="#263238"/>
<path d="M400.5 455.82C400.36 455.82 405.6 421.69 412.21 379.66C418.82 337.63 424.29 303.55 424.43 303.58C424.57 303.61 419.34 337.69 412.73 379.74C406.12 421.79 400.65 455.84 400.5 455.82Z" fill="#263238"/>
<path d="M441.32 456C441.18 456 446.43 421.83 453.05 379.73C459.67 337.63 465.14 303.51 465.29 303.54C465.44 303.57 460.18 337.7 453.56 379.81C446.94 421.92 441.46 456.06 441.32 456Z" fill="#263238"/>
<g opacity="0.2">
<path opacity="0.2" d="M415.62 306.3C420.54 304.12 423.62 299 424.89 293.77C426.16 288.54 425.96 283.08 426.15 277.69C426.34 272.3 426.98 266.75 429.73 262.12C431.36 259.39 433.65 257.12 435.46 254.49C437.27 251.86 438.61 248.66 437.94 245.49L407.16 245.65L415.62 306.3Z" fill="black"/>
</g>
<path d="M288 345.47C287.918 345.604 287.817 345.725 287.7 345.83L286.78 346.83C285.97 347.66 284.78 348.83 283.28 350.29C280.28 353.17 276.11 357.09 271.36 361.29C266.61 365.49 262.21 369.15 258.98 371.75C257.36 373.05 256.04 374.09 255.12 374.75L254.05 375.55C253.931 375.654 253.796 375.739 253.65 375.8C253.65 375.8 253.76 375.67 253.98 375.47L254.98 374.59L258.73 371.42C261.91 368.75 266.27 365.04 271.01 360.86C275.75 356.68 280.01 352.8 283.01 349.99L286.62 346.66L287.62 345.77C287.734 345.654 287.861 345.554 288 345.47V345.47Z" fill="#263238"/>
<path d="M285.69 376.2C285.265 375.829 284.867 375.428 284.5 375L281.37 371.66C278.67 368.79 275.05 364.93 271.06 360.66L260.64 349.76L257.48 346.45C257.081 346.056 256.71 345.635 256.37 345.19C256.823 345.525 257.245 345.899 257.63 346.31C258.41 347.05 259.53 348.14 260.9 349.5C263.64 352.22 267.38 356.03 271.43 360.31C275.48 364.59 279.08 368.53 281.64 371.42C282.92 372.86 283.95 374.04 284.64 374.86C285.03 375.273 285.382 375.722 285.69 376.2V376.2Z" fill="#263238"/>
<path d="M296.37 354.66C296.37 354.66 296.47 354.4 296.68 353.89C297.012 353.15 297.413 352.443 297.88 351.78C299.719 349.211 302.312 347.278 305.3 346.25C307.44 345.476 309.723 345.176 311.99 345.37C314.69 345.632 317.292 346.519 319.59 347.96C322.243 349.595 324.485 351.819 326.14 354.46C328.055 357.408 329.009 360.877 328.87 364.39C328.755 366.285 328.167 368.121 327.16 369.73C326.104 371.399 324.699 372.818 323.04 373.89C319.508 376.155 315.349 377.244 311.16 377C308.966 376.882 306.805 376.413 304.76 375.61C302.632 374.779 300.718 373.48 299.16 371.81C298.386 370.931 297.733 369.953 297.22 368.9C296.731 367.825 296.394 366.688 296.22 365.52C295.888 363.128 296.096 360.691 296.83 358.39C298.359 353.591 301.674 349.563 306.09 347.14C308.379 345.883 310.926 345.167 313.535 345.047C316.144 344.927 318.745 345.407 321.14 346.45C323.621 347.495 325.793 349.158 327.45 351.28C329.109 353.459 330.146 356.048 330.45 358.77C330.796 361.531 330.349 364.334 329.16 366.85C328.549 368.113 327.746 369.273 326.78 370.29C325.796 371.292 324.687 372.163 323.48 372.88C321.045 374.221 318.359 375.046 315.591 375.305C312.823 375.563 310.031 375.248 307.39 374.38C304.789 373.581 302.398 372.215 300.39 370.38C298.398 368.543 297.037 366.125 296.5 363.47C295.936 360.86 296.308 358.134 297.55 355.77C298.18 354.605 299.045 353.583 300.09 352.77C301.119 351.993 302.267 351.389 303.49 350.98C305.891 350.21 308.41 349.871 310.93 349.98C313.383 349.998 315.823 350.334 318.19 350.98C320.53 351.595 322.691 352.753 324.5 354.36C326.233 355.977 327.415 358.096 327.88 360.42C328.339 362.666 328.205 364.992 327.49 367.17C326.782 369.27 325.586 371.172 324 372.72C320.988 375.665 316.998 377.402 312.79 377.6C310.82 377.704 308.849 377.419 306.99 376.76C305.205 376.12 303.6 375.06 302.31 373.67C301.089 372.344 300.165 370.772 299.6 369.06C299.043 367.454 298.795 365.758 298.87 364.06C299.013 360.916 300.267 357.925 302.41 355.62C304.242 353.615 306.56 352.117 309.14 351.27C311.306 350.564 313.6 350.346 315.86 350.63C318.983 351.018 321.951 352.214 324.47 354.1C325.124 354.581 325.743 355.109 326.32 355.68C326.71 356.07 326.9 356.28 326.9 356.28C326.9 356.28 326.68 356.09 326.29 355.72C325.696 355.168 325.068 354.654 324.41 354.18C321.886 352.35 318.936 351.197 315.84 350.83C313.399 350.547 310.925 350.854 308.627 351.724C306.329 352.594 304.272 354.002 302.63 355.83C300.543 358.085 299.327 361.01 299.2 364.08C299.132 365.745 299.38 367.407 299.93 368.98C300.487 370.641 301.391 372.164 302.58 373.45C303.833 374.797 305.39 375.825 307.12 376.45C308.934 377.08 310.853 377.352 312.77 377.25C316.877 377.047 320.767 375.343 323.7 372.46C325.232 370.962 326.387 369.121 327.07 367.09C327.754 364.985 327.878 362.738 327.43 360.57C326.98 358.339 325.843 356.304 324.18 354.75C322.42 353.203 320.325 352.087 318.06 351.49C315.733 350.853 313.333 350.517 310.92 350.49C308.46 350.397 306.003 350.736 303.66 351.49C301.27 352.222 299.247 353.834 298 356C296.816 358.261 296.462 360.865 297 363.36C297.518 365.911 298.831 368.232 300.75 369.99C302.696 371.788 305.019 373.127 307.55 373.91C310.12 374.756 312.838 375.063 315.532 374.811C318.226 374.56 320.84 373.756 323.21 372.45C324.38 371.763 325.453 370.922 326.4 369.95C327.328 368.974 328.101 367.861 328.69 366.65C329.841 364.222 330.274 361.516 329.94 358.85C329.654 356.222 328.662 353.72 327.07 351.61C325.468 349.559 323.368 347.951 320.97 346.94C318.647 345.925 316.121 345.456 313.588 345.571C311.055 345.685 308.582 346.38 306.36 347.6C302.069 349.963 298.847 353.882 297.36 358.55C296.647 360.783 296.439 363.147 296.75 365.47C296.93 366.598 297.266 367.695 297.75 368.73C298.245 369.741 298.87 370.682 299.61 371.53C301.118 373.147 302.97 374.405 305.03 375.21C307.03 376.001 309.143 376.467 311.29 376.59C315.389 376.841 319.463 375.791 322.93 373.59C324.532 372.609 325.882 371.265 326.87 369.668C327.859 368.07 328.458 366.262 328.62 364.39C328.76 360.954 327.834 357.559 325.97 354.67C324.352 352.062 322.155 349.862 319.55 348.24C317.293 346.812 314.737 345.925 312.08 345.65C309.846 345.438 307.594 345.718 305.48 346.47C302.519 347.471 299.936 349.356 298.08 351.87C297.601 352.522 297.186 353.219 296.84 353.95C296.5 354.41 296.37 354.66 296.37 354.66Z" fill="#C0B6FF"/>
<path d="M323.46 382.27C323.55 382.38 315.62 389.16 305.74 397.42C295.86 405.68 287.74 412.27 287.68 412.16C287.62 412.05 295.52 405.27 305.4 397.02C315.28 388.77 323.37 382.16 323.46 382.27Z" fill="#263238"/>
<path d="M325.19 411.27C324.719 410.993 324.274 410.675 323.86 410.32L320.34 407.58C317.39 405.24 313.34 401.98 308.88 398.36C304.42 394.74 300.41 391.44 297.52 389.03L294.11 386.15C293.678 385.82 293.276 385.452 292.91 385.05C293.379 385.33 293.823 385.648 294.24 386L297.75 388.74C300.7 391.08 304.75 394.34 309.21 397.96C313.67 401.58 317.68 404.88 320.58 407.29L323.98 410.16C324.41 410.5 324.814 410.871 325.19 411.27V411.27Z" fill="#263238"/>
<path d="M406.94 382.66C407.02 382.77 399.44 388.58 389.99 395.66C380.54 402.74 372.82 408.33 372.73 408.21C372.64 408.09 380.23 402.29 389.68 395.21C399.13 388.13 406.85 382.54 406.94 382.66Z" fill="#263238"/>
<path d="M409.88 407.26C409.81 407.38 401.75 402.39 391.88 396.1C382.01 389.81 374.1 384.63 374.17 384.5C374.24 384.37 382.3 389.38 392.17 395.66C402.04 401.94 410 407.14 409.88 407.26Z" fill="#263238"/>
<path d="M324.76 455.83C324.65 455.73 332.53 447.47 342.35 437.4C352.17 427.33 360.22 419.22 360.35 419.32C360.48 419.42 352.58 427.68 342.76 437.76C332.94 447.84 324.86 455.93 324.76 455.83Z" fill="#C0B6FF"/>
<path d="M358.07 455.82C358.07 455.82 357.94 455.71 357.74 455.47L356.9 454.47C356.12 453.47 355.08 452.18 353.81 450.6C351.2 447.34 347.5 442.91 343.21 438.2C338.92 433.49 334.85 429.4 331.85 426.5L328.29 423L327.29 422.06C327.174 421.955 327.071 421.837 326.98 421.71C326.98 421.71 327.13 421.79 327.36 421.98L328.36 422.85C329.25 423.61 330.51 424.74 332.05 426.16C335.11 429 339.23 433.06 343.54 437.78C347.85 442.5 351.54 446.98 354.04 450.3C355.32 451.96 356.33 453.3 357.04 454.3L357.81 455.4C357.914 455.529 358.001 455.67 358.07 455.82Z" fill="#C0B6FF"/>
<path d="M276.21 413.76C276.21 413.76 276.53 438.33 270.33 453.04L232.54 446.6C232.54 446.6 243.92 423.32 240.82 410.38L276.21 413.76Z" fill="#EBEBEB"/>
<path d="M276.2 412.84C276.2 412.84 271.46 443 268.56 452L231 444.54C231 444.54 238.73 415.38 238.63 407.26L276.2 412.84Z" fill="#C0B6FF"/>
<path d="M242.44 420.78C242.44 420.92 248.02 422.22 254.97 423.68C261.92 425.14 267.57 426.21 267.6 426.08C267.63 425.95 262.02 424.64 255.07 423.18C248.12 421.72 242.47 420.64 242.44 420.78Z" fill="white"/>
<path d="M241.48 427.17C241.48 427.31 247.06 428.6 254.01 430.07C260.96 431.54 266.61 432.6 266.64 432.47C266.67 432.34 261.06 431.03 254.11 429.57C247.16 428.11 241.51 427 241.48 427.17Z" fill="white"/>
<path d="M247 434.4C247.641 434.678 248.312 434.88 249 435C250.29 435.31 252.08 435.72 254.05 436.14C256.02 436.56 257.83 436.9 259.14 437.14C259.84 437.316 260.559 437.403 261.28 437.4C260.615 437.12 259.921 436.915 259.21 436.79C257.93 436.47 256.14 436.06 254.16 435.65C252.18 435.24 250.38 434.88 249.08 434.65C248.399 434.483 247.701 434.399 247 434.4V434.4Z" fill="white"/>
<path d="M455 344.77C455 344.77 458.87 368.71 454.95 383.98L417.11 383.17C417.11 383.17 424.85 358.79 419.94 346.6L455 344.77Z" fill="#EBEBEB"/>
<path d="M454.83 343.87C454.83 343.87 454.58 373.98 453.05 383.17L415.28 381.38C415.28 381.38 418.59 351.78 417.28 343.87H454.83Z" fill="#455A64"/>
<path d="M422.64 357.27C422.64 357.41 428.32 357.53 435.33 357.54C442.34 357.55 448.03 357.45 448.03 357.31C448.03 357.17 442.35 357.05 435.33 357.04C428.31 357.03 422.64 357.13 422.64 357.27Z" fill="white"/>
<path d="M423 363.64C423 363.78 428.68 363.9 435.69 363.91C442.7 363.92 448.39 363.82 448.39 363.68C448.39 363.54 442.71 363.42 435.69 363.41C428.67 363.4 423 363.5 423 363.64Z" fill="white"/>
<path d="M429.77 369.51C430.466 369.659 431.178 369.723 431.89 369.7C433.2 369.7 435.01 369.77 437.01 369.78C439.01 369.79 440.81 369.78 442.12 369.71C442.831 369.739 443.543 369.681 444.24 369.54C443.544 369.391 442.831 369.331 442.12 369.36C440.81 369.31 439.01 369.28 437.01 369.27C435.01 369.26 433.2 369.27 431.89 369.34C431.179 369.311 430.467 369.369 429.77 369.51V369.51Z" fill="white"/>
<path d="M463 275.74C455.94 275.74 448.83 271.31 445.09 264.34C441.454 257.399 440.327 249.416 441.9 241.74C443.97 231.74 450.59 223.54 458.77 220.92C465.72 218.69 478.14 219.92 484 229.73C486.792 234.527 488.178 240.013 488 245.56C487.974 245.954 487.87 246.339 487.695 246.693C487.52 247.047 487.277 247.363 486.98 247.623C486.683 247.883 486.337 248.082 485.963 248.208C485.589 248.335 485.194 248.386 484.8 248.36C484.004 248.307 483.262 247.94 482.737 247.34C482.212 246.74 481.947 245.956 482 245.16C482.054 240.829 480.942 236.563 478.78 232.81C474.26 225.26 464.35 225.41 460.53 226.63C453.53 228.87 449.05 236.44 447.7 242.95C446.404 249.253 447.326 255.809 450.31 261.51C453.26 267.01 459.23 270.43 464.52 269.62C465.301 269.511 466.093 269.714 466.725 270.185C467.358 270.656 467.779 271.357 467.899 272.136C468.018 272.916 467.826 273.711 467.364 274.349C466.902 274.988 466.207 275.42 465.43 275.55C464.626 275.675 463.814 275.738 463 275.74V275.74Z" fill="#263238"/>
<path d="M269.32 275.74C262.25 275.74 255.15 271.31 251.41 264.34C247.771 257.4 246.641 249.417 248.21 241.74C249.96 233.3 255.88 223.58 265.21 220.9C269.708 219.682 274.478 219.923 278.83 221.59L276.67 227.19C273.538 226 270.112 225.814 266.87 226.66C259.99 228.66 255.51 236.28 254.13 242.95C252.834 249.253 253.756 255.809 256.74 261.51C259.69 267.02 265.67 270.43 270.95 269.62L271.86 275.55C271.02 275.68 270.17 275.743 269.32 275.74V275.74Z" fill="#263238"/>
<path d="M460.53 245.71L457.77 260.82H498.38L501.99 245.86L460.53 245.71Z" fill="#C0B6FF"/>
<path d="M279.61 273.35C279.612 274.629 279.234 275.879 278.525 276.943C277.816 278.007 276.808 278.836 275.627 279.326C274.446 279.817 273.146 279.945 271.892 279.696C270.638 279.447 269.486 278.832 268.582 277.928C267.678 277.024 267.063 275.872 266.814 274.618C266.565 273.364 266.693 272.064 267.184 270.883C267.674 269.702 268.503 268.694 269.567 267.985C270.631 267.275 271.881 266.898 273.16 266.9C274.87 266.903 276.509 267.583 277.718 268.792C278.927 270.001 279.607 271.64 279.61 273.35Z" fill="#263238"/>
<path d="M473.12 273.35C473.122 274.629 472.744 275.879 472.035 276.943C471.326 278.007 470.318 278.836 469.137 279.326C467.956 279.817 466.656 279.945 465.402 279.696C464.148 279.447 462.996 278.832 462.092 277.928C461.188 277.024 460.573 275.872 460.324 274.618C460.075 273.364 460.203 272.064 460.694 270.883C461.184 269.702 462.013 268.694 463.077 267.985C464.141 267.275 465.391 266.898 466.67 266.9C468.38 266.903 470.019 267.583 471.228 268.792C472.437 270.001 473.117 271.64 473.12 273.35V273.35Z" fill="#263238"/>
<path d="M366.55 148.32L355.93 188.6L319.27 192.54V199.04L370.78 200.85L380.46 155.66L366.55 148.32Z" fill="#FFBE9D"/>
<path d="M382 201.92C382 201.92 324.72 199.19 308.41 211.92C292.1 224.65 300 245.55 300 245.55L392.18 245.31L400.32 198.58L382 201.92Z" fill="#263238"/>
<path d="M391.75 232.75C391.472 232.757 391.194 232.737 390.92 232.69C390.38 232.63 389.59 232.55 388.57 232.42C386.57 232.17 383.57 231.75 379.97 231.14C370.518 229.532 361.169 227.372 351.97 224.67C346.59 223.08 341.5 221.48 336.8 220.31C332.651 219.236 328.408 218.566 324.13 218.31C321.244 218.148 318.348 218.316 315.5 218.81C314.5 218.93 313.73 219.19 313.19 219.28C312.923 219.346 312.653 219.396 312.38 219.43C312.634 219.321 312.899 219.237 313.17 219.18C313.922 218.946 314.686 218.755 315.46 218.61C318.315 218.033 321.23 217.808 324.14 217.94C328.48 218.147 332.788 218.787 337 219.85C341.73 220.99 346.83 222.59 352.19 224.18C361.339 226.859 370.622 229.059 380 230.77C383.61 231.43 386.54 231.9 388.57 232.22L390.91 232.59C391.194 232.62 391.475 232.673 391.75 232.75V232.75Z" fill="#455A64"/>
<path d="M338.51 220C336.919 218.688 335.223 217.507 333.44 216.47C331.571 215.596 329.635 214.873 327.65 214.31C328.266 214.256 328.886 214.317 329.48 214.49C330.942 214.805 332.355 215.316 333.68 216.01C335.003 216.708 336.227 217.579 337.32 218.6C337.8 218.989 338.203 219.464 338.51 220V220Z" fill="#455A64"/>
<path d="M388.07 326.43L388.84 350.5L384 369.72C383.921 370.049 383.912 370.391 383.971 370.724C384.031 371.057 384.158 371.375 384.346 371.656C384.534 371.938 384.777 372.178 385.062 372.361C385.347 372.544 385.666 372.666 386 372.72C386.387 372.791 386.784 372.767 387.16 372.653C387.536 372.538 387.879 372.335 388.16 372.06C391.8 368.5 405.16 355.34 404.99 353.59C404.81 351.59 405.86 328.13 405.86 328.13L388.07 326.43Z" fill="#C0B6FF"/>
<g opacity="0.6">
<path opacity="0.6" d="M385.91 372.76L404.91 352V353C404.922 353.883 404.616 354.742 404.05 355.42C402.54 357.23 398.25 362.14 388.16 372.08C387.872 372.365 387.517 372.575 387.128 372.69C386.739 372.805 386.327 372.822 385.93 372.74L385.91 372.76Z" fill="white"/>
</g>
<g opacity="0.6">
<path opacity="0.6" d="M399.87 344.27C399.565 344.493 399.356 344.823 399.283 345.194C399.211 345.564 399.281 345.949 399.48 346.27C399.691 346.57 400.007 346.778 400.366 346.852C400.724 346.926 401.098 346.861 401.41 346.67C401.724 346.438 401.939 346.096 402.013 345.713C402.087 345.33 402.014 344.933 401.81 344.6C401.561 344.307 401.208 344.122 400.826 344.085C400.443 344.048 400.061 344.161 399.76 344.4" fill="white"/>
</g>
<path d="M391.32 362.18C391.18 362.25 390.62 361 389.19 360.33C388.305 359.982 387.361 359.813 386.41 359.83C386.41 359.77 386.69 359.58 387.25 359.49C387.992 359.4 388.744 359.524 389.418 359.849C390.091 360.173 390.658 360.684 391.05 361.32C391.33 361.81 391.37 362.16 391.32 362.18Z" fill="#263238"/>
<path d="M389.63 365.43C388.938 365.052 388.223 364.718 387.49 364.43C386.709 364.292 385.921 364.199 385.13 364.15C385.498 363.914 385.917 363.769 386.352 363.729C386.787 363.689 387.225 363.755 387.63 363.92C389.05 364.3 389.75 365.36 389.63 365.43Z" fill="#263238"/>
<path d="M394.47 358C393.448 357.326 392.379 356.728 391.27 356.21C390.099 355.852 388.902 355.584 387.69 355.41C388.95 355.146 390.258 355.25 391.46 355.709C392.663 356.168 393.707 356.964 394.47 358V358Z" fill="#263238"/>
<path d="M394.85 350.68C394.79 350.83 393.45 350.28 391.72 350.24C389.99 350.2 388.62 350.62 388.56 350.47C389.53 349.935 390.627 349.673 391.734 349.709C392.841 349.746 393.918 350.082 394.85 350.68V350.68Z" fill="#263238"/>
<path d="M394.8 343.61C393.747 343.279 392.653 343.094 391.55 343.06C390.456 343.187 389.386 343.466 388.37 343.89C388.37 343.84 388.59 343.53 389.14 343.21C389.876 342.794 390.7 342.558 391.545 342.522C392.389 342.485 393.231 342.649 394 343C394.55 343.27 394.84 343.55 394.8 343.61Z" fill="#263238"/>
<path d="M391.58 341.71C391.518 341.41 391.518 341.1 391.58 340.8C391.655 339.964 391.896 339.151 392.29 338.41C392.524 337.839 392.943 337.364 393.48 337.06C393.666 336.977 393.873 336.952 394.073 336.99C394.273 337.027 394.457 337.125 394.6 337.27C394.858 337.57 394.996 337.954 394.99 338.35C394.943 339.156 394.618 339.921 394.071 340.515C393.525 341.109 392.789 341.496 391.99 341.61C391.192 341.699 390.386 341.548 389.674 341.178C388.962 340.808 388.376 340.234 387.99 339.53C387.893 339.352 387.835 339.156 387.822 338.954C387.808 338.752 387.838 338.549 387.91 338.36C388.004 338.181 388.149 338.035 388.328 337.94C388.506 337.845 388.709 337.807 388.91 337.83C389.505 337.957 390.056 338.236 390.51 338.64C391.166 339.16 391.728 339.789 392.17 340.5C392.347 340.751 392.475 341.032 392.55 341.33C391.914 340.426 391.15 339.621 390.28 338.94C389.874 338.607 389.394 338.377 388.88 338.27C388.769 338.251 388.655 338.268 388.554 338.318C388.454 338.369 388.372 338.45 388.32 338.55C388.285 338.679 388.275 338.813 388.292 338.945C388.309 339.077 388.353 339.205 388.42 339.32C388.771 339.916 389.285 340.398 389.902 340.71C390.519 341.022 391.212 341.151 391.9 341.08C392.582 340.993 393.213 340.674 393.689 340.177C394.164 339.68 394.454 339.035 394.51 338.35C394.523 338.076 394.438 337.807 394.27 337.59C394.194 337.504 394.093 337.446 393.982 337.422C393.87 337.399 393.754 337.412 393.65 337.46C393.211 337.728 392.863 338.122 392.65 338.59C392.118 339.561 391.756 340.617 391.58 341.71Z" fill="#263238"/>
<path d="M400.27 198.58C400.27 198.58 375.5 245.41 375.16 253.58C374.82 261.75 375.16 337.06 375.16 337.06H413.5C414.5 337.06 420.25 303.13 419.08 295.32C417.91 287.51 413.78 245.53 413.78 245.53H435.84C435.84 245.53 441.89 239.06 441.67 230.85C441.54 226.32 438.58 217.06 435.67 212.15C433.78 209 421.67 192.51 421.67 192.51L400.27 198.58Z" fill="#263238"/>
<path d="M398.61 201.75C398.583 201.844 398.546 201.934 398.5 202.02C398.41 202.22 398.29 202.47 398.14 202.78L396.7 205.7C396.05 206.97 395.28 208.51 394.38 210.3L392.94 213.17L391.43 216.44L384 232.53C382.59 235.53 381.11 238.74 379.57 242.03L377.24 247.03C376.487 248.759 375.917 250.562 375.54 252.41C375.16 254.263 374.963 256.149 374.95 258.04C374.89 259.91 374.85 261.76 374.82 263.57C374.82 267.21 374.75 270.71 374.76 274.05C374.76 280.73 374.84 286.75 374.91 291.8C374.98 296.85 375.04 300.9 375.09 303.8C375.09 305.18 375.09 306.27 375.09 307.05C375.09 307.4 375.09 307.68 375.09 307.9C375.09 308.12 375.09 308.19 375.09 308.19C375.073 308.094 375.073 307.996 375.09 307.9C375.09 307.68 375.09 307.4 375.09 307.06C375.09 306.27 375.01 305.19 374.95 303.8C374.85 300.98 374.72 296.89 374.61 291.8C374.5 286.71 374.38 280.74 374.35 274.05C374.35 270.71 374.35 267.2 374.35 263.57C374.35 261.75 374.41 259.9 374.48 258.02C374.49 256.099 374.687 254.183 375.07 252.3C375.457 250.418 376.041 248.581 376.81 246.82L379.15 241.82L383.61 232.34L391.19 216.29L392.73 213.03C393.26 212.03 393.73 211.03 394.21 210.18L396.6 205.62C397.25 204.39 397.77 203.43 398.13 202.74C398.3 202.44 398.44 202.2 398.54 202C398.64 201.8 398.6 201.74 398.61 201.75Z" fill="#455A64"/>
<path d="M390.59 217.7C389.795 215.796 389.127 213.842 388.59 211.85C387.888 209.91 387.317 207.926 386.88 205.91C387.812 207.758 388.55 209.699 389.08 211.7C389.788 213.643 390.294 215.653 390.59 217.7Z" fill="#455A64"/>
<path d="M419.16 293.85C419.096 293.68 419.056 293.501 419.04 293.32C418.993 292.913 418.923 292.403 418.83 291.79C418.65 290.38 418.42 288.46 418.13 286.13C417.58 281.29 416.84 274.72 416.02 267.46C415.2 260.2 414.53 253.55 414.12 248.76C413.93 246.42 413.77 244.5 413.65 243.09C413.65 242.46 413.57 241.95 413.54 241.54C413.527 241.36 413.527 241.18 413.54 241C413.603 241.17 413.64 241.349 413.65 241.53C413.7 241.94 413.77 242.45 413.85 243.07C414.01 244.48 414.23 246.39 414.49 248.73C415.02 253.57 415.74 260.15 416.49 267.41C417.24 274.67 417.95 281.24 418.49 286.09C418.71 288.43 418.9 290.35 419.03 291.76C419.08 292.38 419.12 292.9 419.15 293.31C419.169 293.489 419.172 293.67 419.16 293.85V293.85Z" fill="#455A64"/>
<path d="M409.42 73.16C408.83 69.16 412.26 65.31 416.22 64.84C420.18 64.37 424.17 66.84 425.99 70.45C426.837 72.2655 427.301 74.2361 427.352 76.2388C427.404 78.2415 427.042 80.2333 426.29 82.09C425.29 84.62 423.44 87.18 420.75 87.38C418.06 87.58 416 85.53 414.22 83.64" fill="#263238"/>
<path d="M381.27 93C373.27 75.47 392.27 66.66 402.6 69.58C412.32 72.33 416.47 77.17 418.07 83.67C419.823 90.1912 419.473 97.0992 417.07 103.41C415.81 106.47 413.55 109.57 410.27 109.95" fill="#263238"/>
<path d="M408.8 79.31C409.623 79.3953 410.383 79.7874 410.93 80.4082C411.477 81.029 411.77 81.833 411.75 82.66L409.88 127.28C409.81 132.55 402.12 135.53 396.47 135.41C390.78 135.29 390.59 132.49 390.47 127.48C390.34 119.11 390.34 115.96 390.34 116.01C390.34 116.06 383.14 114.81 381.65 105.42C380.9 100.75 381.14 93.09 381.53 86.83C381.89 81.2 385.62 74.28 391.24 74.83L408.8 79.31Z" fill="#FFBE9D"/>
<path d="M385.21 92.17C385.205 92.4849 385.323 92.7893 385.54 93.0175C385.757 93.2458 386.055 93.3795 386.37 93.39C386.524 93.4022 386.678 93.3835 386.824 93.335C386.97 93.2864 387.105 93.209 387.221 93.1074C387.336 93.0057 387.43 92.8819 387.497 92.7432C387.564 92.6045 387.602 92.4538 387.61 92.3C387.613 91.9858 387.493 91.6829 387.277 91.4552C387.06 91.2275 386.764 91.093 386.45 91.08C386.297 91.0678 386.142 91.0865 385.996 91.135C385.85 91.1836 385.715 91.261 385.599 91.3626C385.484 91.4643 385.39 91.5881 385.323 91.7268C385.256 91.8655 385.218 92.0162 385.21 92.17V92.17Z" fill="#263238"/>
<path d="M383.22 90.82C383.37 90.97 384.29 90.3 385.58 90.3C386.87 90.3 387.83 90.95 387.97 90.79C388.11 90.63 387.89 90.44 387.47 90.14C386.909 89.7524 386.242 89.5464 385.56 89.55C384.887 89.5435 384.23 89.7578 383.69 90.16C383.29 90.46 383.15 90.75 383.22 90.82Z" fill="#263238"/>
<path d="M397.88 92.17C397.877 92.4776 397.991 92.775 398.199 93.0016C398.407 93.2283 398.693 93.3671 399 93.39C399.154 93.4022 399.308 93.3835 399.454 93.335C399.6 93.2864 399.735 93.209 399.851 93.1074C399.966 93.0057 400.06 92.8819 400.127 92.7432C400.194 92.6045 400.233 92.4538 400.24 92.3C400.243 91.9859 400.124 91.6829 399.907 91.4552C399.691 91.2275 399.394 91.093 399.08 91.08C398.777 91.0664 398.48 91.1734 398.255 91.3776C398.031 91.5818 397.896 91.8667 397.88 92.17V92.17Z" fill="#263238"/>
<path d="M396 91.06C396.15 91.21 397.06 90.54 398.35 90.54C399.64 90.54 400.6 91.19 400.74 91.04C400.88 90.89 400.66 90.68 400.24 90.38C399.68 89.9906 399.012 89.7845 398.33 89.79C397.658 89.7899 397.003 90.0035 396.46 90.4C396 90.7 395.89 91 396 91.06Z" fill="#263238"/>
<path d="M391.26 100.67C390.578 100.46 389.873 100.332 389.16 100.29C388.83 100.29 388.51 100.19 388.46 99.97C388.429 99.622 388.506 99.2728 388.68 98.97C388.99 98.17 389.31 97.33 389.68 96.45C390.587 94.315 391.322 92.1114 391.88 89.86C390.797 91.9153 389.884 94.0558 389.15 96.26L388.21 98.8C388.003 99.2002 387.943 99.6601 388.04 100.1C388.09 100.216 388.165 100.32 388.26 100.403C388.355 100.486 388.468 100.547 388.59 100.58C388.773 100.628 388.961 100.655 389.15 100.66C389.85 100.751 390.559 100.754 391.26 100.67Z" fill="#263238"/>
<path d="M390.37 116C394.81 116.081 399.184 114.921 403 112.65C403 112.65 399.94 119.11 390.54 118.23L390.37 116Z" fill="#EB996E"/>
<path d="M391.81 103.79C392.057 103.482 392.379 103.241 392.744 103.091C393.11 102.941 393.507 102.885 393.9 102.93C394.188 102.954 394.467 103.037 394.722 103.172C394.976 103.308 395.2 103.495 395.38 103.72C395.552 103.936 395.654 104.199 395.672 104.474C395.69 104.75 395.623 105.024 395.48 105.26C395.272 105.494 394.999 105.66 394.696 105.736C394.393 105.813 394.074 105.797 393.78 105.69C393.164 105.473 392.599 105.133 392.12 104.69C391.975 104.587 391.85 104.458 391.75 104.31C391.704 104.239 391.679 104.155 391.679 104.07C391.679 103.985 391.704 103.901 391.75 103.83" fill="#EB996E"/>
<path d="M395.08 101.57C394.87 101.57 394.86 102.96 393.66 103.96C392.46 104.96 390.96 104.8 390.95 104.96C390.94 105.12 391.28 105.23 391.95 105.25C392.776 105.259 393.579 104.98 394.22 104.46C394.829 103.959 395.223 103.243 395.32 102.46C395.33 101.91 395.17 101.56 395.08 101.57Z" fill="#263238"/>
<path d="M395.38 88.79C395.51 89.14 396.81 88.97 398.33 89.16C399.85 89.35 401.08 89.75 401.28 89.44C401.37 89.29 401.15 88.96 400.66 88.61C400.001 88.1862 399.25 87.9257 398.47 87.85C397.693 87.7529 396.904 87.8456 396.17 88.12C395.61 88.34 395.33 88.62 395.38 88.79Z" fill="#263238"/>
<path d="M383.7 87.06C383.93 87.36 384.82 87.06 385.9 87.06C386.98 87.06 387.9 87.26 388.09 86.95C388.18 86.8 388.09 86.5 387.64 86.23C387.113 85.8836 386.49 85.7122 385.86 85.74C385.23 85.753 384.619 85.959 384.11 86.33C383.73 86.62 383.6 86.92 383.7 87.06Z" fill="#263238"/>
<path d="M395.93 71.75C392.743 71.9126 389.647 72.8756 386.93 74.55C385.407 75.3396 384.054 76.4216 382.949 77.7342C381.844 79.0468 381.008 80.5643 380.49 82.2C380.358 82.5402 380.298 82.9037 380.311 83.2683C380.325 83.6328 380.413 83.9907 380.57 84.32C380.867 84.6966 381.287 84.9577 381.756 85.0581C382.225 85.1585 382.715 85.092 383.14 84.87C383.988 84.4091 384.709 83.7462 385.24 82.94C385.451 83.8216 385.956 84.6053 386.671 85.1625C387.386 85.7198 388.269 86.0176 389.176 86.0071C390.083 85.9967 390.959 85.6786 391.661 85.1049C392.363 84.5313 392.849 83.7362 393.04 82.85C393.112 83.7509 393.528 84.5894 394.202 85.1911C394.877 85.7928 395.757 86.1112 396.66 86.08C397.561 86.002 398.42 85.6623 399.131 85.1026C399.841 84.543 400.373 83.7878 400.66 82.93C400.881 84.556 401.443 86.117 402.31 87.51C402.754 88.2014 403.4 88.7394 404.16 89.0507C404.921 89.362 405.759 89.4316 406.56 89.25C406.224 90.6325 406.245 92.0777 406.62 93.45C407.12 94.77 409.11 117.36 410.45 116.9C411.79 116.44 411.74 93.4 412.04 92.06C412.705 89.4896 413.041 86.8451 413.04 84.19C413.129 81.4548 412.243 78.7769 410.539 76.6353C408.835 74.4936 406.425 73.0278 403.74 72.5C401.059 71.8851 398.308 71.6328 395.56 71.75" fill="#263238"/>
<path d="M414.75 112.89C414.75 112.89 414.66 112.95 414.46 113.02C414.179 113.123 413.887 113.193 413.59 113.23C412.199 113.407 410.787 113.185 409.518 112.59C408.248 111.995 407.174 111.052 406.42 109.87C405.398 108.09 404.967 106.031 405.19 103.99C405.34 101.84 405.84 99.88 406.07 98.08C406.296 96.482 406.437 94.873 406.49 93.26C406.49 91.88 406.49 90.77 406.49 89.99C406.447 89.5912 406.447 89.1888 406.49 88.79C406.609 89.1833 406.679 89.5896 406.7 90C406.809 91.0932 406.863 92.1913 406.86 93.29C406.858 94.9182 406.755 96.5447 406.55 98.16C406.33 100 405.86 101.97 405.71 104.04C405.496 105.978 405.887 107.934 406.83 109.64C407.652 110.998 408.916 112.033 410.41 112.57C411.414 112.953 412.488 113.117 413.56 113.05C414.33 113 414.74 112.84 414.75 112.89Z" fill="#263238"/>
<path d="M392.62 70.54C392.984 71.2247 393.153 71.9959 393.11 72.77C393.145 74.6649 392.428 76.4965 391.116 77.8645C389.805 79.2324 388.005 80.0254 386.11 80.07C385.341 80.1438 384.566 80.0054 383.87 79.67C383.87 79.58 384.73 79.82 386.09 79.67C387.867 79.5493 389.536 78.7721 390.773 77.4896C392.009 76.207 392.725 74.5106 392.78 72.73C392.81 71.4 392.53 70.56 392.62 70.54Z" fill="#455A64"/>
<path d="M394 81.6C394.05 81.6 393.93 82.24 393.21 82.94C392.732 83.3698 392.172 83.6986 391.564 83.9065C390.955 84.1145 390.311 84.1973 389.67 84.15C388.413 84.0378 387.202 83.6226 386.14 82.94C385.33 82.43 384.89 82.04 384.93 81.94C385.414 82.0924 385.878 82.304 386.31 82.57C387.365 83.1184 388.516 83.4579 389.7 83.57C390.875 83.6392 392.035 83.2844 392.97 82.57C393.7 82.11 393.94 81.56 394 81.6Z" fill="#455A64"/>
<path d="M416.65 78.73C416.717 79.5909 416.656 80.4569 416.47 81.3C416.187 83.3887 415.398 85.3765 414.17 87.09C413.529 87.9397 412.721 88.6495 411.796 89.1757C410.871 89.7019 409.848 90.0335 408.79 90.15C408.147 90.2079 407.499 90.1434 406.88 89.96C406.45 89.83 406.24 89.7 406.25 89.67C407.075 89.8176 407.916 89.8546 408.75 89.78C410.739 89.4571 412.529 88.3833 413.75 86.78C414.922 85.1232 415.723 83.2338 416.1 81.24C416.231 80.3928 416.415 79.5545 416.65 78.73V78.73Z" fill="#455A64"/>
<path d="M418.37 83.28C418.462 83.5371 418.513 83.8071 418.52 84.08C418.588 84.808 418.604 85.5397 418.57 86.27C418.518 88.7307 417.637 91.1018 416.07 93C415.186 94.0437 414.035 94.8281 412.74 95.27C411.679 95.6173 410.546 95.6862 409.45 95.47C408.714 95.3295 408.016 95.0365 407.4 94.61C406.98 94.3 406.8 94.07 406.82 94.05C407.641 94.572 408.554 94.9318 409.51 95.11C410.542 95.2583 411.594 95.1589 412.58 94.82C413.781 94.3767 414.848 93.6331 415.68 92.66C417.165 90.8321 418.049 88.5897 418.21 86.24C418.37 84.43 418.28 83.29 418.37 83.28Z" fill="#455A64"/>
<path d="M286.56 204.15L268.41 245.66H293.4L311.2 203.82L286.56 204.15Z" fill="#455A64"/>
<path d="M273.36 160L293.83 200.26H358.39L355.78 195L337.08 194.44L321.83 160.5C321.367 159.466 320.614 158.588 319.663 157.972C318.712 157.357 317.603 157.029 316.47 157.03H275.18C274.826 157.017 274.475 157.099 274.163 157.266C273.85 157.434 273.588 157.682 273.403 157.984C273.218 158.286 273.116 158.632 273.109 158.986C273.101 159.34 273.188 159.69 273.36 160V160Z" fill="#E0E0E0"/>
<path d="M305.69 178.05C305.69 178.539 305.545 179.016 305.274 179.422C305.002 179.828 304.617 180.145 304.165 180.332C303.714 180.519 303.217 180.568 302.738 180.473C302.259 180.377 301.819 180.142 301.473 179.797C301.128 179.451 300.893 179.011 300.797 178.532C300.702 178.053 300.751 177.556 300.938 177.105C301.125 176.653 301.442 176.268 301.848 175.996C302.254 175.725 302.731 175.58 303.22 175.58C303.874 175.583 304.501 175.844 304.964 176.306C305.426 176.769 305.687 177.396 305.69 178.05V178.05Z" fill="#263238"/>
<path d="M365.27 200.34H286.35V204.19H365.27V200.34Z" fill="#455A64"/>
<path d="M340.96 202.27L364.97 245.7H376.45L378.95 240.73L381.25 235.5L365.27 204.19L340.96 202.27Z" fill="#455A64"/>
<path d="M382.68 127.81C382.68 127.81 368.74 132.72 365.74 148.32L380.46 155.66L382.68 127.81Z" fill="#C0B6FF"/>
<path d="M382.68 127.81C382.68 127.81 372.93 149.67 373.3 161.61C373.43 165.76 376.15 176.61 376.15 176.61L381.22 203.47C381.22 203.47 420.03 198.22 420.89 198.22C421.75 198.22 419.59 176.17 419.59 176.17L425.92 133.8C425.92 133.8 423.02 128.03 409.92 126.03C402.07 124.8 382.68 127.81 382.68 127.81Z" fill="#C0B6FF"/>
<path d="M379 140.5C379.09 140.55 378.07 142.18 376.84 145C376.127 146.651 375.526 148.348 375.04 150.08C374.456 152.202 374.031 154.365 373.77 156.55C373.54 158.739 373.47 160.941 373.56 163.14C373.651 164.935 373.861 166.723 374.19 168.49C374.75 171.49 375.39 173.33 375.29 173.36C375.08 172.962 374.913 172.543 374.79 172.11C374.612 171.615 374.458 171.111 374.33 170.6C374.17 170 373.96 169.33 373.82 168.6C373.445 166.82 373.198 165.015 373.08 163.2C372.96 160.972 373.017 158.739 373.25 156.52C373.516 154.304 373.961 152.114 374.58 149.97C375.094 148.227 375.739 146.526 376.51 144.88C376.791 144.241 377.105 143.617 377.45 143.01C377.689 142.54 377.953 142.082 378.24 141.64C378.454 141.235 378.709 140.853 379 140.5Z" fill="#263238"/>
<path d="M387.4 127.61L387.96 121.61C388.021 120.986 388.31 120.407 388.771 119.983C389.232 119.559 389.834 119.319 390.46 119.31L409.61 119.02C410.191 119.013 410.753 119.227 411.182 119.619C411.61 120.011 411.874 120.551 411.92 121.13L412.41 127.6C410.807 130.998 408.095 133.749 404.72 135.4C399.09 138.13 390.34 138.22 390.34 138.22L387.4 127.61Z" fill="#C0B6FF"/>
<path d="M392.41 119.36C392.47 119.36 392.19 119.75 392.07 120.36C391.962 121.243 391.962 122.137 392.07 123.02C392.238 124.308 392.238 125.612 392.07 126.9C391.726 125.646 391.551 124.351 391.55 123.05C391.416 122.124 391.457 121.181 391.67 120.27C392 119.58 392.38 119.31 392.41 119.36Z" fill="#263238"/>
<path d="M397 126.78C396.666 125.555 396.504 124.29 396.52 123.02C396.446 122.122 396.446 121.218 396.52 120.32C396.62 119.6 396.91 119.23 396.97 119.32C397.03 119.41 396.88 119.74 396.89 120.4C396.9 121.06 397 122 397 123C397.168 124.254 397.168 125.526 397 126.78V126.78Z" fill="#263238"/>
<path d="M402.75 126.62C402.336 125.453 402.084 124.235 402 123C401.753 121.776 401.676 120.525 401.77 119.28C402.188 120.456 402.44 121.684 402.52 122.93C402.763 124.144 402.841 125.385 402.75 126.62V126.62Z" fill="#263238"/>
<path d="M407.71 127C407.253 125.715 407.01 124.364 406.99 123C406.798 121.64 406.832 120.259 407.09 118.91C407.352 120.228 407.492 121.567 407.51 122.91C407.704 124.264 407.771 125.633 407.71 127V127Z" fill="#263238"/>
<g opacity="0.3">
<path opacity="0.3" d="M411.51 149.91C410.74 156.64 411.25 168.24 413.63 174.59L424.81 156.12L411.51 149.91Z" fill="black"/>
</g>
<path d="M424.88 132.41L424.94 132.47C428.11 135.798 430.43 139.843 431.7 144.26L433.76 153.65L411.76 157.05C410.549 153.067 410.262 148.861 410.92 144.75C412 137.67 424.88 132.41 424.88 132.41Z" fill="#C0B6FF"/>
<path d="M433.76 153.65C433.617 153.7 433.47 153.737 433.32 153.76L432.06 153.99L427.35 154.76L411.41 157.18H411.13V156.89C411.08 155.56 411.04 154.18 411.01 152.76C410.96 149.07 411.01 145.54 411.23 142.33C411.382 139.453 412.263 136.663 413.79 134.22C414.816 132.577 416.222 131.205 417.89 130.22C418.34 129.953 418.816 129.731 419.31 129.56C419.475 129.484 419.65 129.434 419.83 129.41C419.83 129.41 419.13 129.68 417.99 130.41C416.403 131.427 415.072 132.795 414.1 134.41C412.651 136.837 411.827 139.586 411.7 142.41C411.47 145.59 411.48 149.11 411.54 152.8C411.54 154.2 411.61 155.59 411.64 156.91L411.35 156.66L427.35 154.41L432.08 153.8L433.36 153.65C433.493 153.633 433.627 153.633 433.76 153.65V153.65Z" fill="#263238"/>
<path d="M387.29 139.86C386.17 139.208 385.141 138.411 384.23 137.49C383.203 136.697 382.288 135.769 381.51 134.73C383.657 136.174 385.601 137.9 387.29 139.86V139.86Z" fill="#FAFAFA"/>
<path d="M384.32 151.43C383.536 152.236 382.627 152.911 381.63 153.43C380.715 154.094 379.703 154.613 378.63 154.97C380.327 153.511 382.24 152.324 384.3 151.45L384.32 151.43Z" fill="#FAFAFA"/>
<path d="M396.59 154.28C396.412 152.859 396.412 151.421 396.59 150C396.597 148.571 396.772 147.148 397.11 145.76C397.285 147.178 397.285 148.612 397.11 150.03C397.106 151.462 396.932 152.889 396.59 154.28V154.28Z" fill="#FAFAFA"/>
<path d="M408.52 165.85C407.525 164.916 406.596 163.913 405.74 162.85C404.757 161.913 403.838 160.911 402.99 159.85C404.19 160.546 405.251 161.458 406.12 162.54C407.109 163.493 407.922 164.613 408.52 165.85Z" fill="#FAFAFA"/>
<path d="M410.2 141.66C409.342 142.553 408.362 143.32 407.29 143.94C406.308 144.696 405.228 145.315 404.08 145.78C404.941 144.886 405.924 144.118 407 143.5C407.981 142.748 409.057 142.129 410.2 141.66V141.66Z" fill="#FAFAFA"/>
<path d="M399.42 132.91C398.471 133.833 397.401 134.624 396.24 135.26C395.175 136.048 394.012 136.694 392.78 137.18C393.73 136.255 394.8 135.462 395.96 134.82C397.029 134.041 398.192 133.4 399.42 132.91V132.91Z" fill="#FAFAFA"/>
<path d="M409.14 136.39C408.485 135.422 407.973 134.364 407.62 133.25C407.128 132.19 406.791 131.066 406.62 129.91C407.283 130.877 407.796 131.939 408.14 133.06C408.638 134.114 408.975 135.236 409.14 136.39V136.39Z" fill="#FAFAFA"/>
<path d="M422.51 140.78C420.911 139.671 419.523 138.286 418.41 136.69C419.257 137.174 420.012 137.804 420.64 138.55C421.393 139.174 422.027 139.929 422.51 140.78V140.78Z" fill="#FAFAFA"/>
<path d="M417 150.53C416.682 149.542 416.537 148.507 416.57 147.47C416.421 146.446 416.451 145.404 416.66 144.39C417.12 146.403 417.235 148.479 417 150.53V150.53Z" fill="#FAFAFA"/>
<path d="M428.11 148.51C426.946 148.695 425.758 148.655 424.61 148.39C423.438 148.294 422.295 147.979 421.24 147.46C422.402 147.472 423.559 147.613 424.69 147.88C425.849 147.968 426.996 148.179 428.11 148.51Z" fill="#FAFAFA"/>
<path d="M383.31 168.66C382.495 167.531 381.823 166.305 381.31 165.01C380.64 163.788 380.123 162.488 379.77 161.14C380.585 162.269 381.257 163.495 381.77 164.79C382.442 166.011 382.96 167.311 383.31 168.66V168.66Z" fill="#FAFAFA"/>
<path d="M398 184.44C397.06 183.586 396.243 182.607 395.57 181.53C394.767 180.548 394.095 179.465 393.57 178.31C394.512 179.165 395.333 180.144 396.01 181.22C396.817 182.198 397.487 183.281 398 184.44V184.44Z" fill="#FAFAFA"/>
<path d="M410.14 177.82C409.111 178.491 407.994 179.016 406.82 179.38C405.708 179.905 404.526 180.265 403.31 180.45C405.449 179.251 407.749 178.365 410.14 177.82V177.82Z" fill="#FAFAFA"/>
<path d="M380.23 190.6C380.71 188.713 381.519 186.926 382.62 185.32C382.451 186.288 382.112 187.219 381.62 188.07C381.309 188.988 380.838 189.845 380.23 190.6Z" fill="#FAFAFA"/>
<path d="M370.82 145.41C370.242 144.678 369.894 143.79 369.82 142.86C369.584 141.959 369.626 141.007 369.94 140.13C370.146 140.997 370.28 141.88 370.34 142.77C370.571 143.636 370.732 144.518 370.82 145.41V145.41Z" fill="#FAFAFA"/>
<path d="M387.53 180.48C386.462 180.199 385.449 179.743 384.53 179.13C383.534 178.678 382.616 178.07 381.81 177.33C382.876 177.616 383.889 178.072 384.81 178.68C385.802 179.14 386.719 179.746 387.53 180.48Z" fill="#FAFAFA"/>
<path d="M397.18 163.82C395.54 165.784 393.635 167.51 391.52 168.95C392.279 167.915 393.174 166.987 394.18 166.19C395.067 165.267 396.077 164.47 397.18 163.82V163.82Z" fill="#FAFAFA"/>
<g opacity="0.3">
<path opacity="0.3" d="M391.27 163.51C391.755 166.996 393.31 170.245 395.72 172.81C398.22 175.25 402.09 176.48 405.34 175.21C405.695 175.112 406.021 174.93 406.291 174.68C406.561 174.429 406.767 174.117 406.89 173.77C406.945 173.344 406.85 172.911 406.623 172.547C406.395 172.182 406.047 171.908 405.64 171.77C404.83 171.51 403.981 171.388 403.13 171.41C400.705 171.251 398.361 170.475 396.32 169.155C394.28 167.835 392.61 166.016 391.47 163.87" fill="black"/>
</g>
<path d="M404.27 171.57C404.27 171.57 404.04 171.65 403.6 171.69C402.982 171.752 402.358 171.752 401.74 171.69C400.822 171.582 399.919 171.367 399.05 171.05C396.906 170.279 395.003 168.958 393.53 167.22C392.932 166.515 392.419 165.744 392 164.92C391.705 164.371 391.474 163.791 391.31 163.19C391.23 162.976 391.186 162.749 391.18 162.52C391.28 162.52 391.55 163.42 392.32 164.74C392.771 165.51 393.297 166.234 393.89 166.9C394.625 167.711 395.447 168.438 396.34 169.07C397.243 169.682 398.208 170.195 399.22 170.6C400.05 170.926 400.911 171.168 401.79 171.32C403.3 171.54 404.27 171.47 404.27 171.57Z" fill="#263238"/>
<path d="M349.22 187.69L363.7 186L373.91 192.69L412.91 183.33L413.83 156.61L431.16 154.33V186.68C431.063 190.607 429.413 194.336 426.571 197.048C423.729 199.761 419.928 201.236 416 201.15L358.84 199.56L356.41 194.7L344.14 194.33L349.22 187.69Z" fill="#FFBE9D"/>
<path d="M412.45 183.28C412.21 183.376 411.962 183.453 411.71 183.51L409.59 184.06L401.76 186L375.88 192.27L373.47 192.85H373.37H373.29L363.09 186.14H363.23L348.74 187.82L348.84 187.76L345 192.63L344 193.91C343.889 194.063 343.761 194.204 343.62 194.33C343.713 194.167 343.817 194.01 343.93 193.86L344.93 192.54L348.65 187.6H348.71L363.18 185.79H363.26H363.32L373.54 192.47H373.36L375.77 191.89L401.68 185.75L409.55 183.94L411.69 183.47C411.938 183.387 412.192 183.323 412.45 183.28Z" fill="#EB996E"/>
<path d="M357.13 191.84C355.262 192.059 353.38 192.132 351.5 192.06H350.5L350.64 192.01C349.509 193.05 348.287 193.987 346.99 194.81C348.021 193.672 349.145 192.622 350.35 191.67L350.41 191.61H351.52C353.393 191.533 355.269 191.61 357.13 191.84Z" fill="#EB996E"/>
<path d="M419.64 187.65C418.895 186.474 417.927 185.455 416.79 184.65C415.584 183.969 414.255 183.534 412.88 183.37C413.285 183.23 413.718 183.195 414.14 183.27C415.161 183.378 416.144 183.72 417.011 184.27C417.878 184.82 418.607 185.562 419.14 186.44C419.41 186.792 419.582 187.21 419.64 187.65V187.65Z" fill="#EB996E"/>
<path d="M169.55 401.27H104.25V410.24H169.55V401.27Z" fill="#263238"/>
<path d="M169.66 410.36H104.14V401.16H169.66V410.36ZM104.36 410.13H169.44V401.38H104.36V410.13Z" fill="#263238"/>
<path d="M110.31 407.26L119.7 453.63H154.48L163.57 410.25L110.31 407.26Z" fill="#263238"/>
<path d="M110.31 449.24L115.32 456.14H157.59L163.57 449.24H110.31Z" fill="#455A64"/>
<path d="M134.45 408.61C134.32 408.61 134.16 387.13 134.08 360.61C134 334.09 134.08 312.61 134.18 312.61C134.28 312.61 134.47 334.09 134.55 360.61C134.63 387.13 134.58 408.61 134.45 408.61Z" fill="#263238"/>
<path d="M149 354.85C148.956 355.022 148.896 355.19 148.82 355.35C148.67 355.72 148.47 356.18 148.24 356.74C148.11 357.05 147.97 357.38 147.81 357.74C147.65 358.1 147.53 358.53 147.38 358.96L146.87 360.36C146.7 360.86 146.56 361.36 146.39 361.96C145.614 364.586 145.003 367.258 144.56 369.96C144.058 373.274 143.724 376.612 143.56 379.96C143.324 386.051 143.498 392.152 144.08 398.22C144.29 400.56 144.5 402.44 144.66 403.74C144.72 404.35 144.78 404.85 144.82 405.24C144.833 405.416 144.833 405.594 144.82 405.77C144.757 405.603 144.717 405.428 144.7 405.25C144.63 404.86 144.55 404.37 144.45 403.77C144.24 402.47 143.97 400.59 143.72 398.26C143.04 392.179 142.823 386.054 143.07 379.94C143.218 376.574 143.552 373.219 144.07 369.89C144.532 367.182 145.181 364.509 146.01 361.89C146.19 361.33 146.34 360.79 146.52 360.3L147.06 358.9L147.54 357.69C147.7 357.32 147.86 357 148 356.69L148.67 355.33C148.754 355.153 148.865 354.991 149 354.85V354.85Z" fill="#263238"/>
<path d="M147.33 337.48C147.275 337.721 147.205 337.958 147.12 338.19C146.95 338.68 146.72 339.35 146.44 340.19L145.94 341.63C145.78 342.17 145.6 342.75 145.41 343.37C145.03 344.61 144.59 346.02 144.2 347.61L143.54 350.1C143.34 350.97 143.14 351.88 142.93 352.81C142.47 354.68 142.14 356.71 141.72 358.81C141 363.07 140.37 367.81 139.93 372.76C139.49 377.71 139.34 382.5 139.28 386.83C139.22 391.16 139.28 395.06 139.5 398.33C139.55 399.97 139.66 401.44 139.74 402.74C139.82 404.04 139.9 405.16 139.98 406.07C140.06 406.98 140.1 407.65 140.14 408.18C140.153 408.423 140.153 408.667 140.14 408.91C140.076 408.675 140.036 408.433 140.02 408.19C139.96 407.66 139.88 406.97 139.77 406.09C139.66 405.21 139.55 404.09 139.45 402.76C139.35 401.43 139.22 399.99 139.14 398.35C138.92 395.07 138.83 391.17 138.82 386.83C138.81 382.49 139.02 377.72 139.44 372.73C139.86 367.74 140.53 363.01 141.27 358.73C141.7 356.6 142.05 354.57 142.52 352.73C142.74 351.79 142.96 350.88 143.16 350.01L143.85 347.53C144.26 345.94 144.73 344.53 145.14 343.29C145.34 342.67 145.53 342.1 145.7 341.56C145.87 341.02 146.07 340.56 146.24 340.13L147 338.13C147.085 337.902 147.196 337.684 147.33 337.48V337.48Z" fill="#263238"/>
<path d="M130.32 412.41C130.31 412.327 130.31 412.243 130.32 412.16C130.32 411.97 130.32 411.73 130.26 411.42C130.21 410.74 130.15 409.79 130.07 408.58C129.91 406.07 129.69 402.51 129.41 398.11C128.85 389.28 128.03 377.11 126.54 363.66C125.78 356.94 124.9 350.57 123.98 344.79C123.5 341.91 123.06 339.17 122.55 336.61C122.04 334.05 121.55 331.68 121.15 329.51C120.75 327.34 120.24 325.4 119.85 323.69C119.46 321.98 119.11 320.5 118.85 319.3C118.59 318.1 118.34 317.2 118.17 316.53C118.11 316.24 118.05 316 118.01 315.81C117.995 315.727 117.995 315.643 118.01 315.56C118.051 315.635 118.081 315.716 118.1 315.8L118.3 316.51C118.49 317.17 118.74 318.09 119.07 319.26C119.4 320.43 119.79 321.91 120.2 323.63C120.61 325.35 121.11 327.28 121.56 329.45C122.01 331.62 122.56 333.98 123.02 336.54C123.48 339.1 124.02 341.84 124.5 344.73C125.44 350.51 126.33 356.89 127.09 363.6C128.58 377.04 129.35 389.25 129.83 398.09C130.07 402.52 130.24 406.09 130.34 408.57C130.34 409.78 130.42 410.73 130.44 411.42C130.44 411.72 130.44 411.97 130.44 412.16C130.413 412.249 130.372 412.333 130.32 412.41V412.41Z" fill="#263238"/>
<path d="M133.92 323C133.63 320 130.56 317.66 127.5 317.63C125.969 317.697 124.474 318.112 123.128 318.844C121.782 319.575 120.62 320.603 119.73 321.85C117.97 324.36 116.698 327.179 115.98 330.16C113.92 337.33 112.8 344.86 113.68 352.27C114.56 359.68 117.56 366.97 122.88 372.2C123.74 373.06 124.88 373.91 126.05 373.65C126.683 373.465 127.258 373.121 127.72 372.65C132.927 367.883 137.054 362.056 139.824 355.563C142.594 349.069 143.943 342.058 143.78 335C143.7 332.19 143.33 329.25 141.78 326.91C140.23 324.57 136.58 322.07 133.93 323.01" fill="#C0B6FF"/>
<path d="M111.09 298.6L106.79 306.4C106.69 306.58 106.56 306.79 106.35 306.8C106.14 306.81 105.95 306.61 105.83 306.42L94.45 289L97.07 287.51L111.09 298.6Z" fill="#C0B6FF"/>
<g opacity="0.2">
<path opacity="0.2" d="M111.09 298.6L106.79 306.4C106.69 306.58 106.56 306.79 106.35 306.8C106.14 306.81 105.95 306.61 105.83 306.42L94.45 289L97.07 287.51L111.09 298.6Z" fill="black"/>
</g>
<path d="M134.18 312.65L95.36 289.74C95.1391 289.655 94.937 289.528 94.7654 289.365C94.5938 289.202 94.4561 289.006 94.36 288.79C94.21 288.22 94.64 287.66 95.05 287.23C97.7212 284.462 100.957 282.301 104.537 280.895C108.118 279.489 111.959 278.87 115.8 279.08C119.639 279.356 123.354 280.563 126.622 282.596C129.891 284.63 132.615 287.428 134.56 290.75C138.3 297.44 138.43 306.3 134.13 312.65" fill="#C0B6FF"/>
<path d="M101 282.43C101.166 282.384 101.338 282.364 101.51 282.37C101.84 282.37 102.34 282.29 102.98 282.3C104.782 282.276 106.583 282.416 108.36 282.72C111.007 283.174 113.587 283.956 116.04 285.05C120.274 286.955 124.034 289.772 127.05 293.301C130.067 296.83 132.266 300.982 133.49 305.46C133.991 307.198 134.326 308.979 134.49 310.78C134.57 311.41 134.55 311.91 134.57 312.25C134.587 312.42 134.587 312.59 134.57 312.76C134.57 312.76 134.48 312.06 134.32 310.76C134.099 308.984 133.734 307.228 133.23 305.51C131.602 299.81 128.409 294.68 124.013 290.703C119.617 286.726 114.194 284.061 108.36 283.01C106.602 282.676 104.819 282.485 103.03 282.44C101.66 282.45 101 282.47 101 282.43Z" fill="#263238"/>
<path d="M128.92 296.84C128.294 297.221 127.622 297.52 126.92 297.73C125.68 298.22 123.92 298.84 122.02 299.46C120.12 300.08 118.32 300.56 117.02 300.88C116.33 301.091 115.619 301.225 114.9 301.28C115.54 300.971 116.21 300.729 116.9 300.56L121.84 299.01L126.77 297.42C127.466 297.156 128.186 296.962 128.92 296.84V296.84Z" fill="#263238"/>
<path d="M122.81 280.42C123.157 281.836 123.312 283.293 123.27 284.75C123.384 286.204 123.303 287.667 123.03 289.1C122.843 287.661 122.769 286.21 122.81 284.76C122.696 283.316 122.696 281.864 122.81 280.42Z" fill="#263238"/>
<path d="M95 289.31C95.9082 288.893 96.852 288.558 97.82 288.31C99.58 287.76 102.04 287.07 104.82 286.41C107.6 285.75 110.06 285.25 111.82 284.93C112.806 284.71 113.81 284.576 114.82 284.53C113.871 284.835 112.902 285.076 111.92 285.25C110.12 285.65 107.64 286.25 104.92 286.87C102.2 287.49 99.73 288.16 97.92 288.62C96.963 288.914 95.9875 289.145 95 289.31Z" fill="#263238"/>
<path d="M116.28 315.78C112.94 313.25 109.41 312.78 105.22 312.91C101.029 313.177 96.9255 314.225 93.12 316C86.57 318.86 80.42 323.09 76.51 329.07C72.6 335.05 71.23 342.97 74.16 349.49C74.3905 350.172 74.864 350.745 75.49 351.1C76.2173 351.303 76.9927 351.242 77.68 350.93C85.13 348.5 92.62 346.05 99.47 342.25C106.32 338.45 112.55 333.16 116.22 326.25C117.16 324.637 117.765 322.852 118 321C118.1 320.063 117.999 319.116 117.705 318.221C117.41 317.326 116.927 316.504 116.29 315.81" fill="#C0B6FF"/>
<path d="M116.34 315C116.173 315.095 115.995 315.169 115.81 315.22L114.25 315.76L113.12 316.13C112.71 316.28 112.27 316.46 111.8 316.65C110.86 317.03 109.8 317.41 108.61 317.97L106.79 318.8C106.15 319.09 105.52 319.45 104.85 319.8C103.5 320.46 102.14 321.31 100.68 322.17C94.444 326.036 88.8949 330.912 84.26 336.6C83.26 337.93 82.21 339.18 81.38 340.44C80.95 341.06 80.52 341.64 80.14 342.23L79.14 343.93C78.44 345 77.92 346.04 77.42 346.93C77.18 347.37 76.94 347.78 76.74 348.17C76.54 348.56 76.38 348.91 76.23 349.24L75.49 350.72C75.4203 350.899 75.326 351.067 75.21 351.22C75.2587 351.034 75.3257 350.853 75.41 350.68L76.06 349.16C76.21 348.83 76.37 348.47 76.54 348.07C76.71 347.67 76.96 347.26 77.19 346.81C77.67 345.9 78.19 344.81 78.85 343.76C79.19 343.21 79.53 342.63 79.85 342.03C80.17 341.43 80.65 340.85 81.07 340.22C81.89 338.94 82.9 337.68 83.93 336.33C86.2606 333.465 88.8153 330.79 91.57 328.33C94.3553 325.91 97.3316 323.72 100.47 321.78C101.94 320.92 103.32 320.08 104.68 319.43C105.36 319.09 106 318.74 106.68 318.43L108.53 317.63C109.7 317.08 110.8 316.72 111.76 316.36C112.24 316.19 112.68 316.02 113.1 315.88L114.24 315.54L115.83 315.09C115.998 315.047 116.168 315.017 116.34 315V315Z" fill="#263238"/>
<path d="M90.26 329.12C87.6013 330.133 84.8909 331.004 82.14 331.73C79.4305 332.611 76.6726 333.336 73.88 333.9C76.5387 332.887 79.2491 332.016 82 331.29C84.7111 330.415 87.4687 329.69 90.26 329.12V329.12Z" fill="#263238"/>
<path d="M89.92 347C89.7836 346.164 89.7233 345.317 89.74 344.47C89.74 342.91 89.74 340.74 89.74 338.36C89.74 335.98 89.94 333.81 90.07 332.25C90.0903 331.401 90.1976 330.557 90.39 329.73C90.4573 330.575 90.4573 331.425 90.39 332.27C90.33 333.98 90.27 336.06 90.2 338.37C90.13 340.68 90.09 342.76 90.04 344.47C90.0774 345.315 90.0373 346.162 89.92 347V347Z" fill="#263238"/>
<path d="M105.28 339.22C105.15 339.22 104.74 334.83 104.37 329.4C104 323.97 103.79 319.56 103.92 319.56C104.05 319.56 104.45 323.94 104.83 329.37C105.21 334.8 105.41 339.21 105.28 339.22Z" fill="#263238"/>
<path d="M86.17 319.13C87.0322 319.021 87.9027 318.994 88.77 319.05C90.37 319.05 92.59 319.11 95.04 319.19C97.49 319.27 99.7 319.37 101.3 319.46C102.169 319.471 103.035 319.555 103.89 319.71C103.028 319.819 102.157 319.846 101.29 319.79C99.69 319.79 97.47 319.74 95.02 319.65C92.57 319.56 90.36 319.47 88.75 319.38C87.8844 319.37 87.0213 319.286 86.17 319.13V319.13Z" fill="#263238"/>
<path d="M124.55 374.28C124.506 374.104 124.485 373.922 124.49 373.74C124.49 373.35 124.49 372.84 124.42 372.22C124.36 370.89 124.35 368.98 124.42 366.6C124.49 364.22 124.62 361.41 124.9 358.29C125.18 355.17 125.64 351.74 126.27 348.17C126.9 344.6 127.68 341.25 128.47 338.17C129.26 335.09 130.12 332.44 130.9 330.17C131.68 327.9 132.34 326.17 132.9 324.91C133.14 324.33 133.33 323.91 133.49 323.5C133.551 323.333 133.628 323.172 133.72 323.02C133.698 323.197 133.647 323.369 133.57 323.53L133 325C132.54 326.24 131.91 328 131.18 330.3C130.45 332.6 129.65 335.3 128.86 338.3C128.07 341.3 127.33 344.68 126.69 348.24C126.05 351.8 125.62 355.24 125.3 358.31C124.98 361.38 124.8 364.23 124.72 366.59C124.64 368.95 124.59 370.87 124.59 372.2C124.59 372.82 124.59 373.32 124.59 373.72C124.59 373.907 124.576 374.094 124.55 374.28V374.28Z" fill="#263238"/>
<path d="M126.59 347.79C126.136 348.411 125.616 348.981 125.04 349.49C124.04 350.49 122.61 351.83 120.99 353.26C119.37 354.69 117.84 355.92 116.71 356.79C116.132 357.293 115.502 357.732 114.83 358.1C115.339 357.525 115.901 356.999 116.51 356.53L120.68 352.91L124.82 349.25C125.362 348.708 125.955 348.219 126.59 347.79V347.79Z" fill="#263238"/>
<path d="M138.88 357.68C138.272 356.964 137.72 356.202 137.23 355.4L133.4 349.8L129.48 344.26C128.899 343.521 128.374 342.738 127.91 341.92C128.587 342.573 129.2 343.29 129.74 344.06C130.82 345.43 132.26 347.35 133.74 349.54C135.22 351.73 136.56 353.74 137.47 355.22C138.016 355.994 138.488 356.818 138.88 357.68V357.68Z" fill="#263238"/>
<path d="M132.44 326.55C132.51 326.66 128.44 329.41 123.33 332.69C118.22 335.97 114.03 338.55 113.96 338.44C113.89 338.33 117.96 335.58 123.08 332.3C128.2 329.02 132.38 326.45 132.44 326.55Z" fill="#263238"/>
<path d="M144 339C141.845 337.206 139.786 335.3 137.83 333.29C135.771 331.399 133.818 329.396 131.98 327.29C134.143 329.079 136.206 330.985 138.16 333C140.22 334.886 142.17 336.889 144 339V339Z" fill="#263238"/>
<path d="M146.85 338.73L150.35 338.44C152.839 338.236 155.254 337.496 157.43 336.27C158.495 335.649 159.597 335.095 160.73 334.61C165.06 332.88 169.9 333.19 174.56 332.95C182.195 332.565 189.676 330.654 196.56 327.33C196.973 327.148 197.322 326.844 197.56 326.46C198.28 325.15 196.94 323.98 195.79 323.27C189.88 319.63 183.87 315.95 177.18 314.14C170.49 312.33 162.88 312.64 157.18 316.57C150.48 321.19 148.03 330.67 146.9 338.73" fill="#C0B6FF"/>
<path d="M197.59 326C197.388 325.917 197.191 325.824 197 325.72L195.34 324.85C193.9 324.09 191.83 322.97 189.2 321.72C186.154 320.215 182.978 318.99 179.71 318.06C175.714 316.911 171.529 316.571 167.4 317.06C163.265 317.52 159.36 319.197 156.18 321.88C153.696 324.188 151.709 326.978 150.34 330.08C149.11 332.71 148.34 334.95 147.8 336.47L147.17 338.24C147.108 338.45 147.028 338.654 146.93 338.85C146.959 338.632 147.009 338.418 147.08 338.21C147.22 337.76 147.4 337.16 147.62 336.42C148.287 334.235 149.082 332.092 150 330C151.347 326.826 153.343 323.968 155.86 321.61C159.085 318.832 163.071 317.09 167.3 316.61C171.485 316.104 175.729 316.444 179.78 317.61C183.066 318.575 186.256 319.84 189.31 321.39C191.92 322.69 193.97 323.85 195.39 324.66L197.01 325.61C197.219 325.715 197.414 325.846 197.59 326Z" fill="#263238"/>
<path d="M189.18 330.55C189.11 330.65 184.52 327.69 178.94 323.93C173.36 320.17 168.89 317.03 168.94 316.93C168.99 316.83 173.59 319.79 179.17 323.55C184.75 327.31 189.25 330.44 189.18 330.55Z" fill="#263238"/>
<path d="M184.78 316.48C182.445 317.214 179.98 317.442 177.55 317.15C178.738 316.903 179.947 316.762 181.16 316.73C182.357 316.542 183.568 316.459 184.78 316.48V316.48Z" fill="#263238"/>
<path d="M164.23 312.8C163.355 314.87 162.209 316.814 160.82 318.58C161.178 317.515 161.683 316.505 162.32 315.58C162.822 314.567 163.465 313.631 164.23 312.8V312.8Z" fill="#263238"/>
<path d="M168.33 333.25C167.557 332.928 166.819 332.526 166.13 332.05C164.8 331.25 163.01 330.05 161.13 328.68C159.25 327.31 157.54 325.98 156.32 325.02C155.637 324.537 155.001 323.992 154.42 323.39C155.163 323.777 155.866 324.236 156.52 324.76L161.41 328.31C163.31 329.69 165.06 330.9 166.34 331.78C167.045 332.211 167.711 332.703 168.33 333.25V333.25Z" fill="#263238"/>
<path d="M152 353.62C148.66 352.73 144.67 355.98 144 359.37C143.33 362.76 144.59 366.22 146.07 369.37C149.255 376.364 153.979 382.548 159.89 387.46C165.852 392.349 173.291 395.08 181 395.21C179.59 388.65 181.37 381.79 180.59 375.12C179.893 369.245 177.224 363.78 173.019 359.619C168.814 355.457 163.322 352.846 157.44 352.21C155.31 351.98 152.84 351.65 151.99 353.62" fill="#C0B6FF"/>
<path d="M181 395.21C180.832 395.154 180.671 395.081 180.52 394.99C180.082 394.743 179.664 394.462 179.27 394.15C177.869 392.931 176.744 391.428 175.97 389.74C175.44 388.74 174.84 387.58 174.26 386.33C173.68 385.08 173.1 383.76 172.46 382.33C171.818 380.866 171.08 379.446 170.25 378.08C169.36 376.624 168.356 375.24 167.25 373.94C164.97 371.26 162.51 368.94 160.38 366.71C158.454 364.769 156.701 362.665 155.14 360.42C154.094 358.898 153.235 357.256 152.58 355.53C152.37 354.92 152.21 354.43 152.13 354.1C152.075 353.935 152.041 353.764 152.03 353.59C152.03 353.59 152.26 354.27 152.75 355.47C153.463 357.151 154.355 358.75 155.41 360.24C157.001 362.436 158.767 364.499 160.69 366.41C162.83 368.61 165.3 370.93 167.61 373.64C168.742 374.957 169.769 376.362 170.68 377.84C171.507 379.229 172.245 380.668 172.89 382.15L174.65 386.15C175.21 387.39 175.79 388.53 176.31 389.56C177.04 391.232 178.101 392.739 179.43 393.99C180.39 394.85 181.05 395.17 181 395.21Z" fill="#263238"/>
<path d="M163.73 389.76C163.75 389.001 163.854 388.246 164.04 387.51C164.3 386.13 164.73 384.24 165.31 382.18C165.89 380.12 166.51 378.29 167.01 376.98C167.229 376.253 167.534 375.554 167.92 374.9C167.785 375.643 167.584 376.373 167.32 377.08C166.9 378.42 166.32 380.26 165.76 382.31C165.2 384.36 164.76 386.22 164.36 387.58C164.222 388.326 164.011 389.056 163.73 389.76V389.76Z" fill="#263238"/>
<path d="M180.39 373.65C179.589 373.532 178.8 373.349 178.03 373.1C176.59 372.73 174.6 372.21 172.39 371.71C170.18 371.21 168.16 370.83 166.7 370.55C165.899 370.447 165.11 370.273 164.34 370.03C165.148 370.009 165.956 370.077 166.75 370.23C168.23 370.42 170.27 370.76 172.49 371.23C174.71 371.7 176.7 372.3 178.12 372.76C178.905 372.977 179.666 373.275 180.39 373.65V373.65Z" fill="#263238"/>
<path d="M151.33 378.33C151.368 377.451 151.488 376.577 151.69 375.72C151.99 374.13 152.45 371.93 153.08 369.54C153.71 367.15 154.37 365 154.89 363.46C155.147 362.614 155.481 361.794 155.89 361.01C155.745 361.876 155.531 362.728 155.25 363.56C154.81 365.12 154.19 367.27 153.57 369.65C152.95 372.03 152.43 374.22 152.06 375.79C151.889 376.656 151.645 377.506 151.33 378.33V378.33Z" fill="#263238"/>
<path d="M172.72 359.61C172.72 359.73 168.53 359.4 163.4 358.85C158.27 358.3 154.11 357.76 154.13 357.64C157.248 357.73 160.358 357.98 163.45 358.39C166.559 358.639 169.653 359.046 172.72 359.61V359.61Z" fill="#263238"/>
<path d="M169.66 410.21C169.66 410.34 154.99 410.44 136.9 410.44C118.81 410.44 104.14 410.34 104.14 410.21C104.14 410.08 118.81 409.98 136.9 409.98C154.99 409.98 169.66 410.08 169.66 410.21Z" fill="#455A64"/>
<path d="M159.46 429.08C159.46 429.21 149.57 429.32 137.38 429.32C125.19 429.32 115.31 429.21 115.31 429.08C115.31 428.95 125.19 428.85 137.38 428.85C149.57 428.85 159.46 429 159.46 429.08Z" fill="#455A64"/>
<path d="M159.84 431.78C159.84 431.91 149.96 432.01 137.77 432.01C125.58 432.01 115.7 431.91 115.7 431.78C115.7 431.65 125.58 431.55 137.77 431.55C149.96 431.55 159.84 431.65 159.84 431.78Z" fill="#455A64"/>
<path d="M159.84 426.86C159.84 426.99 149.62 427.09 137.01 427.09C124.4 427.09 114.18 426.99 114.18 426.86C114.18 426.73 124.4 426.63 137.01 426.63C149.62 426.63 159.84 426.73 159.84 426.86Z" fill="#455A64"/>
</g>
<defs>
<clipPath id="clip0_95_141">
<rect width="750" height="500" fill="white"/>
</clipPath>
</defs>
</svg>
