<svg width="108" height="208" viewBox="0 0 359 324" fill="none" xmlns="http://www.w3.org/2000/svg">
<path d="M23.7569 278.965H128.517V299.264H19.2597C0.802826 299.264 -4.65269 289.558 4.03845 274.026L96.6065 112.821V20.2991H78.3409C64.6782 20.2991 64.6782 0 78.3409 0H211.387C225.051 0 225.051 20.2991 211.387 20.2991H193.122V112.821L209.839 140.347H187.441L173.534 118.008V20.2991H116.195V118.008L23.7569 278.965ZM133.484 195.355V154.511H118.746L59.3257 258.585H175.162V195.355H133.484H133.484ZM260.862 156.561H150.123V179.933H193.483V321.269H217.412V179.932H260.862V156.561V156.561ZM355.723 261.115C340.601 229.127 304.666 227.141 294.216 206.942C282.67 174.226 330.285 168.314 353.16 190.355V160.988C343.413 154.377 327.915 153.667 317.042 154.283C288.35 155.91 269.07 173.416 269.358 199.496C268.121 235.898 307.707 245.272 327.583 262.118C341.084 274.147 340.118 303.319 306.767 300.406C296.092 299.376 282.39 297.206 269.149 282.02V313.261C293.475 329.866 335.314 326.818 349.899 306.861C358.568 294.999 362.141 279.111 355.723 261.115V261.115Z" fill="#EFF7F6"/>
</svg>
